<?xml version="1.0" encoding="utf-8"?>
<!-- Generator: Adobe Illustrator 20.0.0, SVG Export Plug-In . SVG Version: 6.00 Build 0)  -->
<svg version="1.1" id="Шар_1" xmlns="http://www.w3.org/2000/svg" xmlns:xlink="http://www.w3.org/1999/xlink" x="0px" y="0px"
	 viewBox="0 0 135 111" enable-background="new 0 0 135 111" xml:space="preserve">
<rect display="none" width="135" height="111"/>
<g>
	<path fill="#FFFFFF" d="M121,30v21H14V30H121 M124,27H11v27h113V27L124,27z"/>
</g>
<g>
	<path fill="#FFFFFF" d="M129,3c1.654,0,3,1.346,3,3v99c0,1.654-1.346,3-3,3H6c-1.654,0-3-1.346-3-3V6c0-1.654,1.346-3,3-3H129
		 M129,0H6C2.687,0,0,2.686,0,6v99c0,3.314,2.687,6,6,6h123c3.314,0,6-2.686,6-6V6C135,2.686,132.314,0,129,0L129,0z"/>
</g>
<path fill="#FFFFFF" d="M10,8c1.105,0,2,0.896,2,2.001C12,11.105,11.105,12,10,12c-1.105,0-2-0.895-2-1.999C8,8.896,8.895,8,10,8z"
	/>
<path fill="#FFFFFF" d="M0,20v-3h135v3H0z"/>
<path fill="none" d="M11,91h33v3H11V91z"/>
<path fill="none" d="M11,97.001h33V100H11V97.001z"/>
<path fill="none" d="M51,85h33v3H51V85z"/>
<path fill="none" d="M51,91h33v3H51V91z"/>
<path fill="none" d="M51,97.001h33V100H51V97.001z"/>
<path fill="none" d="M91,85h33v3H91V85z"/>
<path fill="#FFFFFF" d="M91,97h33V100H91V97z"/>
<path fill="#FFFFFF" d="M91,91.001h33V94H91V91.001z"/>
<path fill="#FFFFFF" d="M91,85h33V88H91V85z"/>
<path fill="#FFFFFF" d="M51,97h33V100H51V97z"/>
<path fill="#FFFFFF" d="M51,91.001h33V94H51V91.001z"/>
<path fill="#FFFFFF" d="M51,85h33V88H51V85z"/>
<g>
	<path fill="#FFFFFF" d="M81,63v14H54V63H81 M84,60H51v20h33V60L84,60z"/>
</g>
<path fill="#FFFFFF" d="M11,97h33V100H11V97z"/>
<path fill="#FFFFFF" d="M11,91.001h33V94H11V91.001z"/>
<path fill="#FFFFFF" d="M11,85h33V88H11V85z"/>
<g>
	<path fill="#FFFFFF" d="M41,63v14H14V63H41 M44,60H11v20h33V60L44,60z"/>
</g>
<g>
	<path fill="#FFFFFF" d="M121,63v14H94V63H121 M124,60H91v20h33V60L124,60z"/>
</g>
<path fill="#FFFFFF" d="M17,8c1.105,0,2,0.896,2,2.001C19,11.105,18.105,12,17,12c-1.105,0-2-0.895-2-1.999C15,8.896,15.895,8,17,8z
	"/>
<path fill="#FFFFFF" d="M24,8c1.105,0,2,0.896,2,2.001C26,11.105,25.105,12,24,12c-1.105,0-2-0.895-2-1.999C22,8.896,22.895,8,24,8z
	"/>
</svg>
