<?xml version="1.0" encoding="utf-8"?>
<!-- Generator: Adobe Illustrator 19.2.1, SVG Export Plug-In . SVG Version: 6.00 Build 0)  -->
<svg version="1.1" id="Шар_1" xmlns="http://www.w3.org/2000/svg" xmlns:xlink="http://www.w3.org/1999/xlink" x="0px" y="0px"
	 viewBox="0 0 100 100" style="enable-background:new 0 0 100 100;" xml:space="preserve">
<g>
	<path d="M86,33v14H14V33H86 M88,31H12v18h76V31L88,31z"/>
</g>
<g>
	<path d="M86,56v9H68v-9H86 M88,54H66v13h22V54L88,54z"/>
</g>
<g>
	<path d="M59,56v9H41v-9H59 M61,54H39v13h22V54L61,54z"/>
</g>
<g>
	<path d="M32,56v9H14v-9H32 M34,54H12v13h22V54L34,54z"/>
</g>
<path d="M66,70h22v2H66V70z"/>
<path d="M66,74h22v2H66V74z"/>
<path d="M66,78h22v2H66V78z"/>
<path d="M39,70h22v2H39V70z"/>
<path d="M39,74h22v2H39V74z"/>
<path d="M39,78h22v2H39V78z"/>
<path d="M12,70h22v2H12V70z"/>
<path d="M12,74h22v2H12V74z"/>
<path d="M12,78h22v2H12V78z"/>
<g>
	<path d="M91,15c1.1,0,2,0.9,2,2v66c0,1.1-0.9,2-2,2H9c-1.1,0-2-0.9-2-2V17c0-1.1,0.9-2,2-2H91 M91,13H9c-2.2,0-4,1.8-4,4v66
		c0,2.2,1.8,4,4,4h82c2.2,0,4-1.8,4-4V17C95,14.8,93.2,13,91,13L91,13z"/>
</g>
<path d="M21.5,18c0.8,0,1.5,0.7,1.5,1.5c0,0.8-0.7,1.5-1.5,1.5S20,20.3,20,19.5C20,18.7,20.7,18,21.5,18z"/>
<path d="M16.5,18c0.8,0,1.5,0.7,1.5,1.5c0,0.8-0.7,1.5-1.5,1.5S15,20.3,15,19.5C15,18.7,15.7,18,16.5,18z"/>
<path d="M11.5,18c0.8,0,1.5,0.7,1.5,1.5c0,0.8-0.7,1.5-1.5,1.5S10,20.3,10,19.5C10,18.7,10.7,18,11.5,18z"/>
<path d="M5,26v-2h90v2H5z"/>
</svg>
