<?xml version="1.0" encoding="utf-8"?>
<!-- Generator: Adobe Illustrator 20.0.0, SVG Export Plug-In . SVG Version: 6.00 Build 0)  -->
<svg version="1.1" id="Шар_1" xmlns="http://www.w3.org/2000/svg" xmlns:xlink="http://www.w3.org/1999/xlink" x="0px" y="0px"
	 viewBox="0 0 155 111" enable-background="new 0 0 155 111" xml:space="preserve">
<rect display="none" fill="#010202" width="135" height="111"/>
<path fill-rule="evenodd" clip-rule="evenodd" fill="#FFFFFF" d="M146,38.5v17c0,0-2-0.634-2-1.417V39.917
	C144,39.134,144.895,38.5,146,38.5z"/>
<g>
	<path fill="#FFFFFF" d="M150.5,26.544L150.671,27h-0.342L150.5,26.544 M152,22h-3l-3,8h9L152,22L152,22z"/>
</g>
<g>
	<path fill="#FFFFFF" d="M152,86v2c0,0,0,0,0,0h-3c0,0,0,0,0,0v-2H152 M155,83h-9v5.333c0,1.473,1.343,2.667,3,2.667h3
		c1.657,0,3-1.194,3-2.667V83L155,83z"/>
</g>
<g>
	<path fill="#FFFFFF" d="M152,33v47h-3V33H152 M155,30h-9v53h9V30L155,30z"/>
</g>
<path fill-rule="evenodd" clip-rule="evenodd" fill="#FFFFFF" d="M1.5,46v-3H15v3H1.5z"/>
<path fill-rule="evenodd" clip-rule="evenodd" fill="#FFFFFF" d="M1.5,68v-3H15v3H1.5z"/>
<g>
	<path fill="#FFFFFF" d="M9,25c1.654,0,3,1.386,3,3.09v54.819C12,84.613,10.654,86,9,86H3V25H9 M9,22H0v67h9
		c3.313,0,6-2.727,6-6.091V28.09C15,24.726,12.313,22,9,22L9,22z"/>
</g>
<g>
	<path fill="#FFFFFF" d="M122,12v87H22V12H122 M125,9H19v93h106V9L125,9z"/>
</g>
<g>
	<path fill="#FFFFFF" d="M129,3c1.654,0,3,1.346,3,3v99c0,1.654-1.346,3-3,3H6c-1.654,0-3-1.346-3-3V6c0-1.654,1.346-3,3-3H129
		 M129,0H6C2.687,0,0,2.687,0,6v99c0,3.313,2.687,6,6,6h123c3.314,0,6-2.687,6-6V6C135,2.687,132.314,0,129,0L129,0z"/>
</g>
</svg>
