<?xml version="1.0" encoding="utf-8"?>
<!-- Generator: Adobe Illustrator 19.2.1, SVG Export Plug-In . SVG Version: 6.00 Build 0)  -->
<svg version="1.1" id="Шар_1" xmlns="http://www.w3.org/2000/svg" xmlns:xlink="http://www.w3.org/1999/xlink" x="0px" y="0px"
	 viewBox="0 0 100 100" style="enable-background:new 0 0 100 100;" xml:space="preserve">
<path d="M94,38v12c0,0-1-0.4-1-1V39C93,38.4,93.4,38,94,38z"/>
<g>
	<path d="M97,29.3l0.2,0.7h-0.4L97,29.3 M98,26h-2l-2,6h6L98,26L98,26z"/>
</g>
<g>
	<path d="M98,72v2h-2v-2H98 M100,70h-6v4c0,1.1,0.9,2,2,2h2c1.1,0,2-0.9,2-2V70L100,70z"/>
</g>
<g>
	<path d="M98,34v34h-2V34H98 M100,32h-6v38h6V32L100,32z"/>
</g>
<path d="M1,44v-2h9v2H1z"/>
<path d="M1,58v-2h9v2H1z"/>
<g>
	<path d="M6,30c1.1,0,2,0.9,2,2v36c0,1.1-0.9,2-2,2H2V30H6 M6,28H0v44h6c2.2,0,4-1.8,4-4V32C10,29.8,8.2,28,6,28L6,28z"/>
</g>
<g>
	<path d="M82,21v58H15V21H82 M84,19H13v62h71V19L84,19z"/>
</g>
<g>
	<path d="M86,15c1.1,0,2,0.9,2,2v66c0,1.1-0.9,2-2,2H4c-1.1,0-2-0.9-2-2V17c0-1.1,0.9-2,2-2H86 M86,13H4c-2.2,0-4,1.8-4,4v66
		c0,2.2,1.8,4,4,4h82c2.2,0,4-1.8,4-4V17C90,14.8,88.2,13,86,13L86,13z"/>
</g>
</svg>
