<?xml version="1.0" encoding="utf-8"?>
<!-- Generator: Adobe Illustrator 16.0.0, SVG Export Plug-In . SVG Version: 6.00 Build 0)  -->
<!DOCTYPE svg PUBLIC "-//W3C//DTD SVG 1.1//EN" "http://www.w3.org/Graphics/SVG/1.1/DTD/svg11.dtd">
<svg version="1.1" id="Шар_1" xmlns="http://www.w3.org/2000/svg" xmlns:xlink="http://www.w3.org/1999/xlink" x="0px" y="0px"
	 width="103px" height="74px" viewBox="0 0 103 74" enable-background="new 0 0 103 74" xml:space="preserve">
<path fill-rule="evenodd" clip-rule="evenodd" fill="#FFFFFF" d="M97,25v12c0,0-1-0.448-1-1V26C96,25.448,96.447,25,97,25z"/>
<g>
	<path fill="#FFFFFF" d="M100,16.325L100.225,17h-0.45L100,16.325 M101,13h-2l-2,6h6L101,13L101,13z"/>
</g>
<g>
	<path fill="#FFFFFF" d="M101,59v2h-2v-2H101 M103,57h-6v4c0,1.104,0.896,2,2,2h2c1.104,0,2-0.896,2-2V57L103,57z"/>
</g>
<g>
	<path fill="#FFFFFF" d="M101,21v34h-2V21H101 M103,19h-6v38h6V19L103,19z"/>
</g>
<path fill-rule="evenodd" clip-rule="evenodd" fill="#FFFFFF" d="M1,31V29h9V31H1z"/>
<path fill-rule="evenodd" clip-rule="evenodd" fill="#FFFFFF" d="M1,45v-2h9v2H1z"/>
<g>
	<path fill="#FFFFFF" d="M6,17c1.103,0,2,0.897,2,2v36c0,1.103-0.897,2-2,2H2V17H6 M6,15H0v44h6c2.209,0,4-1.791,4-4V19
		C10,16.791,8.209,15,6,15L6,15z"/>
</g>
<g>
	<path fill="#FFFFFF" d="M82,8v58H15V8H82 M84,6H13v62h71V6L84,6z"/>
</g>
<g>
	<path fill="#FFFFFF" d="M86,2c1.103,0,2,0.897,2,2v66c0,1.103-0.897,2-2,2H4c-1.103,0-2-0.897-2-2V4c0-1.103,0.897-2,2-2H86 M86,0
		H4C1.791,0,0,1.791,0,4v66c0,2.209,1.791,4,4,4h82c2.209,0,4-1.791,4-4V4C90,1.791,88.209,0,86,0L86,0z"/>
</g>
</svg>
