<?xml version="1.0" encoding="utf-8"?>
<!-- Generator: Adobe Illustrator 16.0.0, SVG Export Plug-In . SVG Version: 6.00 Build 0)  -->
<!DOCTYPE svg PUBLIC "-//W3C//DTD SVG 1.1//EN" "http://www.w3.org/Graphics/SVG/1.1/DTD/svg11.dtd">
<svg version="1.1" id="Шар_1" xmlns="http://www.w3.org/2000/svg" xmlns:xlink="http://www.w3.org/1999/xlink" x="0px" y="0px"
	 width="90px" height="74px" viewBox="0 0 90 74" enable-background="new 0 0 90 74" xml:space="preserve">
<path fill-rule="evenodd" clip-rule="evenodd" fill="#616160" d="M67,56v-2h8v2H67z M58,24h15v2H58V24z M60,19L60,19l5,0v2h-5V19z
	 M44,19L44,19l13,0v2H44V19z M48,26h-5v-2h5V26z M39,19h2v2h-2V19z M40,26h-2v-2h2V26z M46,29v2h-7v-2H46z M46,36H36v-2h10V36z
	 M26,29h10v2H26V29z M29,19h7v2h-7V19z M22,19h4v2h-4V19z M7,19h12v2H7V19z M22,26H7v-2h15V26z M12,31H7v-2h5V31z M17,34v2H7v-2
	L17,34L17,34z M22,41L22,41L7,41v-2h15V41z M13,46H7v-2h6V46z M12,51H7v-2h5V51z M25,56H7v-2h18V56z M12,61H7v-2h5V61z M17,66H7v-2
	h10V66z M25,66h-5v-2h5V66z M15,59h11h10v2H26H15V59z M55,66H28v-2h27V66z M52,61v-2h6v2H52L52,61z M63,66h-5v-2h5V66z M61,61v-2h5
	v2H61L61,61z M60,56v-2h4v2H60z M49,56h-5v-2h5V56z M48,41h-5v-2h5V41z M49,34h5v2h-5V34z M51,39h4v2h-4V39z M57,34h4v2h-4V34z
	 M52,54h5v2h-5V54z M49,61H39v-2h10V61z M36,51H26v-2h10V51z M35,41L35,41L25,41v-2h10V41z M20,44v2h-4v-2H20z M23,51h-8v-2h8V51z
	 M15,29h8v2h-8V29z M35,26H25v-2h10V26z M33,34v2H20v-2L33,34L33,34z M40,39v2h-2v-2H40z M41,56H28v-2h13V56z M55,24v2h-4v-2H55z
	 M62,31H49v0V29v0h13V31z M65,31V29v0h5v2L65,31L65,31z M58,39h10v2H58V39z"/>
<g>
	<path fill="#616160" d="M86,2c1.103,0,2,0.897,2,2v66c0,1.103-0.897,2-2,2H4c-1.103,0-2-0.897-2-2V4c0-1.103,0.897-2,2-2H86 M86,0
		H4C1.791,0,0,1.791,0,4v66c0,2.209,1.791,4,4,4h82c2.209,0,4-1.791,4-4V4C90,1.791,88.209,0,86,0L86,0z"/>
</g>
<path fill-rule="evenodd" clip-rule="evenodd" fill="#616160" d="M16.5,5C17.328,5,18,5.672,18,6.5C18,7.329,17.328,8,16.5,8
	S15,7.329,15,6.5C15,5.672,15.672,5,16.5,5z"/>
<path fill-rule="evenodd" clip-rule="evenodd" fill="#616160" d="M11.5,5C12.328,5,13,5.672,13,6.5C13,7.329,12.328,8,11.5,8
	S10,7.329,10,6.5C10,5.672,10.672,5,11.5,5z"/>
<path fill-rule="evenodd" clip-rule="evenodd" fill="#616160" d="M6.5,5C7.328,5,8,5.672,8,6.5C8,7.329,7.328,8,6.5,8S5,7.329,5,6.5
	C5,5.672,5.672,5,6.5,5z"/>
<path fill-rule="evenodd" clip-rule="evenodd" fill="#616160" d="M0,13v-2h90v2H0z"/>
</svg>
