<?xml version="1.0" encoding="utf-8"?>
<!-- Generator: Adobe Illustrator 20.0.0, SVG Export Plug-In . SVG Version: 6.00 Build 0)  -->
<svg version="1.1" id="Шар_1" xmlns="http://www.w3.org/2000/svg" xmlns:xlink="http://www.w3.org/1999/xlink" x="0px" y="0px"
	 viewBox="0 0 135 111" enable-background="new 0 0 135 111" xml:space="preserve">
<rect display="none" width="135" height="111"/>
<g>
	<path fill="#FFFFFF" d="M129,3c1.654,0,3,1.346,3,3v99c0,1.654-1.346,3-3,3H6c-1.654,0-3-1.346-3-3V6c0-1.654,1.346-3,3-3H129
		 M129,0H6C2.687,0,0,2.687,0,6v99c0,3.313,2.687,6,6,6h123c3.314,0,6-2.687,6-6V6C135,2.687,132.314,0,129,0L129,0z"/>
</g>
<path fill="#FFFFFF" d="M0,20v-3h135v3H0z"/>
<path fill="#FFFFFF" d="M17,8c1.105,0,2,0.896,2,2.001C19,11.105,18.105,12,17,12s-2-0.895-2-1.999C15,8.896,15.895,8,17,8z"/>
<path fill="#FFFFFF" d="M24,8c1.105,0,2,0.895,2,2.001C26,11.105,25.105,12,24,12c-1.105,0-2-0.895-2-1.999C22,8.896,22.895,8,24,8z
	"/>
<path fill="#FFFFFF" d="M10,8c1.105,0,2,0.896,2,2.001C12,11.105,11.105,12,10,12c-1.105,0-2-0.895-2-1.999C8,8.896,8.895,8,10,8z"
	/>
<path fill-rule="evenodd" clip-rule="evenodd" fill="#FFFFFF" d="M102,88v-3h12v3H102z M88,61h23v3H88V61z M99,48v-3h8v3H99z M88,37
	h23v3H88V37z M91,29h8v3h-8V29z M67,29h20v3H67V29z M73,40h-8v-3h8V40z M60,29h3v3h-3V29z M60,40h-3v-3h3V40z M45,29h11v3H45V29z
	 M34,29h6v3h-6V29z M11,29h18v3H11V29z M34,37v3H11v-3L34,37L34,37z M19,48h-8v-3h8V48z M26,56H11v-3h15V56z M34,64H11v-3h23V64z
	 M20,72h-9v-3h9V72z M19,80h-8v-3h8V80z M38,88H11v-3h27V88z M19,96h-8v-3h8V96z M56,93v3H40.75H24v-3h16.75H56z M75,96H60v-3h15V96
	z M83,64h-6v-3h6V64z M87,53h6v3h-6V53z M75,53h8v3h-8V53z M75,88h-8v-3h8V88z M73,64h-8v-3h8V64z M60,61v3h-3v-3H60z M63,88H43v-3
	h20V88z M55,80H40v-3h15V80z M55,48H40v-3h15V48z M53,40H38v-3h15V40z M53,64H38v-3h15V64z M31,69v3h-6v-3H31z M35,80H23v-3h12V80z
	 M23,45h12v3H23V45z M51,56H31v-3h20V56z M70,45v3H59v-3H70z M70,56H55v-3h15V56z M83,37v3h-6v-3H83z M94,48H74v-3h20V48z M87,88h-8
	v-3h8V88z M88,96h-9v-3h9V96z M97,88h-6v-3h6V88z M101,96h-8v-3h8V96z"/>
</svg>
