<?xml version="1.0" encoding="utf-8"?>
<!-- Generator: Adobe Illustrator 19.2.1, SVG Export Plug-In . SVG Version: 6.00 Build 0)  -->
<svg version="1.1" id="Шар_1" xmlns="http://www.w3.org/2000/svg" xmlns:xlink="http://www.w3.org/1999/xlink" x="0px" y="0px"
	 viewBox="0 0 100 100" style="enable-background:new 0 0 100 100;" xml:space="preserve">
<path d="M72,69v-2h8v2H72z M63,37h15v2H63V37z M65,32L65,32h5v2h-5V32z M49,32L49,32h13v2H49V32z M53,39h-5v-2h5V39z M44,32h2v2h-2
	V32z M45,39h-2v-2h2V39z M51,42v2h-7v-2H51z M51,49H41v-2h10V49z M31,42h10v2H31V42z M34,32h7v2h-7V32z M27,32h4v2h-4V32z M12,32h12
	v2H12V32z M27,39H12v-2h15V39z M17,44h-5v-2h5V44z M22,47v2H12v-2H22L22,47z M27,54H12v-2h15V54z M18,59h-6v-2h6V59z M17,64h-5v-2h5
	V64z M30,69H12v-2h18V69z M17,74h-5v-2h5V74z M22,79H12v-2h10V79z M30,79h-5v-2h5V79z M20,72h11h10v2H31H20V72z M60,79H33v-2h27V79z
	 M57,74v-2h6v2H57L57,74z M68,79h-5v-2h5V79z M66,74v-2h5v2H66L66,74z M65,69v-2h4v2H65z M54,69h-5v-2h5V69z M53,54h-5v-2h5V54z
	 M54,47h5v2h-5V47z M56,52h4v2h-4V52z M62,47h4v2h-4V47z M57,67h5v2h-5V67z M54,74H44v-2h10V74z M41,64H31v-2h10V64z M40,54H30v-2
	h10V54z M25,57v2h-4v-2H25z M28,64h-8v-2h8V64z M20,42h8v2h-8V42z M40,39H30v-2h10V39z M38,47v2H25v-2H38L38,47z M45,52v2h-2v-2H45z
	 M46,69H33v-2h13V69z M60,37v2h-4v-2H60z M67,44H54l0,0v-2l0,0h13V44z M70,44v-2l0,0h5v2H70L70,44z M63,52h10v2H63V52z"/>
<g>
	<path d="M91,15c1.1,0,2,0.9,2,2v66c0,1.1-0.9,2-2,2H9c-1.1,0-2-0.9-2-2V17c0-1.1,0.9-2,2-2H91 M91,13H9c-2.2,0-4,1.8-4,4v66
		c0,2.2,1.8,4,4,4h82c2.2,0,4-1.8,4-4V17C95,14.8,93.2,13,91,13L91,13z"/>
</g>
<path d="M21.5,18c0.8,0,1.5,0.7,1.5,1.5c0,0.8-0.7,1.5-1.5,1.5S20,20.3,20,19.5C20,18.7,20.7,18,21.5,18z"/>
<path d="M16.5,18c0.8,0,1.5,0.7,1.5,1.5c0,0.8-0.7,1.5-1.5,1.5S15,20.3,15,19.5C15,18.7,15.7,18,16.5,18z"/>
<path d="M11.5,18c0.8,0,1.5,0.7,1.5,1.5c0,0.8-0.7,1.5-1.5,1.5S10,20.3,10,19.5C10,18.7,10.7,18,11.5,18z"/>
<path d="M5,26v-2h90v2H5z"/>
</svg>
