<?xml version="1.0" encoding="utf-8"?>
<!-- Generator: Adobe Illustrator 16.0.0, SVG Export Plug-In . SVG Version: 6.00 Build 0)  -->
<!DOCTYPE svg PUBLIC "-//W3C//DTD SVG 1.1//EN" "http://www.w3.org/Graphics/SVG/1.1/DTD/svg11.dtd">
<svg version="1.1" id="Шар_1" xmlns="http://www.w3.org/2000/svg" xmlns:xlink="http://www.w3.org/1999/xlink" x="0px" y="0px"
	 width="63px" height="77px" viewBox="0 0 63 77" enable-background="new 0 0 63 77" xml:space="preserve">
<path fill-rule="evenodd" clip-rule="evenodd" fill="#616160" d="M49,70.001c1.104,0,2,0.895,2,2c0,1.104-0.896,2-2,2s-2-0.896-2-2
	C47,70.896,47.896,70.001,49,70.001z"/>
<g>
	<path fill="#616160" d="M58,29v38H40V29H58 M60,27H38v42h22V27L60,27z"/>
</g>
<path fill-rule="evenodd" clip-rule="evenodd" fill="#616160" d="M46,24h6c0.553,0,1,0.448,1,1c0,0.552-0.447,1-1,1h-6
	c-0.553,0-1-0.448-1-1C45,24.448,45.447,24,46,24z"/>
<g>
	<path fill="#616160" d="M59,23c1.103,0,2,0.897,2,2v48c0,1.103-0.897,2-2,2H39c-1.103,0-2-0.897-2-2V25c0-1.103,0.897-2,2-2H59
		 M59,21H39c-2.209,0-4,1.791-4,4v48c0,2.209,1.791,4,4,4h20c2.209,0,4-1.791,4-4V25C63,22.791,61.209,21,59,21L59,21z"/>
</g>
<path fill-rule="evenodd" clip-rule="evenodd" fill="#616160" d="M28,67.001c1.104,0,2,0.895,2,2c0,1.104-0.896,2-2,2s-2-0.896-2-2
	C26,67.896,26.896,67.001,28,67.001z"/>
<polygon fill="#616160" points="36,64.001 7,64.001 7,7 49,7 49,22 51,22 51,5 5,5 5,66 36,66 "/>
<path fill="#616160" d="M36,73.001v-1H4c-1.103,0-2-0.898-2-2V4c0-1.103,0.897-2,2-2h48c1.103,0,2,0.897,2,2v18h2V4
	c0-2.209-1.791-4-4-4H4C1.791,0,0,1.791,0,4v66.001C0,72.21,1.791,74,4,74h32C35.917,73.678,36,73.349,36,73.001z"/>
</svg>
