<?xml version="1.0" encoding="utf-8"?>
<!-- Generator: Adobe Illustrator 16.0.0, SVG Export Plug-In . SVG Version: 6.00 Build 0)  -->
<!DOCTYPE svg PUBLIC "-//W3C//DTD SVG 1.1//EN" "http://www.w3.org/Graphics/SVG/1.1/DTD/svg11.dtd">
<svg version="1.1" id="Шар_1" xmlns="http://www.w3.org/2000/svg" xmlns:xlink="http://www.w3.org/1999/xlink" x="0px" y="0px"
	 width="63px" height="77px" viewBox="0 0 63 77" enable-background="new 0 0 63 77" xml:space="preserve">
<path fill-rule="evenodd" clip-rule="evenodd" fill="#606060" d="M46,72h4c0.553,0,1,0.447,1,1s-0.447,1-1,1h-4
	c-0.553,0-1-0.447-1-1S45.447,72,46,72z"/>
<g>
	<path fill="#606060" d="M57,31v38H39V31H57 M59,29H37v42h22V29L59,29z"/>
</g>
<path fill-rule="evenodd" clip-rule="evenodd" fill="#606060" d="M45,26c0.553,0,1,0.448,1,1c0,0.553-0.447,1-1,1s-1-0.447-1-1
	C44,26.448,44.447,26,45,26z"/>
<path fill-rule="evenodd" clip-rule="evenodd" fill="#606060" d="M48,26c0.553,0,1,0.448,1,1c0,0.553-0.447,1-1,1s-1-0.447-1-1
	C47,26.448,47.447,26,48,26z"/>
<path fill-rule="evenodd" clip-rule="evenodd" fill="#606060" d="M51,26c0.553,0,1,0.448,1,1c0,0.553-0.447,1-1,1s-1-0.447-1-1
	C50,26.448,50.447,26,51,26z"/>
<g>
	<path fill="#606060" d="M56,25c2.206,0,4,1.794,4,4v42c0,2.206-1.794,4-4,4H40c-2.206,0-4-1.794-4-4V29c0-2.206,1.794-4,4-4H56
		 M56,23H40c-3.313,0-6,2.687-6,6v42c0,3.313,2.687,6,6,6h16c3.313,0,6-2.687,6-6V29C62,25.687,59.313,23,56,23L56,23z"/>
</g>
<path fill="#606060" d="M35,72H7c-2.757,0-5-2.243-5-5V7c0-2.757,2.243-5,5-5h42c2.757,0,5,2.243,5,5v17h2V7c0-3.866-3.134-7-7-7H7
	C3.134,0,0,3.134,0,7v60c0,3.866,3.134,7,7,7h28V72z"/>
<polygon fill="#606060" points="35,67 7,67 7,7 49,7 49,24 51,24 51,5 5,5 5,69 35,69 "/>
</svg>
