<?xml version="1.0" encoding="utf-8"?>
<!-- Generator: Adobe Illustrator 16.0.0, SVG Export Plug-In . SVG Version: 6.00 Build 0)  -->
<!DOCTYPE svg PUBLIC "-//W3C//DTD SVG 1.1//EN" "http://www.w3.org/Graphics/SVG/1.1/DTD/svg11.dtd">
<svg version="1.1" id="Шар_1" xmlns="http://www.w3.org/2000/svg" xmlns:xlink="http://www.w3.org/1999/xlink" x="0px" y="0px"
	 width="70px" height="76px" viewBox="0 0 70 76" enable-background="new 0 0 70 76" xml:space="preserve">
<path fill-rule="evenodd" clip-rule="evenodd" fill="#606060" d="M20,59h2v2h-2V59z"/>
<path fill-rule="evenodd" clip-rule="evenodd" fill="#606060" d="M20,62h2v2h-2V62z"/>
<path fill-rule="evenodd" clip-rule="evenodd" fill="#606060" d="M17,59h2v2h-2V59z"/>
<path fill-rule="evenodd" clip-rule="evenodd" fill="#606060" d="M17,62h2v2h-2V62z"/>
<g>
	<path fill="#606060" d="M37,14v9h-9v-9H37 M39,12H26v13h13V12L39,12z"/>
</g>
<g>
	<path fill="#606060" d="M23,21v9h-9v-9H23 M25,19H12v13h13V19L25,19z"/>
</g>
<g>
	<path fill="#606060" d="M30,28v2h-2v-2H30 M32,26h-6v6h6V26L32,26z"/>
</g>
<g>
	<path fill="#606060" d="M23,14v2h-2v-2H23 M25,12h-6v6h6V12L25,12z"/>
</g>
<g>
	<path fill="#606060" d="M16,35v2h-2v-2H16 M18,33h-6v6h6V33L18,33z"/>
</g>
<g>
	<path fill="#606060" d="M16,14v2h-2v-2H16 M18,12h-6v6h6V12L18,12z"/>
</g>
<g>
	<path fill="#606060" d="M62,51v20H25V51H62 M62,49H25c-1.104,0-2,0.896-2,2v20c0,1.104,0.896,2,2,2h37c1.104,0,2-0.896,2-2V51
		C64,49.896,63.104,49,62,49L62,49z"/>
</g>
<path fill-rule="evenodd" clip-rule="evenodd" fill="none" d="M66,58c0.553,0,1,0.447,1,1v6c0,0.553-0.447,1-1,1s-1-0.447-1-1v-6
	C65,58.447,65.447,58,66,58z"/>
<g>
	<path fill="#606060" d="M68,48v26H16V48H68 M70,46H14v30h56V46L70,46z"/>
</g>
<path display="none" fill-rule="evenodd" clip-rule="evenodd" fill="#606060" d="M26,65h2v2h-2V65z"/>
<path display="none" fill-rule="evenodd" clip-rule="evenodd" fill="#606060" d="M29,65h2v2h-2V65z"/>
<path display="none" fill-rule="evenodd" clip-rule="evenodd" fill="#606060" d="M26,68h2v2h-2V68z"/>
<path display="none" fill-rule="evenodd" clip-rule="evenodd" fill="#606060" d="M29,68h2v2h-2V68z"/>
<path fill="#606060" d="M15,62h-5V10h36v37h2V10c0-1.104-0.896-2-2-2H10c-1.104,0-2,0.896-2,2v52c0,1.104,0.896,2,2,2h5V62z"/>
<path fill="#606060" d="M15,72H6c-2.206,0-4-1.794-4-4V6c0-2.206,1.794-4,4-4h44c2.206,0,4,1.794,4,4v41h2V6c0-3.313-2.687-6-6-6H6
	C2.687,0,0,2.687,0,6v62c0,3.313,2.687,6,6,6h9V72z"/>
</svg>
