<?xml version="1.0" encoding="utf-8"?>
<!-- Generator: Adobe Illustrator 16.0.0, SVG Export Plug-In . SVG Version: 6.00 Build 0)  -->
<!DOCTYPE svg PUBLIC "-//W3C//DTD SVG 1.1//EN" "http://www.w3.org/Graphics/SVG/1.1/DTD/svg11.dtd">
<svg version="1.1" id="Шар_1" xmlns="http://www.w3.org/2000/svg" xmlns:xlink="http://www.w3.org/1999/xlink" x="0px" y="0px"
	 width="67px" height="63px" viewBox="0 0.007 67 63" enable-background="new 0 0.007 67 63" xml:space="preserve">
<g>
	<path fill="#606060" d="M45.786,19.134l2.827,2.828L47.2,23.378l-2.828-2.83L45.786,19.134z"/>
	<path fill="#606060" d="M49.32,15.599l2.828,2.828l-1.414,1.414l-2.827-2.827L49.32,15.599z"/>
	<path fill="#606060" d="M52.855,12.063l2.828,2.828l-1.414,1.414l-2.828-2.828L52.855,12.063z"/>
	<path fill="#606060" d="M56.393,8.527l2.828,2.828l-1.414,1.414l-2.828-2.828L56.393,8.527z"/>
	<path fill="#606060" d="M28.107,36.812l2.828,2.83l-1.414,1.412l-2.828-2.828L28.107,36.812z"/>
	<path fill="#606060" d="M31.645,33.274l2.828,2.83l-1.414,1.414l-2.828-2.83L31.645,33.274z"/>
	<path fill="#606060" d="M35.18,29.741l2.828,2.826l-1.415,1.414l-2.827-2.827L35.18,29.741z"/>
	<path fill="#606060" d="M38.714,26.206l2.829,2.828l-1.414,1.413L37.3,27.62L38.714,26.206z"/>
	<path fill="#606060" d="M40.836,21.255l4.243,4.244l-1.415,1.414l-4.242-4.244L40.836,21.255z"/>
	<path fill="#606060" d="M10.432,54.489l2.827,2.826l-1.413,1.416l-2.828-2.828L10.432,54.489z"/>
	<path fill="#606060" d="M13.966,50.954l2.828,2.828l-1.414,1.412l-2.828-2.826L13.966,50.954z"/>
	<path fill="#606060" d="M17.501,47.419l2.829,2.828l-1.415,1.414l-2.828-2.828L17.501,47.419z"/>
	<path fill="#606060" d="M21.037,43.882l2.828,2.83l-1.414,1.414l-2.829-2.828L21.037,43.882z"/>
	<path fill="#606060" d="M23.158,38.933l4.242,4.244l-1.414,1.414l-4.242-4.244L23.158,38.933z"/>
	<g>
		<path fill="#606060" d="M55.686,3.577L59.93,7.82L8.311,59.438l-4.244-4.244L55.686,3.577 M55.686,0.749L1.236,55.194l7.072,7.072
			L62.757,7.82L55.686,0.749L55.686,0.749z"/>
	</g>
	<path fill="#606060" d="M43.169,50.423l8.242-8.242l1.414,1.414l-8.242,8.242L43.169,50.423z"/>
	<path fill="#606060" d="M6.169,10.423l4.242-4.242l1.414,1.414l-4.242,4.242L6.169,10.423z"/>
	<path fill="none" stroke="#606060" stroke-width="2" stroke-miterlimit="10" d="M26.703,30.352
		C21.523,25.229,9.038,12.935,4.945,9.425c-0.58-0.496-0.916-1.213-0.943-2.016c-0.033-0.924,0.33-1.832,0.996-2.49
		C5.6,4.322,6.468,3.98,7.38,3.98 M37.3,32.747c1.935,1.893,3.435,3.352,3.916,3.807c0.787,0.742,1.761,1.24,2.822,1.447l0.01,0.006
		l0.117,0.018c0.003,0,0.006,0.002,0.009,0.002l0.084,0.014h0.012h0.006l0.084,0.021h0.039c0.816,0.154,1.646,0.672,2.602,1.621
		l3.796,3.777c0.005,0.01,0.011,0.021,0.015,0.031c0.172,0.336,0.58,0.697,1.072,0.697l0.646-0.004l0.063-0.141
		c2.327,0.633,5.117,2.506,6.267,5.982c0.504,1.523,1.074,2.748,1.742,3.738c1.879,2.799,3.681,3.814,4.756,4.422
		c0.199,0.111,0.432,0.242,0.58,0.342c-0.291,0.621-1.578,2.059-4.289,2.385c-0.545,0.064-1.133,0.098-1.744,0.098
		c-2.324,0-4.832-0.467-7.062-1.313c-1.146-0.436-2.222-0.975-3.194-1.602c-2.365-1.529-3.992-3.451-4.836-5.711l-0.018-0.047
		l-0.001-0.002l-0.022-0.064l-0.008-0.025l-0.01-0.025c-0.628-1.766-0.869-2.227-1.445-2.723v-0.002l-0.117-0.115l-3.004-2.98
		c-1-0.996-1.504-1.811-1.633-2.596c-0.006-0.053-0.014-0.104-0.025-0.18c-0.135-0.791-0.434-1.533-0.877-2.191l0.062-0.061
		l-0.676-0.705c-0.492-0.514-2.11-2.143-4.331-4.357 M7.38,3.98L7.38,3.98c0.896,0,1.702,0.327,2.21,0.896
		c3.77,4.229,16.439,16.778,21.711,21.978"/>
	<path fill="#606060" d="M31.5,61.009c-6.602,0-12.703-2.18-17.623-5.857l-1.438,1.432c5.291,4.029,11.896,6.426,19.061,6.426
		c6.335,0,12.229-1.877,17.168-5.096c-0.471-0.443-0.939-0.941-1.396-1.492C42.706,59.319,37.298,61.009,31.5,61.009z"/>
	<path fill="#606060" d="M8.302,49.7C4.359,44.683,2,38.368,2,31.509c0-6.932,2.408-13.307,6.424-18.346
		c-0.521-0.5-1.015-0.968-1.467-1.391C2.607,17.173,0,24.034,0,31.509c0,7.422,2.574,14.24,6.869,19.623L8.302,49.7z"/>
	<path fill="#606060" d="M31.5,2.007c6.859,0,13.175,2.361,18.191,6.303l1.434-1.434C45.74,2.581,38.923,0.007,31.5,0.007
		c-7.46,0-14.311,2.6-19.706,6.935c0.444,0.452,0.925,0.935,1.429,1.438C18.251,4.396,24.6,2.007,31.5,2.007z"/>
	<path fill="#606060" d="M56.663,12.561l-1.44,1.435C58.85,18.897,61,24.956,61,31.509c0,5.467-1.501,10.59-4.104,14.984
		c0.482,0.479,0.922,1.051,1.307,1.719C61.238,43.368,63,37.646,63,31.509C63,24.396,60.641,17.833,56.663,12.561z"/>
</g>
</svg>
