<svg id="Шар_1" data-name="Шар 1" xmlns="http://www.w3.org/2000/svg" viewBox="0 0 94.86 89"><defs><style>.cls-1{fill:#606060;}.cls-2{fill:none;stroke:#606060;stroke-miterlimit:10;stroke-width:2px;}</style></defs><title>008_UI_UX_standalone_icon</title><path class="cls-1" d="M83,8.83L91.17,17,16,92.17,7.83,84,83,8.83M83,6L5,84,16,95,94,17,83,6h0Z" transform="translate(-3.05 -6)"/><rect class="cls-1" x="18" y="83.17" width="2" height="5.66" transform="translate(-58.3 32.62) rotate(-45)"/><rect class="cls-1" x="33" y="68.17" width="2" height="5.66" transform="translate(-43.3 38.84) rotate(-45)"/><rect class="cls-1" x="28" y="73.17" width="2" height="5.66" transform="translate(-48.3 36.77) rotate(-45)"/><rect class="cls-1" x="23" y="78.17" width="2" height="5.66" transform="translate(-53.3 34.69) rotate(-45)"/><rect class="cls-1" x="37" y="60.76" width="2" height="8.49" transform="translate(-37.88 39.91) rotate(-45)"/><rect class="cls-1" x="43.29" y="57.88" width="2" height="5.66" transform="translate(-33 43.1) rotate(-45)"/><rect class="cls-1" x="58.29" y="42.88" width="2" height="5.66" transform="translate(-18 49.31) rotate(-45)"/><rect class="cls-1" x="53.29" y="47.88" width="2" height="5.66" transform="translate(-23 47.24) rotate(-45)"/><rect class="cls-1" x="48.29" y="52.88" width="2" height="5.66" transform="translate(-28 45.17) rotate(-45)"/><rect class="cls-1" x="68.71" y="32.46" width="2" height="5.66" transform="translate(-7.59 53.63) rotate(-45)"/><rect class="cls-1" x="83.71" y="17.46" width="2" height="5.66" transform="translate(7.41 59.84) rotate(-45)"/><rect class="cls-1" x="78.71" y="22.46" width="2" height="5.66" transform="translate(2.41 57.77) rotate(-45)"/><rect class="cls-1" x="73.71" y="27.46" width="2" height="5.66" transform="translate(-2.59 55.7) rotate(-45)"/><rect class="cls-1" x="62.29" y="35.46" width="2" height="8.49" transform="translate(-12.59 50.38) rotate(-45)"/><path class="cls-2" d="M39,51L6,18c-2-2-3-5.09-.5-7.5S11,9,13,11L46,44M56,54c2.19,2.19,3.29,3.33,4,4a4.28,4.28,0,0,0,2.9,1.61h0l0.17,0h0l0.12,0h0l0.12,0h0.06a7.74,7.74,0,0,1,3.85,2.4L71,66a4.65,4.65,0,0,0,1,1c0.56,0.5,2.27,2,3,2,0,0,7.17.33,9.82,8.39a22.29,22.29,0,0,0,2.58,5.53C90.18,87.06,96,90,96,90a25.52,25.52,0,0,1-14,4c-9.44,0-18-5.67-18-13a5.51,5.51,0,0,0-2-4l-1-1-1-1-3-3a6.78,6.78,0,0,1-2.21-3.81c0-.08,0-0.15,0-0.27A3,3,0,0,0,54,66l-1-1-1-1c-0.73-.76.28,0.28-3-3" transform="translate(-3.05 -6)"/><line class="cls-2" x1="69.95" y1="62" x2="59.95" y2="72"/><line class="cls-2" x1="10.95" y1="7" x2="4.95" y2="13"/></svg>