<?xml version="1.0" encoding="utf-8"?>
<!-- Generator: Adobe Illustrator 19.2.1, SVG Export Plug-In . SVG Version: 6.00 Build 0)  -->
<svg version="1.1" id="Шар_1" xmlns="http://www.w3.org/2000/svg" xmlns:xlink="http://www.w3.org/1999/xlink" x="0px" y="0px"
	 viewBox="0 0 100 100" style="enable-background:new 0 0 100 100;" xml:space="preserve">
<path d="M62.1,19h8.8c0.6,0,1.1,0.4,1.1,1v1H61v-1C61,19.4,61.5,19,62.1,19z"/>
<path d="M29.1,19h8.8c0.6,0,1.1,0.4,1.1,1v1H28v-1C28,19.4,28.5,19,29.1,19z"/>
<g>
	<path d="M60,15c1.7,0,3,1.3,3,3v3H37v-3c0-1.7,1.3-3,3-3H60 M60,13H40c-2.8,0-5,2.2-5,5v5h30v-5C65,15.2,62.8,13,60,13L60,13z"/>
</g>
<g>
	<path d="M52,54v2.7c0,0.1-0.2,0.3-0.7,0.3h-2.7c-0.4,0-0.7-0.2-0.7-0.3V54H52 M54,52h-8v4.7c0,1.3,1.2,2.3,2.7,2.3h2.7
		c1.5,0,2.7-1,2.7-2.3V52L54,52z"/>
</g>
<g>
	<path d="M53.6,44c0.2,0,0.4,0.2,0.4,0.4v7.2c0,0.2-0.2,0.4-0.4,0.4h-7.2c-0.2,0-0.4-0.2-0.4-0.4v-7.2c0-0.2,0.2-0.4,0.4-0.4H53.6
		 M53.6,42h-7.2c-1.3,0-2.4,1.1-2.4,2.4v7.2c0,1.3,1.1,2.4,2.4,2.4h7.2c1.3,0,2.4-1.1,2.4-2.4v-7.2C56,43.1,54.9,42,53.6,42L53.6,42
		z"/>
</g>
<g>
	<path d="M89.9,23c1.7,0,3.1,1.4,3.1,3.1v60.9c0,1.7-1.4,3.1-3.1,3.1H10.1C8.4,90,7,88.6,7,86.9V26.1c0-1.7,1.4-3.1,3.1-3.1H89.9
		 M89.9,21H10.1C7.3,21,5,23.3,5,26.1v60.9c0,2.8,2.3,5.1,5.1,5.1h79.9c2.8,0,5.1-2.3,5.1-5.1V26.1C95,23.3,92.7,21,89.9,21L89.9,21
		z"/>
</g>
<g>
	<path d="M45,47H10.1C8.4,47,7,45.6,7,43.9V41H5v2.9c0,2.8,2.3,5.1,5.1,5.1H45V47z"/>
	<path d="M93,41v2.9c0,1.7-1.4,3.1-3.1,3.1H55v2h34.9c2.8,0,5.1-2.3,5.1-5.1V41H93z"/>
</g>
<path d="M60,8H40c-5.5,0-10,4.5-10,10v5h2v-2v-1v-2c0-4.4,3.6-8,8-8h20c4.4,0,8,3.6,8,8v2v1v2h2v-5C70,12.5,65.5,8,60,8z"/>
<path d="M93,80.1v0.8c0,1.7-1.4,3.1-3.1,3.1H10.1C8.4,84,7,82.6,7,80.9v-0.8H5v0.8c0,2.8,2.3,5.1,5.1,5.1h79.9
	c2.8,0,5.1-2.3,5.1-5.1v-0.8H93z"/>
</svg>
