<?xml version="1.0" encoding="utf-8"?>
<!-- Generator: Adobe Illustrator 16.0.0, SVG Export Plug-In . SVG Version: 6.00 Build 0)  -->
<!DOCTYPE svg PUBLIC "-//W3C//DTD SVG 1.1//EN" "http://www.w3.org/Graphics/SVG/1.1/DTD/svg11.dtd">
<svg version="1.1" id="Шар_1" xmlns="http://www.w3.org/2000/svg" xmlns:xlink="http://www.w3.org/1999/xlink" x="0px" y="0px"
	 width="96px" height="99px" viewBox="0 0 96 99" enable-background="new 0 0 96 99" xml:space="preserve">
<g>
	<path fill="#616160" d="M73.776,75.776c-5.605,4.832-12.628,8.058-20.354,8.958l-0.695,2.087c8.563-0.792,16.34-4.284,22.479-9.615
		L73.776,75.776z"/>
	<path fill="#616160" d="M22.583,19.722c5.269-5.104,12.003-8.696,19.506-10.081l0.532-2.129
		c-8.421,1.35-15.962,5.325-21.759,11.063L22.583,19.722z"/>
	<path fill="#616160" d="M42.476,84.428c-7.025-1.221-13.393-4.375-18.536-8.897l-1.946,0.973
		c5.768,5.282,13.088,8.893,21.198,10.072L42.476,84.428z"/>
	<path fill="#616160" d="M18.319,69.384C13.722,63.101,11,55.364,11,47c0-2.421,0.237-4.786,0.672-7.082l-1.947-0.487
		C9.255,41.883,9,44.411,9,47c0,9.371,3.231,17.982,8.628,24.801L18.319,69.384z"/>
	<path fill="#616160" d="M86.343,54c-1.185,6.333-3.939,12.117-7.852,16.93l0.339,2.71c4.846-5.422,8.229-12.173,9.547-19.64H86.343
		z"/>
	<path fill="#616160" d="M53.829,9.317C69.855,11.361,82.792,23.416,86.146,39h2.053C84.771,22.116,70.709,9.099,53.309,7.234
		L53.829,9.317z"/>
</g>
<path fill="none" stroke="#616160" stroke-width="2" stroke-miterlimit="10" d="M60,74.077c1.214-0.578,2.671-0.871,4.341-0.871
	c4.308,0,9.013,1.971,10.359,3.326c0.724,0.728,1.907,1.465,2.769,1.465C78.801,77.996,79,75.627,79,74.214
	c0-14.951-10.379-24.168-13.617-26.68"/>
<path fill="none" stroke="#616160" stroke-width="2" stroke-miterlimit="10" d="M31,48.007c-0.3,0.245-0.636,0.527-1,0.848
	C25.828,52.526,18,61.135,18,74c0,1.399,0.198,3.746,1.527,3.746c0.861,0,2.043-0.73,2.766-1.453c1.346-1.346,6.044-3.3,10.343-3.3
	c0.844,0,1.633,0.074,2.364,0.222"/>
<path fill="#616160" d="M53,76v0.365c0.001,0.805,0.003,2.53,0,3.6c-0.014,5.27-2.966,11.495-4.927,15.052
	c-1.976-3.708-5.019-10.212-5.069-15.184c-0.013-1.175-0.007-2.925-0.005-3.604L43,76h-2c-0.001,0.344-0.011,2.48,0.004,3.854
	C41.086,87.85,48.033,99,48.033,99S54.979,88.535,55,79.97c0.004-1.303,0-3.567,0-3.97H53z"/>
<path fill="#616160" d="M65.934,39C65.934,19.62,48,0,48,0S30.066,19.62,30.066,39c0,30.41-2.208,37.746,16.93,37.988l-0.67-2.01
	c-5.9-0.137-9.289-1.033-11.167-2.926c-3.307-3.335-3.247-10.839-3.137-24.463c0.021-2.573,0.044-5.491,0.044-8.59
	c0-15.147,11.73-30.797,15.935-35.918C52.206,8.198,63.934,23.83,63.934,39c0,3.099,0.023,6.017,0.044,8.59
	c0.11,13.624,0.171,21.128-3.137,24.463c-1.878,1.893-5.267,2.789-11.167,2.926l-0.67,2.01C68.143,76.746,65.934,69.41,65.934,39z"
	/>
<g>
	<path fill="#616160" d="M48,24.8c2.315,0,4.2,1.884,4.2,4.2s-1.885,4.2-4.2,4.2s-4.2-1.884-4.2-4.2S45.685,24.8,48,24.8 M48,23
		c-3.313,0-6,2.687-6,6s2.687,6,6,6c3.314,0,6-2.687,6-6S51.314,23,48,23L48,23z"/>
</g>
<g>
	<path fill="#616160" d="M48,21.8c3.97,0,7.2,3.23,7.2,7.2s-3.23,7.2-7.2,7.2s-7.2-3.23-7.2-7.2S44.03,21.8,48,21.8 M48,20
		c-4.971,0-9,4.029-9,9s4.029,9,9,9s9-4.029,9-9S52.971,20,48,20L48,20z"/>
</g>
<g>
	<path fill="#616160" d="M72,29c0.552,0,1,0.449,1,1s-0.448,1-1,1s-1-0.449-1-1S71.448,29,72,29 M72,27c-1.656,0-3,1.343-3,3
		c0,1.657,1.344,3,3,3s3-1.343,3-3C75,28.343,73.656,27,72,27L72,27z"/>
</g>
<g>
	<path fill-rule="evenodd" clip-rule="evenodd" fill="#616160" d="M18,45c1.104,0,2,0.896,2,2s-0.896,2-2,2s-2-0.896-2-2
		S16.896,45,18,45z"/>
</g>
<g>
	<path fill="#616160" d="M87.5,40c3.584,0,6.5,2.916,6.5,6.5S91.084,53,87.5,53S81,50.084,81,46.5S83.916,40,87.5,40 M87.5,38
		c-4.694,0-8.5,3.806-8.5,8.5s3.806,8.5,8.5,8.5s8.5-3.806,8.5-8.5S92.194,38,87.5,38L87.5,38z"/>
</g>
<g>
	<path fill="#616160" d="M13,17c6.065,0,11,4.935,11,11s-4.935,11-11,11S2,34.065,2,28S6.935,17,13,17 M13,15C5.82,15,0,20.82,0,28
		s5.82,13,13,13s13-5.82,13-13S20.18,15,13,15L13,15z"/>
</g>
<g>
	<path fill-rule="evenodd" clip-rule="evenodd" fill="#616160" d="M19.766,31.145c0.439,0.407,0.229,1.568-0.469,2.594
		c-0.699,1.024-1.623,1.525-2.063,1.118s-0.229-1.568,0.469-2.594C18.402,31.238,19.326,30.737,19.766,31.145z"/>
</g>
<g>
	<path fill="#616160" d="M48.043,49.977C49.287,51.676,51,55.044,51,60.709c0,7.004-1.651,13.161-3.013,17.047
		C46.631,73.93,45,67.894,45,61C45,55.291,46.775,51.767,48.043,49.977 M48,47c0,0-5,4.131-5,14c0,12.409,5,22,5,22
		s5-9.766,5-22.291C53,50.747,48,47,48,47L48,47z"/>
</g>
</svg>
