<?xml version="1.0" encoding="utf-8"?>
<!-- Generator: Adobe Illustrator 16.0.0, SVG Export Plug-In . SVG Version: 6.00 Build 0)  -->
<!DOCTYPE svg PUBLIC "-//W3C//DTD SVG 1.1//EN" "http://www.w3.org/Graphics/SVG/1.1/DTD/svg11.dtd">
<svg version="1.1" id="Шар_1" xmlns="http://www.w3.org/2000/svg" xmlns:xlink="http://www.w3.org/1999/xlink" x="0px" y="0px"
	 width="94px" height="93px" viewBox="0 0 94 93" enable-background="new 0 0 94 93" xml:space="preserve">
<path fill-rule="evenodd" clip-rule="evenodd" fill="#616160" d="M46.5,60c1.934,0,3.5,1.567,3.5,3.5c0,1.934-1.566,3.5-3.5,3.5
	S43,65.434,43,63.5C43,61.567,44.566,60,46.5,60z"/>
<g>
	<path fill="#616160" d="M35,18c1.103,0,2,0.897,2,2s-0.897,2-2,2c-1.103,0-2-0.897-2-2S33.897,18,35,18 M35,16
		c-2.209,0-4,1.791-4,4s1.791,4,4,4s4-1.791,4-4S37.209,16,35,16L35,16z"/>
</g>
<path fill-rule="evenodd" clip-rule="evenodd" fill="#616160" d="M64.828,17.999c0.828,0,1.5,0.672,1.5,1.5
	c0,0.829-0.672,1.5-1.5,1.5s-1.5-0.671-1.5-1.5C63.328,18.671,64,17.999,64.828,17.999z"/>
<path fill-rule="evenodd" clip-rule="evenodd" fill="#616160" d="M62.309,31.298l-1.432-3.735c-0.395-1.032,0.121-2.188,1.152-2.584
	c1.031-0.395,2.188,0.121,2.583,1.153c0,0-0.241,1.233,0.128,2.197c0.346,0.902,1.304,1.537,1.304,1.537
	c0.395,1.031-0.121,2.189-1.152,2.583C63.86,32.845,62.704,32.329,62.309,31.298z"/>
<path fill-rule="evenodd" clip-rule="evenodd" fill="#616160" d="M63.461,28.715c-0.198-0.516,0.06-1.094,0.575-1.292l3.735-1.431
	c0.516-0.198,1.095,0.061,1.292,0.576c0.197,0.516-0.061,1.094-0.576,1.292l-3.735,1.432C64.236,29.488,63.658,29.23,63.461,28.715z
	"/>
<path fill-rule="evenodd" clip-rule="evenodd" fill="#616160" d="M69.23,21.634l5.195-3.001c0.479-0.275,1.09-0.112,1.366,0.366
	c0.276,0.479,0.112,1.09-0.366,1.366l-5.195,3c-0.479,0.276-1.091,0.112-1.366-0.366C68.588,22.521,68.752,21.909,69.23,21.634z"/>
<path fill-rule="evenodd" clip-rule="evenodd" fill="#616160" d="M81.135,28.495l-2.732,1.736c-0.755,0.479-1.755,0.256-2.234-0.498
	c-0.48-0.754-0.257-1.755,0.498-2.234c0,0,1.018-0.008,1.722-0.455c0.66-0.42,1.01-1.282,1.01-1.282
	c0.755-0.48,1.755-0.257,2.235,0.498C82.111,27.015,81.889,28.015,81.135,28.495z"/>
<path fill-rule="evenodd" clip-rule="evenodd" fill="#616160" d="M78.9,27.996c-0.378,0.24-0.878,0.129-1.117-0.248l-1.737-2.732
	c-0.239-0.377-0.128-0.878,0.249-1.117c0.377-0.24,0.878-0.129,1.117,0.249l1.736,2.732C79.389,27.256,79.277,27.757,78.9,27.996z"
	/>
<path fill-rule="evenodd" clip-rule="evenodd" fill="#616160" d="M62.229,3.872l-0.52,1.936c9.798,3.371,17.964,10.07,23.194,19.131
	c1.259,2.181,2.303,4.443,3.153,6.759l1.923-0.549C85.465,18.687,75.53,8.409,62.229,3.872z"/>
<g>
	<path fill="#616160" d="M63.715,2.465C76.798,6.612,86.942,16.552,91.37,29.562L53.515,40.53L63.715,2.465 M62.313-0.028
		L50.665,43.438l43.228-12.525C89.644,16.3,78.085,4.198,62.313-0.028L62.313-0.028z"/>
</g>
<path fill-rule="evenodd" clip-rule="evenodd" fill="#616160" d="M57.828,72.999c0.828,0,1.5,0.672,1.5,1.5s-0.672,1.5-1.5,1.5
	s-1.5-0.672-1.5-1.5S57,72.999,57.828,72.999z"/>
<path fill-rule="evenodd" clip-rule="evenodd" fill="#616160" d="M14.828,50.999c0.828,0,1.5,0.672,1.5,1.5s-0.672,1.5-1.5,1.5
	c-0.829,0-1.5-0.672-1.5-1.5S14,50.999,14.828,50.999z"/>
<g>
	<path fill="#616160" d="M28,36c2.757,0,5,2.243,5,5s-2.243,5-5,5s-5-2.243-5-5S25.243,36,28,36 M28,34c-3.866,0-7,3.134-7,7
		s3.134,7,7,7s7-3.134,7-7S31.866,34,28,34L28,34z"/>
</g>
<g>
	<path fill="#616160" d="M35.594,53.451c0.408,0,0.764,0.288,0.827,0.703l0.522,3.378c0.072,0.467-0.252,0.915-0.724,1
		c-0.054,0.01-0.106,0.015-0.158,0.015c-0.408,0-0.763-0.289-0.826-0.702l-0.522-3.379c-0.072-0.466,0.252-0.914,0.724-1.001
		C35.489,53.455,35.542,53.451,35.594,53.451 M35.594,51.451c-0.171,0-0.344,0.015-0.512,0.045
		c-1.533,0.283-2.582,1.752-2.346,3.276l0.522,3.378c0.212,1.387,1.392,2.396,2.803,2.396c0.173,0,0.347-0.016,0.517-0.047
		c1.526-0.275,2.578-1.744,2.342-3.273l-0.522-3.378C38.186,52.461,37.006,51.451,35.594,51.451L35.594,51.451z"/>
</g>
<path fill-rule="evenodd" clip-rule="evenodd" fill="#616160" d="M0.59,17.456l2.656-2.736c0.503-0.227,1.095-0.002,1.322,0.501
	c0.227,0.503,0.002,1.096-0.501,1.323l-2.655,2.736c-0.504,0.227-1.096,0.002-1.323-0.5C-0.138,18.274,0.086,17.682,0.59,17.456z"/>
<path fill-rule="evenodd" clip-rule="evenodd" fill="#616160" d="M39.59,30.456l2.656-2.736c0.503-0.227,1.095-0.002,1.322,0.501
	c0.227,0.503,0.002,1.096-0.502,1.322l-2.655,2.735c-0.504,0.228-1.096,0.002-1.323-0.501C38.861,31.274,39.086,30.683,39.59,30.456
	z"/>
<path fill-rule="evenodd" clip-rule="evenodd" fill="#616160" d="M18.696,29.246l3.79-0.424c0.533,0.145,0.847,0.695,0.702,1.228
	c-0.145,0.533-0.694,0.847-1.228,0.702l-3.789,0.424c-0.533-0.145-0.848-0.694-0.702-1.228
	C17.613,29.416,18.163,29.102,18.696,29.246z"/>
<path fill-rule="evenodd" clip-rule="evenodd" fill="#616160" d="M62.23,48.633l5.195-2.999c0.479-0.277,1.09-0.113,1.366,0.365
	s0.112,1.091-0.366,1.365l-5.195,3.001c-0.479,0.276-1.091,0.112-1.366-0.366C61.588,49.521,61.752,48.909,62.23,48.633z"/>
<path fill-rule="evenodd" clip-rule="evenodd" fill="#616160" d="M70.476,55.807l3.2-0.491c0.884-0.135,1.71,0.473,1.846,1.355
	c0.135,0.884-0.472,1.71-1.355,1.846c0,0-0.935-0.403-1.76-0.277c-0.773,0.119-1.44,0.768-1.44,0.768
	c-0.884,0.135-1.71-0.472-1.845-1.356C68.985,56.768,69.592,55.941,70.476,55.807z"/>
<path fill-rule="evenodd" clip-rule="evenodd" fill="#616160" d="M72.32,57.161c0.442-0.067,0.855,0.236,0.923,0.678l0.49,3.2
	c0.067,0.441-0.235,0.854-0.678,0.922c-0.441,0.068-0.854-0.235-0.922-0.677l-0.49-3.201C71.575,57.642,71.879,57.229,72.32,57.161z
	"/>
<path fill-rule="evenodd" clip-rule="evenodd" fill="#616160" d="M19.309,66.298l-1.431-3.735c-0.395-1.031,0.121-2.188,1.152-2.583
	c1.031-0.395,2.188,0.12,2.583,1.152c0,0-0.241,1.234,0.128,2.197c0.346,0.902,1.303,1.537,1.303,1.537
	c0.395,1.032-0.121,2.188-1.152,2.584C20.86,67.845,19.704,67.329,19.309,66.298z"/>
<path fill-rule="evenodd" clip-rule="evenodd" fill="#616160" d="M20.46,63.715c-0.198-0.516,0.061-1.095,0.576-1.292l3.735-1.431
	c0.516-0.198,1.094,0.06,1.292,0.575c0.197,0.516-0.061,1.095-0.576,1.292l-3.735,1.432C21.236,64.488,20.658,64.23,20.46,63.715z"
	/>
<g>
	<path fill="#616160" d="M36.45,73.146c0.095,0,0.19,0.014,0.286,0.042l5.752,1.705c0.529,0.156,0.832,0.714,0.675,1.243
		c-0.129,0.435-0.527,0.716-0.958,0.716c-0.095,0-0.19-0.014-0.285-0.042l-5.752-1.705c-0.529-0.157-0.832-0.714-0.675-1.243
		C35.622,73.428,36.02,73.146,36.45,73.146 M36.451,71.146L36.451,71.146c-1.317,0-2.5,0.883-2.875,2.146
		c-0.471,1.585,0.437,3.259,2.022,3.729l5.753,1.706c0.277,0.082,0.564,0.124,0.854,0.124c1.317,0,2.5-0.883,2.875-2.146
		c0.229-0.769,0.144-1.58-0.239-2.285s-1.018-1.219-1.786-1.445l-5.75-1.705C37.03,71.188,36.741,71.146,36.451,71.146
		L36.451,71.146z"/>
</g>
<g>
	<path fill="#616160" d="M87.5,79c1.379,0,2.5,1.121,2.5,2.5S88.879,84,87.5,84S85,82.879,85,81.5S86.121,79,87.5,79 M87.5,77
		c-2.485,0-4.5,2.015-4.5,4.5s2.015,4.5,4.5,4.5s4.5-2.015,4.5-4.5S89.985,77,87.5,77L87.5,77z"/>
</g>
<g>
	<path fill="#616160" d="M62.5,62c1.379,0,2.5,1.121,2.5,2.5S63.879,67,62.5,67S60,65.879,60,64.5S61.121,62,62.5,62 M62.5,60
		c-2.485,0-4.5,2.015-4.5,4.5s2.015,4.5,4.5,4.5s4.5-2.015,4.5-4.5S64.985,60,62.5,60L62.5,60z"/>
</g>
<path fill="#616160" d="M82.688,37.976C83.54,41.176,84,44.534,84,47.999c0,21.505-17.495,39-39,39s-39-17.495-39-39
	s17.495-39,39-39c3.264,0,6.433,0.409,9.464,1.167l0.521-1.937c-3.197-0.8-6.54-1.23-9.984-1.23c-22.644,0-41,18.356-41,41
	s18.356,41,41,41s41-18.356,41-41c0-3.659-0.486-7.204-1.386-10.581L82.688,37.976z"/>
<g>
	<path fill="#616160" d="M44.972,4.8c3.253,0,6.511,0.373,9.706,1.109L43.465,47.707l-0.827,3.083l3.065-0.887l41.302-11.955
		c1.672,6.966,1.577,14.268-0.288,21.23C81.665,78.032,64.522,91.2,45.028,91.2c-3.764,0-7.534-0.499-11.206-1.482
		C10.819,83.553-2.881,59.824,3.283,36.822C8.335,17.967,25.478,4.799,44.972,4.8 M44.972,3C25.107,2.999,6.93,16.255,1.544,36.356
		c-6.431,23.999,7.813,48.668,31.813,55.1C37.256,92.501,41.175,93,45.028,93c19.864,0,38.042-13.255,43.427-33.355
		c2.184-8.149,1.979-16.375-0.178-23.938L45.203,48.174L56.888,4.616c-0.082-0.022-0.161-0.05-0.243-0.072
		C52.745,3.5,48.825,3,44.972,3L44.972,3z"/>
</g>
</svg>
