<?xml version="1.0" encoding="utf-8"?>
<!-- Generator: Adobe Illustrator 16.0.0, SVG Export Plug-In . SVG Version: 6.00 Build 0)  -->
<!DOCTYPE svg PUBLIC "-//W3C//DTD SVG 1.1//EN" "http://www.w3.org/Graphics/SVG/1.1/DTD/svg11.dtd">
<svg version="1.1" id="Шар_1" xmlns="http://www.w3.org/2000/svg" xmlns:xlink="http://www.w3.org/1999/xlink" x="0px" y="0px"
	 width="90px" height="104px" viewBox="0 0 90 104" enable-background="new 0 0 90 104" xml:space="preserve">
<path fill-rule="evenodd" clip-rule="evenodd" fill="#616160" d="M20.912,86.001c0-1.104,0.885-2,1.976-2
	c1.092,0,1.977,0.896,1.977,2s-0.885,2-1.977,2C21.797,88.001,20.912,87.105,20.912,86.001z M16.96,91.001v-12h1.688
	c-0.928-1.803-2.7-5.678-2.7-9c0-6.258,0.002-12.392,0.005-17.644c-0.268-0.787-1.002-1.356-1.876-1.356
	c-1.101,0-1.992,0.896-1.992,2v18h-1.991v-22c0-1.104-0.892-2-1.991-2c-1.101,0-1.992,0.896-1.992,2v22H4.118v-19
	c0-1.104-0.892-2-1.991-2c-0.071,0-0.139,0.014-0.208,0.021c0.139-0.668,0.29-1.331,0.459-1.987
	c0.638,0.041,1.243,0.208,1.766,0.517c0.223-1.994,1.912-3.551,3.958-3.551c2.196,0,3.982,1.795,3.982,4v0.537
	c0.587-0.342,1.267-0.537,1.992-0.537c0.683,0,1.315,0.189,1.878,0.495c0.005-7.436,0.011-12.495,0.011-12.495
	c0-2.206,1.786-4,3.982-4c0.726,0,1.405,0.195,1.992,0.537v-0.537c0-2.206,1.786-4,3.982-4c0.726,0,1.405,0.195,1.992,0.537v-0.537
	c0-2.206,1.786-4,3.982-4c0.385,0,0.75,0.071,1.103,0.174v2.162c-0.315-0.212-0.694-0.336-1.103-0.336c-1.1,0-1.991,0.896-1.991,2
	v22h-1.991v-18c0-1.104-0.892-2-1.992-2c-1.1,0-1.991,0.896-1.991,2v18h-1.991v-14c0-1.104-0.892-2-1.992-2
	c-1.1,0-1.991,0.896-1.991,2c0,0-0.018,16.057-0.018,33c0,3.91,2.975,9,2.975,9s4.397,0,10.086,0v2H20.913h-1.14h-0.821v10h12.047v2
	H17.071c-0.776-0.639-1.523-1.311-2.254-2H16.96z M65.134,93.001c0-1.104,0.885-2,1.976-2c1.092,0,1.977,0.896,1.977,2
	s-0.885,2-1.977,2C66.019,95.001,65.134,94.105,65.134,93.001z M58.999,98.001h6.366c-1.423,0.744-2.892,1.412-4.401,2h-1.965
	V98.001z M87.888,51.001c0-1.104-0.892-2-1.991-2s-1.991,0.896-1.991,2v22h-1.991v-18c0-1.104-0.892-2-1.992-2
	c-1.1,0-1.991,0.896-1.991,2v18h-1.991v-14c0-1.071-0.841-1.938-1.896-1.99c0.004,5.723,0.007,12.773,0.007,19.99
	c0,3.322-1.772,7.197-2.7,9h1.688v6.908c-0.648,0.536-1.314,1.05-1.992,1.549v-6.457h-0.821h-1.14H58.999v-2
	c5.688,0,10.086,0,10.086,0s2.975-5.09,2.975-9c0-16.943-0.018-33-0.018-33c0-1.104-0.892-2-1.991-2c-1.101,0-1.992,0.896-1.992,2
	v14h-1.991v-18c0-1.104-0.892-2-1.991-2c-1.101,0-1.992,0.896-1.992,2v18h-1.991V44.673l1.906-6.672l0.553-1.66
	c0.475-0.2,0.979-0.34,1.524-0.34c2.196,0,3.982,1.794,3.982,4v0.537c0.587-0.341,1.267-0.537,1.992-0.537
	c2.196,0,3.982,1.794,3.982,4c0,0,0.005,4.397,0.01,11.013c0.688,0.017,1.337,0.198,1.896,0.524v-0.537c0-2.205,1.786-4,3.982-4
	c0.726,0,1.405,0.195,1.992,0.537v-0.537c0-2.205,1.786-4,3.982-4c0.539,0,1.051,0.113,1.52,0.31
	c1.024,3.724,1.583,7.641,1.583,11.69c0,3.373-0.393,6.651-1.111,9.807V51.001z"/>
<g display="none">
	<path display="inline" fill="#616160" d="M47.999,2.001c1.104,0,2,0.896,2,2v22h2v-19c0-1.104,0.896-2,2-2s2,0.896,2,2
		c0,0,0,20.548,0,24c0,2.182,0.489,3.665,1.297,3.665c0.471,0,1.05-0.503,1.703-1.665c1.775-3.156,3.471-6.146,4-7
		C63.397,25.357,64.198,25,64.956,25c1.381,0,2.622,1.187,1.043,4.001c-6.677,11.897-5.402,12.586-8,17
		c-2.413,4.099-3.822,5.939-4,8c-8.632,0-17.03,0-17.03,0s-2.987-5.09-2.987-9c0-16.944,0.018-33,0.018-33c0-1.104,0.896-2,2-2
		s2,0.896,2,2v14h2v-18c0-1.104,0.896-2,2-2s2,0.896,2,2v18h2v-22C45.999,2.896,46.895,2.001,47.999,2.001 M47.999,0.001
		c-2.206,0-4,1.794-4,4v0.537c-0.589-0.341-1.272-0.537-2-0.537c-2.206,0-4,1.794-4,4v0.537c-0.589-0.341-1.272-0.537-2-0.537
		c-2.206,0-4,1.794-4,4c0,0-0.018,16.056-0.018,33c0,4.403,3.129,9.785,3.263,10.013l0.579,0.987h1.146h17.03h1.835l0.157-1.828
		c0.101-1.155,0.888-2.45,2.316-4.802c0.424-0.697,0.896-1.475,1.415-2.355c1.116-1.897,1.594-3.208,2.146-4.726
		c0.806-2.212,1.908-5.241,5.875-12.31c1.431-2.549,1.057-4.236,0.491-5.202C67.582,23.664,66.356,23,64.957,23
		c-1.512,0-2.913,0.747-3.658,1.948c-0.413,0.667-1.496,2.554-3.3,5.753v-23.7c0-2.206-1.794-4-4-4
		c-0.738,0-1.431,0.201-2.025,0.551C51.75,1.557,50.053,0.001,47.999,0.001L47.999,0.001z"/>
</g>
<g>
	<path fill="#616160" d="M47.999,2.001c1.104,0,2,0.896,2,2v22h2v-19c0-1.104,0.896-2,2-2s2,0.896,2,2c0,0,0,20.548,0,24
		c0,2.182,0.489,3.665,1.297,3.665c0.471,0,1.05-0.503,1.703-1.665c1.775-3.156,3.471-6.146,4-7C63.397,25.357,64.198,25,64.956,25
		c1.381,0,2.622,1.187,1.043,4.001c-6.677,11.897-5.402,12.586-8,17c-2.413,4.099-3.822,5.939-4,8c-2.999,0-5.892,0-8.415,0
		c-5.046,0-8.615,0-8.615,0s-2.987-5.09-2.987-9c0-16.944,0.018-33,0.018-33c0-1.104,0.896-2,2-2s2,0.896,2,2v14h2v-18
		c0-1.104,0.896-2,2-2s2,0.896,2,2v18h2v-22C45.999,2.896,46.895,2.001,47.999,2.001 M47.999,0.001c-2.206,0-4,1.794-4,4v0.537
		c-0.589-0.341-1.272-0.537-2-0.537c-2.206,0-4,1.794-4,4v0.537c-0.589-0.341-1.272-0.537-2-0.537c-2.206,0-4,1.794-4,4
		c0,0-0.018,16.056-0.018,33c0,4.403,3.129,9.785,3.263,10.013l0.579,0.987h1.146h8.615h8.415h1.835l0.157-1.828
		c0.101-1.155,0.888-2.45,2.316-4.802c0.424-0.697,0.896-1.475,1.415-2.355c1.116-1.897,1.594-3.208,2.146-4.726
		c0.806-2.212,1.908-5.241,5.875-12.31c1.431-2.549,1.057-4.236,0.491-5.202C67.582,23.664,66.356,23,64.957,23
		c-1.512,0-2.913,0.747-3.658,1.948c-0.413,0.667-1.496,2.554-3.3,5.753v-23.7c0-2.206-1.794-4-4-4
		c-0.738,0-1.431,0.201-2.025,0.551C51.75,1.557,50.053,0.001,47.999,0.001L47.999,0.001z"/>
</g>
<path fill-rule="evenodd" clip-rule="evenodd" fill="#616160" d="M38.952,59.001c1.096,0,1.984,0.896,1.984,2s-0.889,2-1.984,2
	s-1.984-0.896-1.984-2S37.856,59.001,38.952,59.001z"/>
<g>
	<path fill="#616160" d="M57,56v10H35V56H57 M59,54H33v14h26V54L59,54z"/>
</g>
<path fill="#616160" d="M30,66v34c0.659,0.239,1.327,0.833,2,1.041V100c0,0,0.042-2.208,0-3V68h26v25v1v7.04
	c0.631-0.194,1.382-0.818,2-1.04V66H30z"/>
<path fill="#616160" d="M57,15.633v2.085c17.886,5.208,30.998,21.737,30.998,41.282c0,23.71-19.289,42.999-42.999,42.999
	S2,82.711,2,59.001c0-19.545,13.113-36.075,31-41.283v-2.086C13.975,20.885,0,38.306,0,59.001C0,83.853,20.146,104,44.999,104
	c24.852,0,44.999-20.147,44.999-44.999C89.998,38.307,76.023,20.887,57,15.633z"/>
</svg>
