<svg id="Слой_1" data-name="Слой 1" xmlns="http://www.w3.org/2000/svg" viewBox="0 0 91.2 90.2"><defs><style>.cls-1{fill:none;stroke:#201600;stroke-miterlimit:10;stroke-width:2px;fill-rule:evenodd;}</style></defs><title>Maintenance</title><path class="cls-1" d="M90.35,89.86c6-6,4.51-11,1.67-13.87L72.9,57c-1.45-1.44-5-.57-7.25-2.78s-3.9-8.32-3.9-8.32L59,43.11a2.48,2.48,0,0,0-3.35,0L43.35,55.32a2.45,2.45,0,0,0,0,3.33l2.79,2.77s6.14,1.67,8.36,3.88,1.34,5.77,2.79,7.21l19.12,19c2.84,2.82,7.91,4.33,13.94-1.66" transform="translate(-4.31 -4.81)"/><path class="cls-1" d="M46.14,52.55L19.43,26c-3.33.76-4.5,0-6.13-1.66-3-3-7.8-14.42-7.8-14.42L9.39,6s11.86,5.15,14.5,7.77c1.36,1.35,2.43,2.79,1.67,6.1L52.27,46.44" transform="translate(-4.31 -4.81)"/><path class="cls-1" d="M62.19,48.32L74.5,36s10,2.61,15.59-3c3.31-3.32,5.74-10.75,3.6-12.89-1.36.17-7.91,9.6-14.39,3.09-1.78-1.79-3-7.34-1-9.28,2.31-2.32,6.41-3.33,8.22-5.16C82.17,4.41,73.48,5.3,68,10.81S64.5,26,64.5,26l-16,16M42,48.47L26.5,64s-10-2.62-15.58,3c-3.31,3.32-5.74,10.75-3.6,12.89,1.36-.17,7.91-9.6,14.39-3.09,1.78,1.79,3,7.34,1,9.28-2.31,2.32-6.41,3.33-8.22,5.16,4.32,4.34,13,3.45,18.51-2.06S36.5,74,36.5,74L48.38,62.13" transform="translate(-4.31 -4.81)"/></svg>