<svg id="Слой_1" data-name="Слой 1" xmlns="http://www.w3.org/2000/svg" viewBox="0 0 93.41 93.41"><defs><style>.cls-1,.cls-3,.cls-4{fill:none;}.cls-1,.cls-4{fill-rule:evenodd;}.cls-2{fill:#201600;}.cls-3,.cls-4{stroke:#201600;stroke-miterlimit:10;stroke-width:2px;}</style></defs><title>marketing</title><path class="cls-1" d="M73.55,14.32V26.45H85.68" transform="translate(-6 -0.59)"/><path class="cls-1" d="M52.49,47.47a2.83,2.83,0,1,1-4,0A2.83,2.83,0,0,1,52.49,47.47Z" transform="translate(-6 -0.59)"/><path class="cls-1" d="M50.92,49.08l34-34H97l-21,21H64.66" transform="translate(-6 -0.59)"/><path class="cls-1" d="M50.76,49.29L84.87,15.13V3l-21,21V35.34" transform="translate(-6 -0.59)"/><path class="cls-1" d="M50.37,36.16A13.64,13.64,0,1,1,36.68,49.8,13.66,13.66,0,0,1,50.37,36.16Z" transform="translate(-6 -0.59)"/><path class="cls-1" d="M50.1,20.66A29.23,29.23,0,1,1,20.87,49.9,29.23,29.23,0,0,1,50.1,20.66Z" transform="translate(-6 -0.59)"/><path class="cls-1" d="M50.12,7A42.87,42.87,0,1,1,7.24,49.88,42.88,42.88,0,0,1,50.12,7Z" transform="translate(-6 -0.59)"/><circle class="cls-2" cx="44" cy="49.41" r="3"/><circle class="cls-3" cx="44" cy="49.41" r="14"/><path class="cls-4" d="M75.93,37A29,29,0,1,1,63,24.07" transform="translate(-6 -0.59)"/><path class="cls-4" d="M85.68,26A43,43,0,1,1,74,14.31" transform="translate(-6 -0.59)"/><line class="cls-3" x1="44" y1="49.41" x2="79" y2="14.41"/><polyline class="cls-4" points="68 13.41 68 25.41 80 25.41"/><polygon class="cls-4" points="69 36.41 57 36.41 57 24.41 79 2.41 79 14.41 91 14.41 69 36.41"/></svg>