<?xml version="1.0" encoding="utf-8"?>
<!-- Generator: Adobe Illustrator 20.1.0, SVG Export Plug-In . SVG Version: 6.00 Build 0)  -->
<svg version="1.1" id="Шар_1" xmlns="http://www.w3.org/2000/svg" xmlns:xlink="http://www.w3.org/1999/xlink" x="0px" y="0px"
	 viewBox="0 0 135 111" enable-background="new 0 0 135 111" xml:space="preserve">
<rect display="none" width="135" height="111"/>
<g>
	<path fill-rule="evenodd" clip-rule="evenodd" fill="none" stroke="#FFFFFF" stroke-width="3" stroke-miterlimit="10" d="
		M66.77,58.609c-5.801-5.757-30.29-30.06-32.715-32.465c-4.077,0.925-5.513-0.05-7.511-2.033c-3.687-3.658-9.56-17.614-9.56-17.614
		l4.78-4.743c0,0,14.531,6.287,17.754,9.485c1.665,1.652,2.98,3.407,2.049,7.453c2.424,2.405,26.914,26.708,32.715,32.465"/>
	<path fill-rule="evenodd" clip-rule="evenodd" fill="none" stroke="#FFFFFF" stroke-width="3" stroke-miterlimit="10" d="
		M120.92,104.189c7.384-7.325,5.523-13.49,2.049-16.938c-8.061-7.998-21.644-21.465-23.418-23.225
		c-1.774-1.761-6.163-0.695-8.882-3.393c-2.719-2.699-4.775-10.158-4.775-10.158s-2.851-2.828-3.414-3.387
		c-0.564-0.558-2.589-1.497-4.097,0c-2.252,2.235-13.088,12.985-15.023,14.904c-1.508,1.497-0.563,3.507,0,4.065
		c0.563,0.559,3.414,3.388,3.414,3.388s7.518,2.039,10.238,4.737c2.719,2.699,1.645,7.052,3.419,8.812
		c1.774,1.761,15.357,15.229,23.418,23.227C107.322,109.669,113.536,111.516,120.92,104.189"/>
	<path fill-rule="evenodd" clip-rule="evenodd" fill="none" stroke="#FFFFFF" stroke-width="3" stroke-miterlimit="10" d="
		M86.432,53.444l15.078-15.036c0,0,12.216,3.189,19.093-3.691c4.057-4.058,7.025-13.127,4.407-15.745
		c-1.661,0.203-9.688,11.724-17.63,3.779c-2.186-2.187-3.633-8.962-1.259-11.338c2.829-2.829,7.849-4.071,10.074-6.299
		c-5.295-5.296-15.94-4.209-22.667,2.52c-6.727,6.73-4.267,18.56-4.267,18.56L69.649,45.753 M61.751,53.628l-19.034,18.98
		c0,0-12.2-3.2-19.077,3.679c-4.057,4.059-7.025,13.128-4.407,15.747c1.661-0.204,9.687-11.724,17.63-3.779
		c2.186,2.186,3.633,8.962,1.259,11.336c-2.829,2.83-7.849,4.073-10.074,6.299c5.295,5.298,15.94,4.21,22.667-2.519
		c6.727-6.73,4.252-18.55,4.252-18.55l14.552-14.51"/>
</g>
</svg>
