<?xml version="1.0" encoding="utf-8"?>
<!-- Generator: Adobe Illustrator 16.0.0, SVG Export Plug-In . SVG Version: 6.00 Build 0)  -->
<!DOCTYPE svg PUBLIC "-//W3C//DTD SVG 1.1//EN" "http://www.w3.org/Graphics/SVG/1.1/DTD/svg11.dtd">
<svg version="1.1" id="Шар_1" xmlns="http://www.w3.org/2000/svg" xmlns:xlink="http://www.w3.org/1999/xlink" x="0px" y="0px"
	 width="100px" height="100px" viewBox="0 0 100 100" enable-background="new 0 0 100 100" xml:space="preserve">
<path fill-rule="evenodd" clip-rule="evenodd" fill="#636362" d="M72,48v-2h2v2H72z M72,43h2v1.999h-2V43z M72,39.999h2V42h-2
	V39.999z M69,49h2v2h-2V49z M69,46h2v2h-2V46z M69,43h2v1.999h-2V43z M69,39.999h2V42h-2V39.999z M69,37h2v2h-2V37z M66,52h2v2h-2
	V52z M66,49h2v2h-2V49z M66,46h2v2h-2V46z M66,43h2v1.999h-2V43z M66,39.999h2V42h-2V39.999z M66,37h2v2h-2V37z M66,34h2v2h-2V34z
	 M63,55h2v2h-2V55z M63,52h2v2h-2V52z M63,49h2v2h-2V49z M63,46h2v2h-2V46z M63,43h2v1.999h-2V43z M63,39.999h2V42h-2V39.999z
	 M63,37h2v2h-2V37z M63,34h2v2h-2V34z M63,31h2v2h-2V31z M60,58h2v2h-2V58z M60,55h2v2h-2V55z M60,52h2v2h-2V52z M60,49h2v2h-2V49z
	 M60,46h2v2h-2V46z M60,39.999h2V42h-2V39.999z M60,37h2v2h-2V37z M60,34h2v2h-2V34z M60,31h2v2h-2V31z M60,28h2v2h-2V28z
	 M57,60.999h2V63h-2V60.999z M57,58h2v2h-2V58z M57,55h2v2h-2V55z M57,52h2v2h-2V52z M57,49h2v2h-2V49z M57,37h2v2h-2V37z M57,34h2
	v2h-2V34z M57,31h2v2h-2V31z M57,28h2v2h-2V28z M57,25h2v2h-2V25z M54,64h2v1.999h-2V64z M54,60.999h2V63h-2V60.999z M54,58h2v2h-2
	V58z M54,55h2v2h-2V55z M54,52h2v2h-2V52z M54,34h2v2h-2V34z M54,31h2v2h-2V31z M54,28h2v2h-2V28z M54,25h2v2h-2V25z M51,67h2v2h-2
	V67z M51,64h2v1.999h-2V64z M51,60.999h2V63h-2V60.999z M51,58h2v2h-2V58z M51,55h2v2h-2V55z M51,37h2v2h-2V37z M51,34h2v2h-2V34z
	 M51,31h2v2h-2V31z M51,28h2v2h-2V28z M51,25h2v2h-2V25z M48,70h2v1.999h-2V70z M48,67h2v2h-2V67z M48,64h2v1.999h-2V64z M48,60.999
	h2V63h-2V60.999z M48,58h2v2h-2V58z M48,39.999h2V42h-2V39.999z M48,37h2v2h-2V37z M48,34h2v2h-2V34z M48,31h2v2h-2V31z M48,28h2v2
	h-2V28z M45,67h2v1.999h-2V67z M45,63.999h2v2h-2V63.999z M45,60.999h2V63h-2V60.999z M45,43h2v1.999h-2V43z M45,39.999h2V42h-2
	V39.999z M45,37h2v2h-2V37z M45,34h2v2h-2V34z M45,31h2v2h-2V31z M42,46h2v2h-2V46z M42,43h2v1.999h-2V43z M42,39.999h2V42h-2
	V39.999z M42,37h2v2h-2V37z M42,34h2v2h-2V34z M39,49h2v2h-2V49z M39,46h2v2h-2V46z M39,43h2v1.999h-2V43z M39,39.999h2V42h-2
	V39.999z M39,37h2v2h-2V37z M36,52h2v2h-2V52z M36,49h2v2h-2V49z M36,46h2v2h-2V46z M36,43h2v1.999h-2V43z M36,39.999h2V42h-2
	V39.999z M33,55h2v2h-2V55z M33,52h2v2h-2V52z M33,49h2v2h-2V49z M33,46h2v2h-2V46z M33,43h2v1.999h-2V43z M30,54.999h2V57h-2
	V54.999z M30,52h2v1.999h-2V52z M30,48.999h2V51h-2V48.999z M30,46h2v1.999h-2V46z M44,66h-2v-2h2V66z M44,69h-2v-2h2V69z"/>
<g>
	<path fill="#636362" d="M54.011,19.012c14.337,0,26,11.664,26,26c0,14.337-11.663,26-26,26c-14.336,0-26-11.663-26-26
		C28.011,30.675,39.674,19.012,54.011,19.012 M54.011,17.012c-15.464,0-28,12.536-28,28s12.536,28,28,28s28-12.536,28-28
		S69.475,17.012,54.011,17.012L54.011,17.012z"/>
</g>
<path fill-rule="evenodd" clip-rule="evenodd" fill="#636362" d="M74.183,63.77l3.07,3.07l-1.414,1.414l-3.07-3.07L74.183,63.77z"/>
<g>
	<path fill="#636362" d="M78.471,66.99c0.279,0,0.542,0.109,0.739,0.307l11.483,11.485C90.891,78.979,91,79.241,91,79.52
		c0,0.279-0.109,0.542-0.307,0.739l-1.436,1.436C89.061,81.892,88.798,82,88.52,82c-0.279,0-0.542-0.108-0.739-0.306L76.296,70.211
		c-0.197-0.197-0.306-0.46-0.306-0.739s0.108-0.542,0.306-0.739l1.436-1.436C77.929,67.1,78.191,66.99,78.471,66.99 M78.471,64.99
		c-0.779,0-1.559,0.298-2.153,0.893l-1.436,1.436c-1.189,1.189-1.189,3.117,0,4.307l11.484,11.483C86.961,83.703,87.74,84,88.52,84
		s1.559-0.297,2.152-0.892l1.436-1.436c1.189-1.188,1.189-3.117,0-4.306L80.624,65.883C80.029,65.288,79.25,64.99,78.471,64.99
		L78.471,64.99z"/>
</g>
<path fill="#636362" d="M38.042,66.276L27.015,77.304L9.593,59.883l5.171-5.172c1.283,1.282,6.421,6.421,10.836,10.836l1.414,1.414
	l1.414-1.414l4.424-4.425c-0.413-0.533-0.81-1.08-1.184-1.644c-1.646,1.646-3.224,3.224-4.654,4.654
	C22.064,59.182,16.203,53.32,15.89,53.008c-0.311-0.312-0.718-0.473-1.128-0.473c-0.4,0-0.804,0.154-1.122,0.473
	c-0.486,0.485-5.75,5.75-5.75,5.75c-0.627,0.626-0.628,1.621,0,2.25l18,17.999c0.15,0.15,0.328,0.264,0.521,0.339
	c0.107,0.043,0.222,0.046,0.334,0.064c0.091,0.016,0.178,0.05,0.27,0.05c0.092,0,0.179-0.034,0.27-0.05
	c0.113-0.019,0.228-0.021,0.335-0.064c0.192-0.075,0.37-0.188,0.521-0.339l11.561-11.561C39.134,67.075,38.58,66.687,38.042,66.276z
	"/>
</svg>
