<?xml version="1.0" encoding="utf-8"?>
<!-- Generator: Adobe Illustrator 20.0.0, SVG Export Plug-In . SVG Version: 6.00 Build 0)  -->
<svg version="1.1" id="Слой_1" xmlns="http://www.w3.org/2000/svg" xmlns:xlink="http://www.w3.org/1999/xlink" x="0px" y="0px"
	 viewBox="0 0 100 100" enable-background="new 0 0 100 100" xml:space="preserve">
<g>
	<path fill-rule="evenodd" clip-rule="evenodd" fill="#616261" d="M31,37h38v2H31V37z"/>
	<path fill-rule="evenodd" clip-rule="evenodd" fill="#616261" d="M31,51h35v2H31V51z"/>
	<path fill-rule="evenodd" clip-rule="evenodd" fill="#616261" d="M31,65h38v2H31V65z"/>
	<path fill-rule="evenodd" clip-rule="evenodd" fill="#616261" fill-opacity="0.31" d="M31,79h38v2H31V79z"/>
	<g>
		<path fill="#616261" d="M25,21c2.206,0,4,1.794,4,4s-1.794,4-4,4s-4-1.794-4-4S22.794,21,25,21 M25,19c-3.314,0-6,2.686-6,6
			s2.686,6,6,6s6-2.686,6-6S28.314,19,25,19L25,19z"/>
	</g>
	<path fill-rule="evenodd" clip-rule="evenodd" fill="#616261" d="M25,29c0.552,0,1,0.373,1,0.833v8.333C26,38.627,25.552,39,25,39
		c-0.552,0-1-0.373-1-0.834v-8.333C24,29.373,24.448,29,25,29z"/>
	<g>
		<path fill="#616261" d="M75,49c2.206,0,4,1.794,4,4s-1.794,4-4,4s-4-1.794-4-4S72.794,49,75,49 M75,47c-3.314,0-6,2.686-6,6
			s2.686,6,6,6s6-2.686,6-6S78.314,47,75,47L75,47z"/>
	</g>
	<path fill-rule="evenodd" clip-rule="evenodd" fill="#616261" d="M75,57c0.552,0,1,0.373,1,0.833v8.333C76,66.627,75.552,67,75,67
		s-1-0.373-1-0.833v-8.333C74,57.373,74.448,57,75,57z"/>
</g>
</svg>
