<?xml version="1.0" encoding="utf-8"?>
<!-- Generator: Adobe Illustrator 20.0.0, SVG Export Plug-In . SVG Version: 6.00 Build 0)  -->
<svg version="1.1" id="Слой_1" xmlns="http://www.w3.org/2000/svg" xmlns:xlink="http://www.w3.org/1999/xlink" x="0px" y="0px"
	 viewBox="0 0 100 100" enable-background="new 0 0 100 100" xml:space="preserve">
<g>
	<path fill-rule="evenodd" clip-rule="evenodd" fill="none" stroke="#616261" stroke-width="2" stroke-miterlimit="10" d="
		M31.926,49.775c-0.789-6.819,11.216-15.242,17.102-10.823c5.243,5.678-1.67,21.366-8.602,23.322c-0.399-0.01-0.797-0.02-1.196-0.03
		c-0.144-0.777-0.288-1.555-0.432-2.332c1.341-3.672,10.028-12.835,14.53-8.883c1.261,2.005-2.159,5.661-1.085,6.933
		c4.503,0,7.666-7.691,12.792-6.843c-0.268,1.558-0.536,3.116-0.804,4.673c0.961,0.907,3.081-1.232,3.879-1.719"/>
	<g>
		<path fill="#616261" d="M60.786,27h-6c-0.552,0-1,0.448-1,1s0.448,1,1,1h6c0.552,0,1-0.448,1-1S61.338,27,60.786,27L60.786,27z
			 M48.786,27h-6c-0.552,0-1,0.448-1,1s0.448,1,1,1h6c0.552,0,1-0.448,1-1S49.338,27,48.786,27L48.786,27z M36.786,27h-6
			c-0.552,0-1,0.448-1,1s0.448,1,1,1h6c0.552,0,1-0.448,1-1S37.338,27,36.786,27L36.786,27z M25.251,27.408
			c-0.132,0-0.266,0.026-0.395,0.082c-1.42,0.617-2.577,1.773-3.241,3.228l0,0c-0.001,0.001-0.001,0.003-0.002,0.004l0,0.001
			c-0.003,0.007-0.007,0.015-0.01,0.022l0,0c-0.001,0.001-0.001,0.003-0.002,0.004c0,0,0,0,0,0
			c-0.003,0.006-0.005,0.012-0.008,0.018c0,0,0,0,0,0c-0.001,0.002-0.001,0.003-0.002,0.004l0,0
			c-0.003,0.007-0.007,0.015-0.01,0.022l0,0.001c-0.001,0.002-0.001,0.003-0.002,0.004l0,0c-0.004,0.009-0.008,0.018-0.012,0.027
			l0,0c-0.003,0.007-0.006,0.015-0.01,0.022l0,0.001c-0.001,0.002-0.001,0.003-0.002,0.004l0,0
			c-0.003,0.007-0.006,0.015-0.009,0.022c0,0,0,0.001,0,0.001c-0.001,0.001-0.001,0.003-0.002,0.004l0,0
			c-0.002,0.006-0.005,0.011-0.007,0.017c0,0,0,0.001,0,0.001c-0.001,0.002-0.001,0.003-0.002,0.004l-0.001,0.001
			c0,0.001-0.001,0.002-0.001,0.004c0,0,0,0.001,0,0.001c-0.002,0.004-0.003,0.008-0.005,0.012l0,0.001
			c0,0.001-0.001,0.002-0.001,0.003c0,0.001,0,0.001-0.001,0.002c0,0.001-0.001,0.002-0.001,0.003c0,0.001,0,0.001-0.001,0.002
			c0,0.001-0.001,0.002-0.001,0.003c0,0,0,0.001-0.001,0.002c0,0.001-0.001,0.002-0.001,0.003l0,0.001
			c-0.001,0.002-0.002,0.005-0.003,0.007c0,0,0,0.001,0,0.001c-0.001,0.001-0.001,0.002-0.001,0.004c0,0,0,0.001,0,0.001
			c0,0.001-0.001,0.002-0.001,0.003c0,0,0,0.001-0.001,0.002c0,0.001-0.001,0.002-0.001,0.003c0,0,0,0.001,0,0.001
			c-0.001,0.004-0.003,0.007-0.004,0.011c0,0.001-0.001,0.002-0.001,0.002c-0.001,0.002-0.001,0.003-0.001,0.004
			c0,0.001-0.001,0.002-0.001,0.002c-0.001,0.002-0.001,0.003-0.001,0.003c0,0.001-0.001,0.002-0.001,0.002l-0.001,0.003
			c0,0.001-0.001,0.002-0.001,0.003c0,0.001-0.001,0.001-0.001,0.002c-0.001,0.002-0.001,0.003-0.002,0.005
			c0,0.001-0.001,0.002-0.001,0.003c0,0.001-0.001,0.002-0.001,0.002c0,0.001-0.001,0.002-0.001,0.002
			c0,0.001-0.001,0.002-0.001,0.003c0,0.001-0.001,0.001-0.001,0.002c0,0.001-0.001,0.002-0.001,0.003c0,0-0.001,0.001-0.001,0.002
			c0,0.001-0.001,0.002-0.001,0.003c0,0.001-0.001,0.002-0.001,0.003c0,0.001-0.001,0.002-0.001,0.003
			c0,0.001-0.001,0.002-0.001,0.002c0,0.001-0.001,0.002-0.001,0.003c0,0.001-0.001,0.002-0.001,0.003
			c0,0.001-0.001,0.002-0.001,0.002c0,0.001-0.001,0.002-0.001,0.003c0,0.001-0.001,0.001-0.001,0.002
			c0,0.001-0.001,0.002-0.001,0.003c0,0.001-0.001,0.002-0.001,0.004c0,0.001-0.001,0.002-0.001,0.003
			c0,0.001-0.001,0.002-0.001,0.002c-0.001,0.002-0.001,0.003-0.001,0.004c0,0.001-0.001,0.002-0.001,0.002
			c0,0.001-0.001,0.002-0.001,0.003c0,0.001-0.001,0.001-0.001,0.002c0,0.001-0.001,0.002-0.001,0.003
			c0,0.001-0.001,0.002-0.001,0.003c0,0.001-0.001,0.001-0.001,0.001c-0.001,0.002-0.002,0.004-0.002,0.006
			c0,0.001-0.001,0.002-0.001,0.002c0,0.001-0.001,0.002-0.001,0.003c0,0.001-0.001,0.002-0.001,0.002
			c0,0.001-0.001,0.002-0.001,0.003l-0.001,0.003c0,0.001-0.001,0.001-0.001,0.002c0,0.001-0.001,0.002-0.001,0.003
			c0,0.001-0.001,0.002-0.001,0.002c-0.001,0.001-0.001,0.002-0.001,0.004c0,0.001-0.001,0.002-0.001,0.004
			c0,0.001-0.001,0.001-0.001,0.002c0,0-0.001,0.002-0.001,0.003c0,0.001-0.001,0.002-0.001,0.003c0,0.001-0.001,0.002-0.001,0.003
			c0,0-0.001,0.002-0.001,0.003c0,0.001-0.001,0.002-0.001,0.003c0,0.001-0.001,0.002-0.001,0.003c0,0.001-0.001,0.002-0.001,0.003
			c-0.001,0.002-0.001,0.003-0.002,0.005c0,0.001-0.001,0.001-0.001,0.002c0,0.001-0.001,0.002-0.001,0.003
			c0,0.001-0.001,0.001-0.001,0.001c-0.001,0.002-0.001,0.002-0.001,0.003c0,0.001-0.001,0.002-0.001,0.003
			c0,0.001-0.001,0.002-0.001,0.003c0,0.001-0.001,0.002-0.001,0.002c0,0.001-0.001,0.002-0.001,0.003
			c0,0.001-0.001,0.002-0.001,0.003c0,0.001-0.001,0.002-0.001,0.003c0,0.001-0.001,0.003-0.001,0.004c0,0.001,0,0.001,0,0.001
			c-0.001,0.002-0.001,0.003-0.001,0.004c0,0-0.001,0.002-0.001,0.002c0,0.001-0.001,0.002-0.001,0.003
			c0,0.001-0.001,0.002-0.001,0.002c0,0.001-0.001,0.002-0.001,0.003c0,0.001-0.001,0.002-0.001,0.003
			c-0.001,0.001-0.001,0.003-0.002,0.004c0,0.001-0.001,0.002-0.001,0.002c0,0.001-0.001,0.002-0.001,0.003
			c0,0.001-0.001,0.002-0.001,0.002c0,0.001-0.001,0.002-0.001,0.003c0,0.001-0.001,0.002-0.001,0.002
			c0,0.001-0.001,0.002-0.001,0.003c0,0.001-0.001,0.002-0.001,0.002c-0.001,0.002-0.001,0.003-0.001,0.004
			c0,0.001-0.001,0.001-0.001,0.001c-0.001,0.002-0.001,0.004-0.002,0.006c0,0.001-0.001,0.001-0.001,0.002
			c0,0.001-0.001,0.002-0.001,0.003c0,0-0.001,0.002-0.001,0.003c0,0.001-0.001,0.002-0.001,0.002c0,0-0.001,0.002-0.001,0.003
			c0,0.001-0.001,0.002-0.001,0.003c0,0.001-0.001,0.002-0.001,0.003c0,0.001-0.001,0.002-0.001,0.003c0,0,0,0.001-0.001,0.002
			c-0.001,0.002-0.001,0.003-0.002,0.005c0,0,0,0.001-0.001,0.002c0,0.001-0.001,0.002-0.001,0.003c0,0.001-0.001,0.002-0.001,0.002
			c0,0.001-0.001,0.002-0.001,0.003c0,0.001,0,0.001-0.001,0.002c0,0.001-0.001,0.002-0.001,0.003c0,0,0,0.001-0.001,0.002
			c0,0.001-0.001,0.002-0.001,0.004c0,0,0,0.001,0,0.001c-0.001,0.002-0.001,0.003-0.002,0.005c0,0.001,0,0.001-0.001,0.002
			c0,0.001-0.001,0.002-0.001,0.004c0,0.001,0,0.001,0,0.001c-0.001,0.002-0.001,0.003-0.001,0.004c0,0-0.001,0.002-0.001,0.002
			c0,0.001-0.001,0.002-0.001,0.003c0,0.001,0,0.001-0.001,0.002c-0.001,0.004-0.002,0.007-0.004,0.011c0,0,0,0.001,0,0.001
			c0,0.001-0.001,0.003-0.001,0.004c0,0,0,0.001-0.001,0.002c0,0.001-0.001,0.003-0.001,0.004c0,0,0,0.001,0,0.001
			c0,0.001-0.001,0.003-0.001,0.004l0,0.001c-0.001,0.004-0.002,0.007-0.004,0.011l0,0.001c-0.001,0.002-0.001,0.003-0.002,0.004
			c0,0,0,0.001,0,0.001c0,0.001-0.001,0.003-0.001,0.004l0,0.001c-0.001,0.002-0.001,0.003-0.002,0.005l0,0
			c-0.001,0.004-0.003,0.007-0.004,0.011c0,0,0,0.001,0,0.001c0,0.001-0.001,0.003-0.001,0.004l0,0.001
			c0,0.001-0.001,0.003-0.002,0.004c0,0,0,0.001,0,0.001c-0.002,0.005-0.004,0.011-0.006,0.017c0,0,0,0.001,0,0.001
			c-0.001,0.002-0.001,0.003-0.002,0.005c0,0,0,0.001,0,0.001c-0.001,0.002-0.001,0.003-0.002,0.005c0,0,0,0.001,0,0.001
			c-0.001,0.004-0.002,0.008-0.004,0.011c0,0,0,0.001,0,0.001c-0.001,0.002-0.001,0.003-0.002,0.005c0,0,0,0.001,0,0.001
			c0,0.001-0.001,0.003-0.001,0.004c0,0,0,0.001,0,0.001c-0.001,0.002-0.001,0.004-0.002,0.005l0,0
			c-0.001,0.004-0.002,0.008-0.004,0.011l0,0c-0.001,0.002-0.001,0.003-0.002,0.005l0,0.001c-0.001,0.002-0.001,0.003-0.002,0.005
			c0,0,0,0,0,0c-0.001,0.002-0.001,0.004-0.002,0.006l0,0c-0.002,0.006-0.004,0.011-0.005,0.017l0,0.001
			c-0.001,0.002-0.001,0.003-0.002,0.005l0,0.001c-0.002,0.006-0.004,0.011-0.005,0.017l0,0c-0.001,0.002-0.001,0.004-0.002,0.005
			c0,0,0,0,0,0c-0.001,0.002-0.001,0.004-0.002,0.006c0,0,0,0,0,0c-0.002,0.006-0.004,0.012-0.005,0.017l0,0
			c-0.001,0.002-0.001,0.004-0.002,0.005c0,0,0,0,0,0c-0.002,0.008-0.005,0.015-0.007,0.023l0,0
			c-0.001,0.002-0.001,0.004-0.002,0.006l0,0c-0.002,0.008-0.005,0.015-0.007,0.023l0,0c-0.001,0.002-0.001,0.004-0.002,0.005l0,0
			c-0.038,0.126-0.072,0.254-0.102,0.383c-0.127,0.537,0.205,1.076,0.743,1.204c0.078,0.018,0.155,0.027,0.231,0.027
			c0.453,0,0.863-0.31,0.972-0.77c0.333-1.403,1.274-2.564,2.518-3.105c0.506-0.22,0.739-0.809,0.518-1.316
			C26.005,27.633,25.637,27.408,25.251,27.408L25.251,27.408z M22,36.955c-0.552,0-1,0.448-1,1v6c0,0.552,0.448,1,1,1s1-0.448,1-1
			v-6C23,37.403,22.552,36.955,22,36.955L22,36.955z M22,48.955c-0.552,0-1,0.448-1,1v6c0,0.552,0.448,1,1,1s1-0.448,1-1v-6
			C23,49.403,22.552,48.955,22,48.955L22,48.955z M22,60.955c-0.552,0-1,0.448-1,1v4.473c0,0.002,0,0.004,0,0.006
			c0,0.001,0,0.002,0,0.002c0,0.001,0,0.002,0,0.004c0,0.001,0,0.001,0,0.002c0,0.001,0,0.002,0,0.003c0,0,0,0.002,0,0.002
			c0,0.001,0,0.002,0,0.004c0,0.001,0,0.002,0,0.002c0,0.001,0,0.002,0,0.004c0,0.001,0,0.001,0,0.001c0,0.002,0,0.004,0,0.005
			c0,0,0,0.001,0,0.001c0,0.002,0,0.004,0,0.006l0,0c0,0.002,0,0.004,0,0.005c0,0,0,0.002,0,0.002c0,0.001,0,0.002,0,0.004
			c0,0.001,0,0.001,0,0.002c0,0.001,0,0.002,0,0.004c0,0.001,0,0.001,0,0.001c0,0.002,0,0.003,0,0.005c0,0.001,0,0.002,0,0.002
			c0,0.002,0,0.003,0,0.004c0,0,0,0.002,0,0.002c0,0.002,0,0.003,0,0.005c0,0,0,0,0,0.001c0,0.002,0,0.004,0,0.006l0,0.001
			c0,0.002,0,0.003,0,0.005c0,0.001,0,0.001,0,0.001c0,0.002,0,0.003,0,0.004c0,0.001,0,0.002,0,0.002c0,0.002,0,0.003,0,0.004
			c0,0.001,0,0.001,0,0.002c0,0.001,0,0.002,0,0.004c0,0.001,0,0.001,0,0.002c0,0.001,0,0.003,0,0.004c0,0,0,0.001,0,0.002
			c0,0.002,0,0.003,0,0.005l0,0.001c0,0.002,0,0.004,0,0.006l0,0.001c0,0.002,0,0.003,0,0.005c0,0.001,0,0.001,0,0.002
			c0,0.001,0,0.003,0,0.004c0,0,0,0.001,0,0.002c0,0.001,0,0.003,0,0.004c0,0.001,0,0.001,0,0.001c0,0.002,0,0.003,0,0.005
			c0,0,0,0.001,0,0.002c0,0.002,0,0.004,0,0.005l0,0c0,0.004,0,0.008,0,0.012c0,0,0,0.001,0,0.001c0,0.002,0,0.003,0,0.005
			c0,0,0,0.001,0,0.001c0,0.002,0,0.003,0,0.004c0,0.001,0,0.001,0,0.002c0,0.001,0,0.003,0,0.004c0,0.001,0,0.001,0,0.002
			c0,0.001,0,0.003,0,0.004c0,0,0,0.001,0,0.002c0,0.002,0,0.003,0,0.005c0,0,0,0,0,0c0,0.002,0,0.004,0,0.006l0,0
			c0,0.002,0,0.004,0,0.006l0,0.001c0,0.002,0,0.003,0,0.005l0,0.002c0,0.001,0,0.003,0,0.004l0,0.002c0,0.001,0,0.003,0,0.004
			l0,0.001c0,0.002,0,0.003,0,0.005c0,0,0,0.001,0,0.001c0,0.006,0,0.012,0.001,0.018c0,0,0,0.001,0,0.001c0,0.002,0,0.004,0,0.005
			c0,0,0,0.001,0,0.001c0,0.002,0,0.003,0,0.005c0,0.001,0,0.001,0,0.001c0,0.002,0,0.004,0,0.005l0,0.001c0,0.002,0,0.004,0,0.006
			l0,0c0,0.004,0,0.008,0,0.012l0,0c0,0.002,0,0.004,0,0.006l0,0.001c0,0.002,0,0.003,0,0.005c0,0,0,0.001,0,0.001
			c0,0.002,0,0.003,0,0.005l0,0.001c0,0.002,0,0.004,0,0.006l0,0c0,0.008,0.001,0.016,0.001,0.024l0,0c0,0.002,0,0.004,0,0.006l0,0
			c0,0.002,0,0.004,0,0.005c0,0,0,0,0,0.001c0,0.008,0.001,0.016,0.001,0.024l0,0c0,0.002,0,0.004,0,0.006c0,0,0,0,0,0
			c0,0.002,0,0.004,0,0.005l0,0.001c0,0.002,0,0.004,0,0.005c0,0,0,0,0,0c0.001,0.01,0.001,0.02,0.002,0.03c0,0,0,0,0,0
			c0,0.002,0,0.004,0,0.006l0,0c0,0.002,0,0.004,0,0.006l0,0c0,0.008,0.001,0.016,0.002,0.024l0,0
			c0.013,0.2,0.035,0.398,0.064,0.592l0,0c0,0.002,0.001,0.004,0.001,0.005l0,0c0,0.002,0.001,0.004,0.001,0.005l0,0
			c0,0.002,0.001,0.004,0.001,0.006l0,0c0.001,0.008,0.002,0.015,0.004,0.023l0,0.001c0,0.001,0,0.003,0.001,0.004
			c0,0.001,0,0.001,0,0.001c0,0.001,0,0.003,0.001,0.004c0,0,0,0.001,0,0.001c0,0.002,0.001,0.003,0.001,0.005c0,0,0,0.001,0,0.001
			c0,0.002,0.001,0.003,0.001,0.005c0,0,0,0,0,0.001c0.001,0.004,0.001,0.007,0.002,0.011c0,0,0,0.001,0,0.001
			c0,0.001,0,0.003,0.001,0.004c0,0.001,0,0.001,0,0.002c0,0.001,0,0.002,0.001,0.003c0,0,0,0.001,0,0.002
			c0,0.001,0,0.002,0.001,0.003c0,0.001,0,0.002,0,0.003c0,0.001,0,0.002,0,0.002c0,0.002,0,0.003,0.001,0.003
			c0,0.001,0,0.002,0.001,0.003c0,0.001,0,0.001,0,0.001c0,0.002,0.001,0.004,0.001,0.006c0,0.001,0,0.001,0,0.002
			c0,0.001,0,0.002,0.001,0.003c0,0.001,0,0.002,0,0.003c0,0.001,0,0.002,0,0.002c0,0.002,0,0.003,0.001,0.004
			c0,0.001,0,0.002,0,0.002c0,0.001,0,0.002,0.001,0.003c0,0.001,0,0.001,0,0.002c0,0.001,0,0.002,0.001,0.003c0,0,0,0.001,0,0.001
			c0.001,0.006,0.002,0.012,0.003,0.018c0,0,0,0.001,0,0.001c0,0.002,0.001,0.003,0.001,0.004c0,0,0,0.001,0,0.001
			c0,0.002,0.001,0.003,0.001,0.005l0,0.001c0,0.001,0.001,0.003,0.001,0.004c0,0,0,0,0,0.001c0.018,0.099,0.037,0.196,0.059,0.293
			c0.105,0.464,0.517,0.78,0.974,0.78c0.072,0,0.145-0.008,0.219-0.024c0.539-0.12,0.879-0.655,0.758-1.194
			C23.04,67.157,23,66.794,23,66.428v-4.473C23,61.403,22.552,60.955,22,60.955L22,60.955z M25.184,70.561
			c-0.381,0-0.744,0.219-0.912,0.588c-0.227,0.502-0.005,1.094,0.497,1.322c0.565,0.256,1.173,0.426,1.81,0.494l0,0
			c0.013,0.001,0.026,0.003,0.039,0.004l0,0c0.068,0.007,0.137,0.013,0.206,0.017l0,0c0.003,0,0.006,0,0.009,0.001c0,0,0,0,0,0
			c0.002,0,0.003,0,0.004,0l0.001,0c0.001,0,0.002,0,0.004,0l0.001,0c0.001,0,0.002,0,0.004,0l0.001,0c0.001,0,0.002,0,0.004,0
			l0.001,0c0.001,0,0.002,0,0.004,0c0,0,0.001,0,0.001,0c0.001,0,0.002,0,0.004,0l0.001,0c0.001,0,0.003,0,0.004,0l0.001,0
			c0.001,0,0.002,0,0.004,0l0.001,0c0.001,0,0.002,0,0.003,0c0,0,0.001,0,0.001,0c0.001,0,0.003,0,0.004,0l0.001,0
			c0.001,0,0.002,0,0.004,0c0,0,0.001,0,0.001,0c0.001,0,0.002,0,0.004,0c0.001,0,0.001,0,0.001,0c0.002,0,0.003,0,0.004,0
			c0,0,0.001,0,0.001,0c0.001,0,0.002,0,0.004,0c0,0,0.001,0,0.001,0c0.001,0,0.002,0,0.004,0c0,0,0.001,0,0.001,0
			c0.001,0,0.002,0,0.004,0c0.001,0,0.001,0,0.002,0c0.001,0,0.002,0,0.004,0c0,0,0.001,0,0.001,0c0.001,0,0.002,0,0.004,0
			c0.001,0,0.001,0,0.001,0c0.001,0,0.002,0,0.004,0c0,0,0.001,0,0.001,0c0.001,0,0.003,0,0.004,0c0.001,0,0.001,0,0.002,0
			c0.001,0,0.002,0,0.003,0c0.001,0,0.001,0,0.002,0c0.001,0,0.002,0,0.003,0c0.001,0,0.001,0,0.002,0c0.001,0,0.002,0,0.003,0
			c0.001,0,0.001,0,0.002,0c0.001,0,0.002,0,0.003,0c0.001,0,0.001,0,0.002,0c0.001,0,0.002,0,0.003,0c0.001,0,0.001,0,0.002,0
			c0.001,0,0.002,0,0.003,0c0.001,0,0.001,0,0.002,0c0.001,0,0.002,0,0.003,0c0.001,0,0.001,0,0.002,0c0.001,0,0.002,0,0.003,0
			c0.001,0,0.001,0,0.002,0c0.001,0,0.002,0,0.003,0c0.001,0,0.001,0,0.002,0c0.001,0,0.002,0,0.003,0c0.001,0,0.001,0,0.002,0
			c0.001,0,0.002,0,0.003,0c0.001,0,0.001,0,0.002,0c0.001,0,0.002,0,0.003,0c0.001,0,0.002,0,0.002,0c0.001,0,0.002,0,0.003,0
			c0.001,0,0.002,0,0.002,0c0.001,0,0.002,0,0.003,0c0.001,0,0.002,0,0.002,0c0.002,0,0.003,0,0.003,0c0.001,0,0.002,0,0.002,0
			c0.001,0,0.002,0,0.003,0c0.001,0,0.002,0,0.002,0c0.002,0,0.003,0,0.003,0c0.001,0,0.001,0,0.002,0c0.001,0,0.002,0,0.003,0
			c0.001,0,0.002,0,0.002,0c0.002,0,0.003,0,0.004,0c0.001,0,0.001,0,0.002,0c0.001,0,0.002,0,0.003,0c0.001,0,0.002,0,0.002,0
			c0.002,0,0.002,0,0.004,0c0.001,0,0.001,0,0.001,0c0.002,0,0.002,0,0.004,0c0.001,0,0.002,0,0.002,0c0.002,0,0.002,0,0.003,0
			c0.001,0,0.001,0,0.001,0c0.002,0,0.002,0,0.004,0c0.001,0,0.002,0,0.002,0c0,0,0.002,0,0.003,0c0.001,0,0.002,0,0.002,0
			c0,0,0.002,0,0.002,0c0.001,0,0.002,0,0.003,0c0,0,0.002,0,0.003,0c0.001,0,0.002,0,0.002,0c0.002,0,0.002,0,0.003,0
			c0.001,0,0.002,0,0.003,0c0.001,0,0.002,0,0.002,0c0.001,0,0.002,0,0.003,0c0.001,0,0.002,0,0.002,0c0.001,0,0.002,0,0.003,0
			c0.001,0,0.002,0,0.002,0c0.001,0,0.002,0,0.002,0c0.001,0,0.002,0,0.003,0c0.001,0,0.002,0,0.003,0c0.001,0,0.002,0,0.002,0
			c0.001,0,0.002,0,0.003,0c0.001,0,0.001,0,0.002,0c0.001,0,0.002,0,0.003,0c0.001,0,0.001,0,0.001,0c0.002,0,0.002,0,0.003,0
			c0.001,0,0.001,0,0.001,0c0.002,0,0.003,0,0.004,0c0.001,0,0.002,0,0.002,0c0.002,0,0.002,0,0.003,0c0.001,0,0.002,0,0.002,0
			c0.002,0,0.003,0,0.003,0c0.001,0,0.002,0,0.002,0c0.002,0,0.003,0,0.003,0c0.001,0,0.002,0,0.002,0c0,0,0.002,0,0.003,0
			c0.001,0,0.002,0,0.002,0c0,0,0.002,0,0.002,0c0.001,0,0.002,0,0.003,0c0.001,0,0.002,0,0.003,0c0.001,0,0.002,0,0.002,0
			c0.001,0,0.002,0,0.003,0c0,0,0.001,0,0.002,0c0.001,0,0.002,0,0.003,0c0,0,0.001,0,0.002,0c0.001,0,0.002,0,0.003,0
			c0,0,0.001,0,0.002,0c0.001,0,0.002,0,0.003,0c0.001,0,0.001,0,0.002,0c0.001,0,0.002,0,0.003,0c0.001,0,0.001,0,0.002,0
			c0.001,0,0.002,0,0.003,0c0,0,0.001,0,0.002,0c0.001,0,0.002,0,0.002,0c0.002,0,0.003,0,0.003,0c0.001,0,0.002,0,0.002,0
			c0.002,0,0.003,0,0.003,0c0.001,0,0.001,0,0.001,0c0.002,0,0.003,0,0.004,0c0.001,0,0.002,0,0.002,0c0.002,0,0.003,0,0.003,0
			c0.001,0,0.002,0,0.003,0c0.001,0,0.001,0,0.002,0c0.001,0,0.002,0,0.004,0l0.001,0c0.002,0,0.003,0,0.005,0h3.482
			c0.552,0,1-0.448,1-1s-0.448-1-1-1h-3.482c-0.562,0-1.106-0.118-1.618-0.349C25.462,70.59,25.322,70.561,25.184,70.561
			L25.184,70.561z M42.696,71h-6c-0.552,0-1,0.448-1,1s0.448,1,1,1h6c0.552,0,1-0.448,1-1S43.248,71,42.696,71L42.696,71z
			 M54.696,71h-6c-0.552,0-1,0.448-1,1s0.448,1,1,1h6c0.552,0,1-0.448,1-1S55.248,71,54.696,71L54.696,71z M66.696,71h-6
			c-0.552,0-1,0.448-1,1s0.448,1,1,1h6c0.552,0,1-0.448,1-1S67.248,71,66.696,71L66.696,71z M76.975,68.747
			c-0.316,0-0.628,0.15-0.822,0.429C75.347,70.335,74.12,71,72.786,71h-0.09c-0.552,0-1,0.448-1,1s0.448,1,1,1h0.09
			c0.002,0,0.004,0,0.006,0c0.001,0,0.001,0,0.002,0c0.001,0,0.002,0,0.004,0c0.001,0,0.001,0,0.002,0c0.001,0,0.002,0,0.004,0
			c0,0,0.001,0,0.002,0c0.001,0,0.003,0,0.004,0c0.001,0,0.001,0,0.001,0c0.003,0,0.004,0,0.006,0h0c0.002,0,0.004,0,0.006,0
			c0,0,0.001,0,0.001,0c0.002,0,0.003,0,0.005,0c0.001,0,0.001,0,0.002,0c0.001,0,0.002,0,0.004,0c0,0,0.001,0,0.002,0
			c0.001,0,0.002,0,0.004,0l0.002,0c0.004,0,0.007,0,0.011,0l0.001,0c0.001,0,0.003,0,0.004,0c0.001,0,0.001,0,0.001,0
			c0.002,0,0.003,0,0.004,0c0.001,0,0.001,0,0.002,0c0.001,0,0.003,0,0.004,0l0.002,0c0.002,0,0.004,0,0.006,0h0
			c0.002,0,0.004,0,0.006,0c0.001,0,0.001,0,0.001,0c0.002,0,0.003,0,0.004,0c0.001,0,0.001,0,0.001,0c0.002,0,0.003,0,0.004,0
			c0,0,0.001,0,0.002,0c0.001,0,0.003,0,0.004,0l0.001,0c0.004,0,0.008,0,0.011,0c0,0,0.001,0,0.001,0c0.001,0,0.003,0,0.005,0
			c0,0,0.001,0,0.002,0c0.001,0,0.003,0,0.004,0c0.001,0,0.001,0,0.002,0c0.001,0,0.003,0,0.004,0l0.002,0c0.002,0,0.004,0,0.005,0
			l0,0c0.002,0,0.004,0,0.006,0c0,0,0.001,0,0.001,0c0.001,0,0.003,0,0.004,0c0,0,0.001,0,0.002,0c0.001,0,0.003,0,0.004,0
			c0,0,0.001,0,0.002,0c0.001,0,0.003,0,0.004,0c0.001,0,0.001,0,0.001,0c0.002,0,0.004,0,0.006,0l0.001,0c0.002,0,0.004,0,0.006,0
			c0,0,0.001,0,0.001,0c0.002,0,0.003,0,0.004,0c0.001,0,0.001,0,0.002,0c0.001,0,0.002,0,0.003,0c0,0,0.001,0,0.002,0
			c0.001,0,0.002,0,0.004,0c0.001,0,0.001,0,0.001,0c0.002,0,0.004,0,0.005,0c0,0,0.001,0,0.001,0c0.002,0,0.004,0,0.005,0
			c0.001,0,0.001,0,0.002,0c0.001,0,0.003,0,0.004,0c0.001,0,0.001,0,0.002,0c0.001,0,0.002,0,0.004,0c0,0,0.001,0,0.002,0
			c0.001,0,0.003,0,0.004,0c0.001,0,0.001,0,0.001,0c0.002,0,0.004,0,0.005,0c0,0,0.001,0,0.001,0c0.002,0,0.004,0,0.006,0
			c0,0,0.001,0,0.001,0c0.002,0,0.003,0,0.005,0c0,0,0.001,0,0.002,0c0.001,0,0.002,0,0.004,0c0.001,0,0.001,0,0.001,0
			c0.002,0,0.003,0,0.005,0c0.001,0,0.001,0,0.002,0c0.001,0,0.003,0,0.004,0c0,0,0.001,0,0.001,0c0.002,0,0.004,0,0.006,0l0.001,0
			c0.001,0,0.003,0,0.004,0c0,0,0.001,0,0.002,0c0.001,0,0.002,0,0.003,0c0.001,0,0.002,0,0.002,0c0.002,0,0.003,0,0.004,0
			c0,0,0.001,0,0.002,0c0.001,0,0.003,0,0.004,0c0,0,0.001,0,0.001,0c0.002,0,0.004,0,0.006,0l0.001,0c0.001,0,0.003,0,0.004,0
			c0.001,0,0.001,0,0.001,0c0.002,0,0.003,0,0.005,0c0.001,0,0.001,0,0.002,0c0.001,0,0.003,0,0.004,0c0,0,0.001,0,0.002,0
			c0.001,0,0.003,0,0.004,0l0.001,0c0.002,0,0.004,0,0.005,0c0,0,0.001,0,0.001,0c0.001,0,0.003,0,0.004,0c0.001,0,0.001,0,0.002,0
			c0.001,0,0.003,0,0.004,0c0,0,0.001,0,0.002,0c0.001,0,0.003,0,0.004,0l0.002,0c0.001,0,0.003,0,0.004,0c0,0,0.001,0,0.001,0
			c0.002,0,0.004,0,0.006,0c0,0,0,0,0,0c0.002,0,0.004,0,0.005,0c0.001,0,0.001,0,0.002,0c0.001,0,0.002,0,0.004,0
			c0.001,0,0.001,0,0.002,0c0.001,0,0.002,0,0.003,0c0.001,0,0.002,0,0.003,0c0.001,0,0.002,0,0.003,0c0,0,0.001,0,0.002,0
			c0.002,0,0.004,0,0.005,0c0.001,0,0.001,0,0.002,0c0.001,0,0.003,0,0.004,0c0,0,0.001,0,0.002,0c0.001,0,0.002,0,0.003,0
			c0.001,0,0.002,0,0.002,0c0.001,0,0.002,0,0.003,0c0,0,0.001,0,0.002,0c0.001,0,0.003,0,0.004,0c0,0,0.001,0,0.001,0
			c0.002,0,0.004,0,0.006,0c0,0,0.001,0,0.002,0c0.001,0,0.002,0,0.003,0c0.001,0,0.002,0,0.002,0c0.002,0,0.003,0,0.004,0
			c0,0,0.001,0,0.002,0c0.001,0,0.002,0,0.003,0c0.001,0,0.001,0,0.001,0c0.002,0,0.003,0,0.004,0c0.001,0,0.001,0,0.002,0
			c0.002,0,0.004,0,0.005,0c0,0,0.001,0,0.001,0c0.002,0,0.003,0,0.005,0l0.002,0c0.001,0,0.003,0,0.004,0c0.001,0,0.001,0,0.001,0
			c0.002,0,0.003,0,0.004,0c0,0,0.002,0,0.002,0c0.001,0,0.002,0,0.004,0l0.002,0c0.002,0,0.004,0,0.005,0l0.001,0
			c0.002,0,0.003,0,0.005,0c0.001,0,0.001,0,0.001,0c0.002,0,0.003,0,0.004,0c0.001,0,0.001,0,0.002,0c0.001,0,0.002,0,0.004,0
			c0.001,0,0.001,0,0.001,0c0.002,0,0.003,0,0.005,0c0,0,0.001,0,0.002,0c0.002,0,0.004,0,0.005,0c0,0,0.001,0,0.001,0
			c0.002,0,0.003,0,0.005,0c0.001,0,0.001,0,0.002,0c0.001,0,0.002,0,0.004,0c0.001,0,0.002,0,0.002,0c0.001,0,0.002,0,0.003,0
			c0.001,0,0.002,0,0.002,0c0.001,0,0.002,0,0.004,0l0.002,0c0.002,0,0.004,0,0.005,0l0,0c0.002,0,0.003,0,0.005,0
			c0.001,0,0.001,0,0.001,0c0.002,0,0.003,0,0.004,0c0,0,0.001,0,0.002,0c0.001,0,0.002,0,0.004,0c0.001,0,0.002,0,0.002,0
			c0.001,0,0.002,0,0.003,0c0.001,0,0.001,0,0.002,0c0.001,0,0.003,0,0.004,0c0.001,0,0.001,0,0.002,0c0.001,0,0.003,0,0.004,0
			c0,0,0.001,0,0.002,0c0.001,0,0.003,0,0.004,0c0.001,0,0.002,0,0.002,0c0.002,0,0.003,0,0.004,0c0,0,0.001,0,0.002,0
			c0.001,0,0.003,0,0.004,0l0.002,0c0.004,0,0.007-0.001,0.011-0.001c0,0,0.001,0,0.001,0c0.001,0,0.003,0,0.004,0
			c0.001,0,0.001,0,0.001,0c0.002,0,0.003,0,0.004,0c0.001,0,0.001,0,0.001,0c0.002,0,0.003,0,0.005,0c0,0,0.001,0,0.001,0
			c0.004,0,0.007-0.001,0.011-0.001c0,0,0,0,0.001,0c0.002,0,0.003,0,0.005,0c0.001,0,0.001,0,0.002,0c0.001,0,0.003,0,0.004,0
			l0.002,0c0.001,0,0.003,0,0.004,0c0,0,0.001,0,0.001,0c0.002,0,0.003,0,0.005-0.001c0,0,0,0,0.001,0c0.002,0,0.004,0,0.005-0.001
			c0,0,0.001,0,0.002,0c0.001,0,0.003,0,0.004,0c0.001,0,0.001,0,0.001,0c0.002,0,0.003,0,0.005-0.001c0.001,0,0.001,0,0.002,0
			c0.001,0,0.003,0,0.004,0l0.001,0c0.002,0,0.004,0,0.005-0.001c0,0,0,0,0,0c0.002,0,0.004,0,0.006-0.001c0,0,0.001,0,0.001,0
			c0.002,0,0.003,0,0.005-0.001l0.002,0c0.001,0,0.003,0,0.004,0c0.001,0,0.001,0,0.002,0c0.001,0,0.003,0,0.004,0
			c0.001,0,0.001,0,0.002,0c0.002,0,0.003,0,0.005-0.001l0,0c0.002,0,0.004,0,0.006-0.001c0,0,0.001,0,0.001,0
			c0.001,0,0.003,0,0.004,0c0.001,0,0.001,0,0.002,0c0.001,0,0.002,0,0.004,0c0.001,0,0.001,0,0.001,0c0.002,0,0.003,0,0.004-0.001
			c0.001,0,0.001,0,0.002,0c0.001,0,0.003,0,0.004-0.001l0.001,0c0.002,0,0.004,0,0.005-0.001l0.002,0c0.001,0,0.002,0,0.003,0
			c0.001,0,0.002,0,0.002,0c0.002,0,0.003,0,0.004,0c0.001,0,0.002,0,0.002,0c0.001,0,0.002,0,0.003,0c0.001,0,0.001,0,0.002,0
			c0.001,0,0.003,0,0.005-0.001l0.001,0c0.002,0,0.004,0,0.005-0.001l0.001,0c0.001,0,0.003,0,0.004-0.001c0,0,0.001,0,0.002,0
			c0.001,0,0.003,0,0.004-0.001c0,0,0.001,0,0.002,0c0.001,0,0.003,0,0.004-0.001c0,0,0.001,0,0.001,0c0.001,0,0.003,0,0.004-0.001
			c0,0,0.001,0,0.001,0c0.002,0,0.004-0.001,0.005-0.001c0,0,0.001,0,0.001,0c0.002,0,0.003,0,0.004-0.001c0.001,0,0.001,0,0.002,0
			c0.001,0,0.002,0,0.004,0c0.001,0,0.001,0,0.002,0c0.001,0,0.002,0,0.003,0c0.001,0,0.001,0,0.002,0c0.001,0,0.003,0,0.004-0.001
			c0.001,0,0.001,0,0.001,0c0.002,0,0.004-0.001,0.005-0.001c0.001,0,0.001,0,0.001,0c0.001,0,0.003,0,0.004-0.001
			c0.001,0,0.001,0,0.001,0c0.002,0,0.003,0,0.004-0.001c0.001,0,0.001,0,0.002,0c0.001,0,0.002,0,0.003-0.001
			c0.001,0,0.001,0,0.001,0c0.002,0,0.004-0.001,0.005-0.001c0,0,0.001,0,0.001,0c0.002,0,0.004-0.001,0.006-0.001l0,0
			c0.002,0,0.003,0,0.005-0.001c0.001,0,0.001,0,0.001,0c0.002,0,0.003,0,0.004-0.001c0.001,0,0.001,0,0.002,0
			c0.001,0,0.002,0,0.004-0.001c0.001,0,0.001,0,0.002,0c0.001,0,0.003,0,0.004-0.001c0.001,0,0.001,0,0.001,0
			c0.002,0,0.004-0.001,0.005-0.001c0.001,0,0.001,0,0.001,0c0.002,0,0.003,0,0.005-0.001c0.001,0,0.001,0,0.001,0
			c0.002,0,0.003,0,0.004-0.001c0.001,0,0.001,0,0.002,0c0.001,0,0.003,0,0.004-0.001l0.002,0c0.001,0,0.003,0,0.004-0.001
			c0,0,0.001,0,0.001,0c0.002,0,0.004-0.001,0.006-0.001h0c0.002,0,0.004-0.001,0.005-0.001c0.001,0,0.001,0,0.001,0
			c0.002,0,0.003,0,0.004-0.001c0.001,0,0.001,0,0.002,0c0.001,0,0.002,0,0.004-0.001c0.001,0,0.001,0,0.002,0
			c0.001,0,0.003,0,0.004-0.001c0,0,0.001,0,0.001,0c0.002,0,0.004-0.001,0.005-0.001l0.001,0c0.001,0,0.003,0,0.004-0.001
			c0.001,0,0.001,0,0.002,0c0.001,0,0.002,0,0.004-0.001c0,0,0.001,0,0.002,0c0.001,0,0.002,0,0.004-0.001c0,0,0.001,0,0.001,0
			c0.002,0,0.003-0.001,0.005-0.001l0.001,0c0.003-0.001,0.007-0.001,0.011-0.002c0.001,0,0.001,0,0.002,0
			c0.001,0,0.002,0,0.004-0.001l0.002,0c0.001,0,0.002,0,0.004-0.001c0.001,0,0.001,0,0.002,0c0.001,0,0.003,0,0.004-0.001l0.001,0
			c0.002,0,0.004-0.001,0.005-0.001l0.001,0c0.002,0,0.003-0.001,0.005-0.001l0.001,0c0.001,0,0.003,0,0.004-0.001
			c0.001,0,0.001,0,0.001,0c0.002,0,0.003-0.001,0.004-0.001c0,0,0.001,0,0.002,0c0.001,0,0.002,0,0.003-0.001
			c0.001,0,0.001,0,0.002,0c0.002,0,0.003-0.001,0.005-0.001c0,0,0.001,0,0.001,0c0.002,0,0.003-0.001,0.005-0.001
			c0,0,0.002,0,0.002,0c0.001,0,0.002,0,0.003-0.001c0.001,0,0.001,0,0.001,0c0.002,0,0.003-0.001,0.004-0.001
			c0.001,0,0.001,0,0.001,0c0.002,0,0.003-0.001,0.004-0.001c0.001,0,0.001,0,0.002,0c0.002,0,0.003-0.001,0.005-0.001l0.001,0
			c0.002,0,0.003-0.001,0.005-0.001c0.001,0,0.001,0,0.001,0c0.002,0,0.003-0.001,0.004-0.001c0,0,0.001,0,0.002,0
			c0.001,0,0.002,0,0.003-0.001c0.001,0,0.001,0,0.001,0c0.002,0,0.003-0.001,0.004-0.001c0,0,0.001,0,0.002,0
			c0.004-0.001,0.007-0.001,0.011-0.002c0.001,0,0.001,0,0.002,0c0.001,0,0.002,0,0.004-0.001c0.001,0,0.001,0,0.001,0
			c0.002,0,0.003-0.001,0.004-0.001c0,0,0.002,0,0.002,0c0.001,0,0.002,0,0.003-0.001c0.001,0,0.001,0,0.001,0
			c0.002,0,0.003-0.001,0.005-0.001c0,0,0.001,0,0.002,0c0.001,0,0.003-0.001,0.004-0.001c0,0,0.001,0,0.002,0
			c0.001,0,0.002,0,0.004-0.001c0.001,0,0.001,0,0.002,0c0.001,0,0.002,0,0.003-0.001c0.001,0,0.001,0,0.001,0
			c0.002,0,0.003-0.001,0.004-0.001c0,0,0.001,0,0.002,0c0.004-0.001,0.007-0.001,0.011-0.002c0,0,0.001,0,0.002,0
			c0.001,0,0.003-0.001,0.004-0.001l0.002,0c0.001,0,0.002,0,0.004-0.001c0.001,0,0.001,0,0.002,0c0.001,0,0.003-0.001,0.004-0.001
			l0.001,0c0.004-0.001,0.007-0.001,0.011-0.002l0.001,0c0.001,0,0.003-0.001,0.004-0.001c0.001,0,0.001,0,0.002,0
			c0.001,0,0.002,0,0.004-0.001l0.002,0c0.001,0,0.003-0.001,0.004-0.001c0,0,0.001,0,0.001,0c0.004-0.001,0.007-0.001,0.011-0.002
			c0,0,0.001,0,0.001,0c0.001,0,0.003-0.001,0.004-0.001l0.002,0c0.001,0,0.003-0.001,0.004-0.001c0.001,0,0.001,0,0.001,0
			c0.001,0,0.003-0.001,0.004-0.001l0.001,0c0.004-0.001,0.007-0.002,0.011-0.002c0,0,0,0,0.001,0c0.002,0,0.003-0.001,0.005-0.001
			c0,0,0.001,0,0.001,0c0.001,0,0.003-0.001,0.004-0.001l0.001,0c0.001,0,0.003-0.001,0.004-0.001c0.001,0,0.001,0,0.002,0
			c0.004-0.001,0.007-0.002,0.011-0.002c0,0,0.001,0,0.001,0c0.001,0,0.003-0.001,0.004-0.001l0.001,0
			c0.001,0,0.003-0.001,0.004-0.001c0.001,0,0.001,0,0.002,0c0.001,0,0.003-0.001,0.004-0.001c0.001,0,0.001,0,0.001,0
			c0.002,0,0.003-0.001,0.005-0.001l0.001,0c0.002,0,0.003-0.001,0.005-0.001l0.002,0c0.001,0,0.002-0.001,0.004-0.001
			c0.001,0,0.001,0,0.002,0c0.001,0,0.002,0,0.003-0.001c0.001,0,0.001,0,0.002,0c0.001,0,0.002-0.001,0.004-0.001l0.002,0
			c0.004-0.001,0.007-0.002,0.011-0.002l0.001,0c0.001,0,0.003-0.001,0.004-0.001c0,0,0.001,0,0.002,0
			c0.001,0,0.002-0.001,0.004-0.001c0.001,0,0.001,0,0.001,0c0.002,0,0.003-0.001,0.004-0.001c0.001,0,0.001,0,0.002,0
			c0.002,0,0.003-0.001,0.004-0.001c0,0,0.001,0,0.001,0c0.002,0,0.003-0.001,0.005-0.001l0.001,0c0.002,0,0.003-0.001,0.004-0.001
			c0,0,0.001,0,0.001,0c0.002,0,0.003-0.001,0.004-0.001l0.002,0c0.001,0,0.002-0.001,0.004-0.001c0.001,0,0.001,0,0.002,0
			c0.002,0,0.003-0.001,0.005-0.001l0.001,0c0.002,0,0.004-0.001,0.005-0.001c0,0,0.001,0,0.001,0c0.002,0,0.003-0.001,0.004-0.001
			l0.002,0c0.001,0,0.002-0.001,0.004-0.001c0.001,0,0.001,0,0.002,0c0.001,0,0.003-0.001,0.004-0.001l0.001,0
			c0.002,0,0.003-0.001,0.004-0.001c0,0,0,0,0.001,0c0.002,0,0.003-0.001,0.005-0.001l0.001,0c0.001,0,0.003-0.001,0.004-0.001
			c0.001,0,0.001,0,0.002,0c0.001,0,0.002-0.001,0.003-0.001c0.001,0,0.001,0,0.002,0c0.001,0,0.002-0.001,0.004-0.001
			c0.001,0,0.001,0,0.001,0c0.002,0,0.004-0.001,0.005-0.001l0.001,0c0.002,0,0.003-0.001,0.005-0.001l0.002,0
			c0.001,0,0.002-0.001,0.004-0.001c0,0,0.001,0,0.002,0c0.001,0,0.002-0.001,0.003-0.001c0.001,0,0.001,0,0.002,0
			c0.001,0,0.002-0.001,0.003-0.001c0.001,0,0.001,0,0.001,0c0.002,0,0.003-0.001,0.004-0.001c0,0,0.001,0,0.002,0
			c0.002,0,0.003-0.001,0.005-0.001c0,0,0.001,0,0.001,0c0.001,0,0.003-0.001,0.004-0.001c0.001,0,0.001,0,0.002,0
			c0.001,0,0.002-0.001,0.003-0.001c0.001,0,0.001,0,0.002-0.001c0.001,0,0.002-0.001,0.003-0.001c0.001,0,0.002,0,0.002-0.001
			c0.001,0,0.002-0.001,0.003-0.001c0.001,0,0.001,0,0.002,0c0.002,0,0.003-0.001,0.005-0.001l0.002,0
			c0.001,0,0.002-0.001,0.004-0.001c0,0,0.001,0,0.002,0c0.001,0,0.002-0.001,0.003-0.001c0.001,0,0.001,0,0.002-0.001
			c0.001,0,0.002-0.001,0.003-0.001c0,0,0.001,0,0.001,0c0.002,0,0.003-0.001,0.004-0.001l0.001,0c0.002,0,0.003-0.001,0.005-0.001
			c0,0,0.001,0,0.001,0c0.001,0,0.003-0.001,0.004-0.001c0,0,0.001,0,0.002,0c0.001,0,0.002-0.001,0.003-0.001
			c0.001,0,0.001,0,0.002,0c0.001,0,0.003-0.001,0.004-0.001c0.001,0,0.001,0,0.001,0c0.002-0.001,0.004-0.001,0.005-0.001l0,0
			c0.002-0.001,0.004-0.001,0.005-0.001l0,0c0.002,0,0.003-0.001,0.005-0.001l0.001,0c0.001,0,0.002-0.001,0.004-0.001
			c0.001,0,0.001,0,0.002,0c0.001,0,0.002-0.001,0.003-0.001c0.001,0,0.001,0,0.001,0c0.002,0,0.003-0.001,0.004-0.001
			c0.001,0,0.001,0,0.001,0c0.002-0.001,0.004-0.001,0.006-0.002c0,0,0.001,0,0.001,0c0.002,0,0.003-0.001,0.005-0.001
			c0.001,0,0.001,0,0.001,0c0.002,0,0.003-0.001,0.004-0.001c0,0,0.001,0,0.002-0.001c0.001,0,0.002-0.001,0.003-0.001
			c0.001,0,0.001,0,0.002-0.001c0.001,0,0.002-0.001,0.004-0.001l0.001,0c0.002,0,0.003-0.001,0.005-0.001c0,0,0.001,0,0.001,0
			c0.002-0.001,0.003-0.001,0.004-0.001c0.001,0,0.001,0,0.002,0c0.001,0,0.002-0.001,0.003-0.001l0.002-0.001
			c0.001,0,0.002-0.001,0.003-0.001c0.001,0,0.001,0,0.002,0c0.001,0,0.003-0.001,0.004-0.001c0,0,0.001,0,0.001,0
			c0.003-0.001,0.007-0.002,0.01-0.003c0.001,0,0.001,0,0.002-0.001c0.001,0,0.002-0.001,0.003-0.001c0.001,0,0.001,0,0.001,0
			c0.002,0,0.003-0.001,0.004-0.001c0.001,0,0.002,0,0.002,0c0.002-0.001,0.003-0.001,0.004-0.001c0,0,0.001,0,0.001,0
			c0.001,0,0.003-0.001,0.004-0.001c0.001,0,0.001,0,0.002-0.001c0.001,0,0.003-0.001,0.004-0.001c0,0,0.001,0,0.002-0.001
			c0.001,0,0.002-0.001,0.003-0.001c0,0,0.001,0,0.002-0.001c0.001,0,0.002-0.001,0.003-0.001c0.001,0,0.001,0,0.001,0
			c0.002-0.001,0.003-0.001,0.004-0.001c0.001,0,0.001,0,0.001,0c0.004-0.001,0.007-0.002,0.011-0.003c0,0,0.001,0,0.001,0
			c0.001,0,0.003-0.001,0.004-0.001c0,0,0.001,0,0.002,0c0.001,0,0.002-0.001,0.004-0.001c0,0,0.001,0,0.002-0.001
			c0.001,0,0.002-0.001,0.004-0.001c0,0,0.001,0,0.001,0c0.003-0.001,0.007-0.002,0.01-0.003c0.001,0,0.001,0,0.002-0.001
			c0.001,0,0.002-0.001,0.003-0.001c0.001,0,0.001,0,0.001,0c0.002-0.001,0.003-0.001,0.004-0.001c0.001,0,0.001,0,0.002-0.001
			c0.001,0,0.002-0.001,0.003-0.001c0.001,0,0.001,0,0.002-0.001c0.001,0,0.003-0.001,0.004-0.001c0.001,0,0.001,0,0.001,0
			c0.002-0.001,0.003-0.001,0.005-0.002c0,0,0.001,0,0.002-0.001c0.001,0,0.002-0.001,0.003-0.001c0,0,0.001,0,0.002-0.001
			c0.001,0,0.002-0.001,0.003-0.001c0,0,0.001,0,0.002-0.001c0.001,0,0.002-0.001,0.004-0.001c0.001,0,0.001,0,0.001,0
			c0.001,0,0.003-0.001,0.005-0.001c0,0,0,0,0,0c0.002-0.001,0.004-0.001,0.005-0.002c0,0,0.001,0,0.002,0
			c0.001,0,0.002-0.001,0.004-0.001c0.001,0,0.001,0,0.002-0.001c0.001,0,0.002-0.001,0.003-0.001c0.001,0,0.001,0,0.001,0
			c0.002-0.001,0.003-0.001,0.004-0.001l0.002-0.001c0.001,0,0.003-0.001,0.004-0.001l0.001,0c0.002-0.001,0.003-0.001,0.005-0.002
			l0.002,0c0.001,0,0.002-0.001,0.004-0.001c0.001,0,0.001,0,0.002-0.001c0,0,0.002-0.001,0.003-0.001c0,0,0.002-0.001,0.002-0.001
			c0.001,0,0.002-0.001,0.003-0.001c0,0,0.001,0,0.002-0.001c0.001,0,0.002-0.001,0.004-0.001l0.001,0
			c0.002-0.001,0.003-0.001,0.005-0.002c0,0,0.001,0,0.002-0.001c0.001,0,0.002-0.001,0.003-0.001c0.001,0,0.001,0,0.002-0.001
			c0.001,0,0.002-0.001,0.003-0.001c0.001,0,0.001,0,0.002-0.001c0.001,0,0.002-0.001,0.003-0.001c0.001,0,0.001,0,0.001,0
			c0.002-0.001,0.003-0.001,0.004-0.001l0.001,0c0.002-0.001,0.003-0.001,0.005-0.002c0,0,0.001,0,0.001,0
			c0.001,0,0.002-0.001,0.004-0.001c0.001,0,0.001,0,0.001,0c0.002-0.001,0.003-0.001,0.004-0.001c0.001,0,0.001,0,0.002-0.001
			c0.001,0,0.002-0.001,0.003-0.001l0.002-0.001c0.001,0,0.002-0.001,0.004-0.001c0.001,0,0.001,0,0.001,0
			c0.002-0.001,0.003-0.001,0.005-0.002c0,0,0.001,0,0.001,0c0.001,0,0.003-0.001,0.004-0.001c0,0,0.001,0,0.001,0
			c0.002-0.001,0.003-0.001,0.004-0.001l0.002-0.001c0.001,0,0.002-0.001,0.003-0.001c0,0,0.001,0,0.002-0.001
			c0.001,0,0.003-0.001,0.004-0.001c0,0,0.001,0,0.001,0c0.002-0.001,0.003-0.001,0.005-0.002l0.001,0
			c0.001,0,0.003-0.001,0.004-0.001c0.001,0,0.001,0,0.002-0.001c0.001,0,0.002-0.001,0.003-0.001c0.001,0,0.001-0.001,0.002-0.001
			c0.001,0,0.002-0.001,0.003-0.001c0.001,0,0.001,0,0.002-0.001c0.001,0,0.003-0.001,0.004-0.001c0.001,0,0.001,0,0.001-0.001
			c0.002-0.001,0.003-0.001,0.005-0.002c0.001,0,0.001,0,0.001,0c0.002-0.001,0.003-0.001,0.004-0.001c0.001,0,0.001,0,0.002-0.001
			c0.001,0,0.002-0.001,0.003-0.001c0.001,0,0.001,0,0.002-0.001c0.001,0,0.002-0.001,0.003-0.001c0.001,0,0.001,0,0.002-0.001
			c0.001,0,0.002-0.001,0.004-0.001l0.002-0.001c0.002-0.001,0.003-0.001,0.005-0.002c0,0,0.001,0,0.002-0.001
			c0.001,0,0.002-0.001,0.003-0.001c0.001,0,0.001,0,0.002-0.001c0.001,0,0.002-0.001,0.003-0.001c0.001,0,0.001,0,0.002-0.001
			c0.001,0,0.002-0.001,0.003-0.001c0,0,0.001,0,0.001,0c0.001-0.001,0.003-0.001,0.004-0.001c0.001,0,0.001,0,0.001,0
			c0.002-0.001,0.004-0.001,0.006-0.002c0.001,0,0.001,0,0.001,0c0.002-0.001,0.003-0.001,0.004-0.001
			c0.001,0,0.001-0.001,0.002-0.001c0.001,0,0.002-0.001,0.003-0.001c0.001,0,0.002-0.001,0.002-0.001
			c0.001,0,0.002-0.001,0.003-0.001c0.001,0,0.002-0.001,0.002-0.001c0.002-0.001,0.003-0.001,0.004-0.001
			c0.001,0,0.001,0,0.002-0.001c0.002-0.001,0.003-0.001,0.005-0.002c0.001,0,0.001,0,0.001,0c0.002-0.001,0.003-0.001,0.004-0.002
			c0.001,0,0.001,0,0.002-0.001c0.001,0,0.002-0.001,0.003-0.001c0.001,0,0.001-0.001,0.002-0.001c0.001,0,0.002-0.001,0.003-0.001
			c0.001,0,0.001,0,0.002-0.001c0.001,0,0.002-0.001,0.003-0.001c0.001,0,0.001,0,0.002-0.001c0.002-0.001,0.003-0.001,0.005-0.002
			c0.001,0,0.001,0,0.001,0c0.002-0.001,0.003-0.001,0.004-0.001c0.001,0,0.001-0.001,0.002-0.001c0.001,0,0.002-0.001,0.003-0.001
			c0.001,0,0.001,0,0.002-0.001c0.001,0,0.002-0.001,0.003-0.001c0.001,0,0.001-0.001,0.002-0.001c0.001,0,0.002-0.001,0.003-0.001
			c0.001,0,0.001,0,0.002-0.001c0.002-0.001,0.003-0.001,0.005-0.002l0.001,0c0.001,0,0.003-0.001,0.004-0.001
			c0,0,0.001,0,0.002-0.001c0.001,0,0.002-0.001,0.003-0.001c0,0,0.001-0.001,0.002-0.001c0.001,0,0.002-0.001,0.003-0.001
			c0.001,0,0.001,0,0.002-0.001c0.001,0,0.002-0.001,0.003-0.001c0.001,0,0.001,0,0.002-0.001c0.002-0.001,0.003-0.001,0.005-0.002
			c0,0,0,0,0.001,0c0.001-0.001,0.003-0.001,0.004-0.002c0.001,0,0.001,0,0.001,0c0.002-0.001,0.003-0.001,0.004-0.001
			c0.001,0,0.001,0,0.002-0.001c0.001,0,0.002-0.001,0.003-0.001c0.001,0,0.001,0,0.002-0.001c0.001,0,0.002-0.001,0.003-0.001
			c0,0,0.001,0,0.002-0.001c0.002-0.001,0.003-0.001,0.005-0.002l0,0c0.002-0.001,0.003-0.001,0.005-0.002c0.001,0,0.001,0,0.001,0
			c0.002-0.001,0.003-0.001,0.004-0.001c0.001,0,0.002-0.001,0.002-0.001c0,0,0.002-0.001,0.003-0.001
			c0.001,0,0.002-0.001,0.002-0.001c0.002-0.001,0.003-0.001,0.004-0.001l0.002-0.001c0.002-0.001,0.003-0.001,0.005-0.002
			c0,0,0.001,0,0.001,0c0.002-0.001,0.003-0.001,0.004-0.002c0.001,0,0.001-0.001,0.002-0.001c0.001,0,0.002-0.001,0.003-0.001
			c0.001,0,0.002-0.001,0.002-0.001c0.001,0,0.002-0.001,0.003-0.001c0.001,0,0.002-0.001,0.003-0.001
			c0.001,0,0.002-0.001,0.003-0.001c0.001,0,0.002-0.001,0.002-0.001c0.001,0,0.002-0.001,0.003-0.001
			c0.001-0.001,0.003-0.001,0.004-0.002c0.001,0,0.002-0.001,0.002-0.001c0,0,0.002-0.001,0.002-0.001
			c0.001,0,0.002-0.001,0.003-0.001c0,0,0.001-0.001,0.002-0.001c0.001,0,0.002-0.001,0.003-0.001c0,0,0.002-0.001,0.002-0.001
			c0.001,0,0.002-0.001,0.003-0.001c0,0,0.002-0.001,0.002-0.001c0.001-0.001,0.003-0.001,0.005-0.002l0.001,0
			c0.001-0.001,0.003-0.001,0.004-0.002c0.001,0,0.002-0.001,0.002-0.001c0.001-0.001,0.003-0.001,0.003-0.001
			c0.001,0,0.002-0.001,0.002-0.001c0.002-0.001,0.002-0.001,0.003-0.001c0.001,0,0.002-0.001,0.002-0.001
			c0.002-0.001,0.003-0.001,0.003-0.001c0.001,0,0.002-0.001,0.002-0.001c0.001,0,0.003-0.001,0.004-0.002
			c0.001,0,0.001,0,0.002-0.001c0.001-0.001,0.003-0.001,0.004-0.002c0,0,0.002-0.001,0.002-0.001c0.001,0,0.002-0.001,0.003-0.001
			c0.001,0,0.002-0.001,0.003-0.001c0.001,0,0.002-0.001,0.002-0.001c0.001,0,0.002-0.001,0.002-0.001
			c0.001,0,0.002-0.001,0.003-0.001c0.001,0,0.001-0.001,0.002-0.001c0.001,0,0.002-0.001,0.003-0.001
			c0.001,0,0.002-0.001,0.003-0.001c0.001,0,0.002-0.001,0.003-0.001c0.001,0,0.001-0.001,0.001-0.001
			c0.002-0.001,0.003-0.001,0.004-0.002c0.001,0,0.002-0.001,0.002-0.001c0.001-0.001,0.002-0.001,0.003-0.001
			c0.001,0,0.001-0.001,0.002-0.001c0.001,0,0.002-0.001,0.003-0.001c0.001,0,0.002-0.001,0.002-0.001
			c0.001,0,0.002-0.001,0.003-0.001c0.001,0,0.002-0.001,0.003-0.001c0.001-0.001,0.002-0.001,0.004-0.002
			c0.001,0,0.001-0.001,0.002-0.001c0.001,0,0.002-0.001,0.002-0.001c0.002-0.001,0.002-0.001,0.003-0.001
			c0.001,0,0.002-0.001,0.003-0.001c0.001,0,0.001-0.001,0.002-0.001c0.001,0,0.002-0.001,0.002-0.001
			c0.002-0.001,0.002-0.001,0.003-0.001c0.001,0,0.002-0.001,0.003-0.001c0,0,0.002-0.001,0.002-0.001
			c0.001-0.001,0.003-0.001,0.004-0.002c0.001,0,0.001-0.001,0.002-0.001c0.001,0,0.002-0.001,0.003-0.001
			c0.001,0,0.001-0.001,0.002-0.001c0.001,0,0.002-0.001,0.003-0.001c0,0,0.002-0.001,0.002-0.001c0.001,0,0.002-0.001,0.003-0.001
			c0,0,0.001-0.001,0.002-0.001c0.001,0,0.002-0.001,0.003-0.001c0.001,0,0.001,0,0.002-0.001c0.002-0.001,0.003-0.001,0.005-0.002
			c0.001,0,0.001-0.001,0.002-0.001c0,0,0.002-0.001,0.002-0.001c0.001,0,0.002-0.001,0.003-0.001c0,0,0.002-0.001,0.002-0.001
			c0.001,0,0.002-0.001,0.002-0.001c0.002-0.001,0.003-0.001,0.003-0.001c0.001,0,0.001-0.001,0.002-0.001
			c0.001,0,0.002-0.001,0.003-0.001c0.001,0,0.001,0,0.001-0.001c0.002-0.001,0.003-0.001,0.005-0.002l0.002-0.001
			c0.001,0,0.002-0.001,0.003-0.001c0.001,0,0.001-0.001,0.001-0.001c0.002-0.001,0.002-0.001,0.004-0.002
			c0.001,0,0.001-0.001,0.001-0.001c0.002-0.001,0.003-0.001,0.003-0.002c0.001,0,0.001-0.001,0.002-0.001
			c0.001,0,0.002-0.001,0.003-0.001c0,0,0.001,0,0.002-0.001c0.002-0.001,0.003-0.001,0.005-0.002c0,0,0.001,0,0.002-0.001
			c0.001,0,0.002-0.001,0.003-0.001c0,0,0.001-0.001,0.002-0.001c0,0,0.002-0.001,0.003-0.001l0.002-0.001
			c0.001-0.001,0.002-0.001,0.003-0.002c0.001,0,0.001,0,0.001,0c0.002-0.001,0.003-0.001,0.004-0.002l0.001,0
			c0.002-0.001,0.003-0.001,0.005-0.002c0.001,0,0.001,0,0.002-0.001c0.001,0,0.002-0.001,0.003-0.001c0,0,0.002-0.001,0.002-0.001
			c0.001,0,0.001-0.001,0.002-0.001c0.001,0,0.002-0.001,0.003-0.001c0.001,0,0.001-0.001,0.002-0.001
			c0.001,0,0.002-0.001,0.002-0.001c0.001,0,0.002-0.001,0.003-0.001c0.001,0,0.001-0.001,0.001-0.001
			c0.002-0.001,0.004-0.002,0.005-0.002c0.001,0,0.001-0.001,0.002-0.001c0.001,0,0.002-0.001,0.003-0.001
			c0.001,0,0.002-0.001,0.003-0.001c0.001,0,0.002-0.001,0.002-0.001c0.001,0,0.002-0.001,0.002-0.001
			c0.001,0,0.002-0.001,0.003-0.001c0.001,0,0.002-0.001,0.002-0.001c0,0,0.002-0.001,0.002-0.001c0.001,0,0.002-0.001,0.002-0.001
			c0.002-0.001,0.003-0.001,0.004-0.002c0.001-0.001,0.002-0.001,0.004-0.002c0.001,0,0.002-0.001,0.002-0.001
			c0.001,0,0.002-0.001,0.002-0.001c0.001,0,0.002-0.001,0.002-0.001c0.001-0.001,0.003-0.001,0.003-0.002
			c0.001,0,0.001-0.001,0.002-0.001c0.001,0,0.002-0.001,0.003-0.001l0.002-0.001c0.003-0.002,0.007-0.003,0.01-0.005
			c0.001,0,0.001-0.001,0.001-0.001c0.002-0.001,0.003-0.001,0.004-0.002c0.001,0,0.001-0.001,0.002-0.001
			c0.001,0,0.002-0.001,0.003-0.001c0,0,0.001-0.001,0.002-0.001c0.001-0.001,0.002-0.001,0.003-0.001c0,0,0.001,0,0.001-0.001
			c0.003-0.002,0.007-0.003,0.01-0.005c0.001,0,0.001-0.001,0.002-0.001c0.001,0,0.002-0.001,0.003-0.001
			c0.001,0,0.001-0.001,0.002-0.001c0.001,0,0.002-0.001,0.003-0.001c0,0,0.001-0.001,0.002-0.001c0.001,0,0.002-0.001,0.002-0.001
			c0.001,0,0.002-0.001,0.003-0.001c0.001,0,0.001-0.001,0.002-0.001c0.002-0.001,0.003-0.001,0.004-0.002
			c0.001,0,0.002-0.001,0.002-0.001c0.001,0,0.002-0.001,0.002-0.001c0.001,0,0.002-0.001,0.003-0.001c0,0,0.001-0.001,0.002-0.001
			c0.001,0,0.002-0.001,0.003-0.001c0.001,0,0.001-0.001,0.002-0.001c0.001,0,0.002-0.001,0.003-0.001
			c0.001,0,0.001-0.001,0.002-0.001c0.001,0,0.002-0.001,0.003-0.001c0,0,0.001,0,0.001-0.001c0.002-0.001,0.003-0.002,0.005-0.003
			c0.001,0,0.002-0.001,0.002-0.001c0.001,0,0.002-0.001,0.002-0.001c0.001-0.001,0.002-0.001,0.003-0.001
			c0,0,0.002-0.001,0.003-0.001c0.001,0,0.001-0.001,0.001-0.001c0.002-0.001,0.002-0.001,0.003-0.002c0,0,0.001-0.001,0.002-0.001
			c0.003-0.002,0.007-0.003,0.01-0.005c0,0,0.001-0.001,0.002-0.001c0.001,0,0.002-0.001,0.003-0.001
			c0.001,0,0.001-0.001,0.001-0.001c0.002-0.001,0.002-0.001,0.003-0.002c0.001,0,0.002-0.001,0.002-0.001
			c0.001,0,0.002-0.001,0.003-0.001c0,0,0.001-0.001,0.002-0.001c0.001-0.001,0.002-0.001,0.003-0.001c0,0,0.001,0,0.001,0
			c0.002-0.001,0.004-0.002,0.006-0.003c0.001,0,0.001-0.001,0.002-0.001c0.001,0,0.002-0.001,0.003-0.001
			c0,0,0.001-0.001,0.002-0.001c0.001-0.001,0.002-0.001,0.003-0.002l0.002-0.001c0.001,0,0.002-0.001,0.003-0.001
			c0.001,0,0.001-0.001,0.002-0.001c0.001-0.001,0.002-0.001,0.003-0.001c0,0,0.001-0.001,0.002-0.001
			c0.002-0.001,0.004-0.002,0.006-0.003c0,0,0.001,0,0.001-0.001c0.001-0.001,0.002-0.001,0.003-0.002c0,0,0.001-0.001,0.002-0.001
			c0.001,0,0.002-0.001,0.003-0.001c0.001,0,0.001-0.001,0.002-0.001c0.001,0,0.002-0.001,0.003-0.001c0,0,0.001-0.001,0.001-0.001
			c0.001-0.001,0.002-0.001,0.004-0.002c0,0,0,0,0,0c0.002-0.001,0.005-0.002,0.007-0.003c0.001,0,0.001-0.001,0.001-0.001
			c0.001-0.001,0.002-0.001,0.003-0.002c0,0,0.001-0.001,0.002-0.001c0.001,0,0.002-0.001,0.003-0.001
			c0.001,0,0.001-0.001,0.001-0.001c0.002-0.001,0.002-0.001,0.003-0.002c0.001,0,0.001-0.001,0.002-0.001
			c0.001-0.001,0.002-0.001,0.003-0.002c0,0,0.001,0,0.001-0.001c0.002-0.001,0.004-0.002,0.007-0.003c0,0,0.001,0,0.001,0
			c0.001-0.001,0.002-0.001,0.004-0.002c0,0,0.001,0,0.001-0.001c0.001,0,0.002-0.001,0.003-0.002c0,0,0.001-0.001,0.002-0.001
			c0.001-0.001,0.002-0.001,0.003-0.002c0,0,0.001,0,0.001-0.001c0.001-0.001,0.002-0.001,0.003-0.002c0,0,0,0,0.001,0
			c0.002-0.001,0.005-0.003,0.007-0.004c0,0,0,0,0.001,0c0.001-0.001,0.002-0.001,0.003-0.002c0,0,0.001,0,0.001-0.001
			c0.001-0.001,0.002-0.001,0.003-0.002c0,0,0.001,0,0.001-0.001c0.001-0.001,0.002-0.001,0.003-0.002l0.001-0.001
			c0.001-0.001,0.002-0.001,0.003-0.002c0,0,0,0,0,0c0.004-0.002,0.008-0.004,0.012-0.006c0,0,0.001,0,0.001,0
			c0.001-0.001,0.002-0.001,0.003-0.002l0.002-0.001c0.001-0.001,0.002-0.001,0.003-0.002c0,0,0.001,0,0.001-0.001
			c0.001-0.001,0.002-0.001,0.003-0.002l0.001,0c0.002-0.001,0.005-0.003,0.008-0.004l0,0c0.001-0.001,0.002-0.001,0.003-0.002
			c0,0,0.001,0,0.001,0c0.001-0.001,0.002-0.001,0.003-0.002c0,0,0.001,0,0.001-0.001c0.001-0.001,0.002-0.001,0.004-0.002l0,0
			c0.005-0.003,0.011-0.006,0.016-0.009c0,0,0,0,0,0c0.001-0.001,0.002-0.001,0.004-0.002l0.001-0.001
			c0.001-0.001,0.002-0.001,0.003-0.002c0,0,0.001,0,0.001-0.001c0.001-0.001,0.002-0.001,0.004-0.002l0,0
			c0.006-0.003,0.011-0.006,0.016-0.009l0,0c0.001-0.001,0.003-0.001,0.004-0.002l0,0c0.006-0.003,0.011-0.006,0.016-0.009l0,0
			c0.001-0.001,0.002-0.001,0.003-0.002c0,0,0.001,0,0.001,0c0.002-0.001,0.003-0.001,0.004-0.002l0.001,0
			c0.005-0.003,0.011-0.006,0.016-0.009l0.001,0c0.001-0.001,0.002-0.001,0.003-0.002c0,0,0.001,0,0.001-0.001
			c0.001-0.001,0.002-0.001,0.004-0.002l0.001,0c0.001-0.001,0.003-0.001,0.004-0.002l0,0c0.004-0.002,0.008-0.005,0.012-0.007l0,0
			c0.001-0.001,0.002-0.001,0.004-0.002c0,0,0.001,0,0.001-0.001c0.001-0.001,0.002-0.001,0.004-0.002l0,0
			c0.006-0.003,0.011-0.006,0.016-0.009l0,0c0.001-0.001,0.002-0.001,0.004-0.002c0,0,0.001,0,0.001-0.001
			c0.001-0.001,0.002-0.001,0.003-0.002c0,0,0.001,0,0.001,0c0.002-0.001,0.002-0.001,0.004-0.002c0,0,0,0,0.001,0
			c0.004-0.002,0.008-0.004,0.012-0.007l0,0c0.001-0.001,0.002-0.001,0.004-0.002c0,0,0.001,0,0.001,0
			c0.001-0.001,0.002-0.001,0.004-0.002l0,0c0.007-0.004,0.013-0.008,0.02-0.012l0.001,0c0.001-0.001,0.002-0.001,0.004-0.002
			c0,0,0,0,0,0c0.007-0.004,0.013-0.008,0.02-0.012l0.001,0c0.001-0.001,0.002-0.001,0.004-0.002l0,0
			c0.001-0.001,0.002-0.001,0.004-0.002l0,0c0.005-0.003,0.011-0.006,0.016-0.01l0,0c0.001-0.001,0.002-0.001,0.004-0.002
			c0,0,0,0,0,0c0.001-0.001,0.003-0.002,0.004-0.002l0,0c0.005-0.003,0.011-0.006,0.016-0.01c0,0,0,0,0,0
			c0.001-0.001,0.003-0.002,0.004-0.002l0,0c0.758-0.459,1.416-1.081,1.931-1.822c0.313-0.453,0.2-1.074-0.252-1.389
			C77.371,68.805,77.172,68.747,76.975,68.747L76.975,68.747z M78,57.563c-0.552,0-1,0.448-1,1v6c0,0.552,0.448,1,1,1s1-0.448,1-1
			v-6C79,58.011,78.552,57.563,78,57.563L78,57.563z M78,45.563c-0.552,0-1,0.448-1,1v6c0,0.552,0.448,1,1,1s1-0.448,1-1v-6
			C79,46.011,78.552,45.563,78,45.563L78,45.563z M78,33.563c-0.552,0-1,0.448-1,1v6c0,0.552,0.448,1,1,1s1-0.448,1-1v-6
			C79,34.011,78.552,33.563,78,33.563L78,33.563z M72.786,27h-6c-0.552,0-1,0.448-1,1s0.448,1,1,1h6l0,0
			c1.13,0,2.192,0.48,2.99,1.351c0.197,0.215,0.467,0.325,0.738,0.325c0.241,0,0.483-0.087,0.675-0.262
			c0.407-0.373,0.435-1.006,0.062-1.413c-0.14-0.153-0.287-0.299-0.441-0.437l-0.001-0.001c-0.001-0.001-0.002-0.002-0.003-0.003
			c0,0-0.001-0.001-0.001-0.001c-0.001-0.001-0.002-0.001-0.002-0.002c0,0-0.001-0.001-0.001-0.001
			c-0.001-0.001-0.002-0.002-0.003-0.003c0,0,0,0-0.001-0.001c-0.001-0.001-0.002-0.002-0.003-0.003c0,0,0,0,0,0
			c-0.001-0.001-0.002-0.002-0.003-0.003c0,0-0.001-0.001-0.001-0.001c-0.001-0.001-0.002-0.002-0.003-0.003
			c0,0-0.001,0-0.001-0.001c-0.001-0.001-0.002-0.001-0.003-0.002c0,0-0.001-0.001-0.001-0.001
			c-0.001-0.001-0.002-0.001-0.003-0.002l-0.001-0.001c-0.001-0.001-0.001-0.001-0.002-0.002c-0.001-0.001-0.001-0.001-0.002-0.001
			c-0.001-0.001-0.001-0.001-0.001-0.001c-0.001-0.001-0.002-0.001-0.002-0.002c0,0-0.002-0.001-0.002-0.002
			c0,0-0.001-0.001-0.001-0.001c-0.001-0.001-0.002-0.001-0.003-0.002c0,0-0.001-0.001-0.001-0.001
			c-0.001-0.001-0.002-0.001-0.002-0.002c0,0-0.001-0.001-0.001-0.001c-0.001-0.001-0.001-0.001-0.002-0.002
			c0,0-0.001-0.001-0.001-0.001c-0.001-0.001-0.002-0.002-0.002-0.002c-0.001-0.001-0.002-0.001-0.002-0.002
			c-0.001-0.001-0.002-0.001-0.002-0.002c0,0-0.001-0.001-0.001-0.001c-0.001-0.001-0.001-0.001-0.002-0.002
			c-0.001-0.001-0.001-0.001-0.001-0.001c-0.001-0.001-0.002-0.002-0.003-0.002c0,0-0.001-0.001-0.001-0.001
			c-0.001-0.001-0.001-0.001-0.002-0.002l-0.001-0.001c-0.001-0.001-0.002-0.001-0.002-0.002c0,0-0.001-0.001-0.001-0.001
			c-0.001-0.001-0.002-0.002-0.003-0.002c-0.001-0.001-0.001-0.001-0.002-0.001c0,0-0.001-0.001-0.002-0.002l-0.002-0.001
			c-0.001-0.001-0.001-0.001-0.002-0.002c-0.001-0.001-0.001-0.001-0.002-0.002c-0.001-0.001-0.001-0.001-0.002-0.002
			c-0.001-0.001-0.001-0.001-0.002-0.002c0,0-0.001-0.001-0.001-0.001c-0.001-0.001-0.002-0.001-0.002-0.002l-0.001-0.001
			c-0.001-0.001-0.001-0.001-0.002-0.002c-0.001,0-0.001-0.001-0.001-0.001c-0.001-0.001-0.001-0.001-0.002-0.002l-0.001-0.001
			c-0.001-0.001-0.002-0.001-0.002-0.002c0,0-0.001-0.001-0.001-0.001c-0.001-0.001-0.002-0.001-0.003-0.002c0,0-0.001,0-0.001,0
			c-0.001-0.001-0.002-0.002-0.003-0.003c0,0,0,0-0.001,0c-0.001-0.001-0.002-0.002-0.003-0.003l-0.001-0.001
			c-0.001-0.001-0.002-0.002-0.003-0.003l0,0c-0.001-0.001-0.002-0.002-0.003-0.003l0,0c-0.001-0.001-0.002-0.002-0.003-0.003l0,0
			c-0.001-0.001-0.002-0.002-0.003-0.003c0,0,0,0-0.001-0.001c-0.019-0.016-0.038-0.032-0.058-0.049l0,0
			c-0.001-0.001-0.002-0.002-0.004-0.003l0,0c-0.004-0.003-0.007-0.006-0.011-0.009c0,0,0,0,0,0
			c-0.005-0.004-0.01-0.008-0.014-0.012c0,0,0,0,0,0c-0.01-0.008-0.02-0.016-0.03-0.024l0,0c-0.77-0.625-1.683-1.063-2.678-1.251
			l0,0c-0.003-0.001-0.006-0.001-0.01-0.002l0,0c-0.006-0.001-0.013-0.002-0.019-0.004l0,0c-0.003-0.001-0.006-0.001-0.01-0.002l0,0
			c-0.003-0.001-0.006-0.001-0.01-0.002l0,0c-0.01-0.002-0.019-0.003-0.029-0.005l0,0c-0.003-0.001-0.006-0.001-0.009-0.002l0,0
			c-0.04-0.007-0.08-0.013-0.12-0.02l0,0c-0.002,0-0.003,0-0.005-0.001l0,0c-0.002,0-0.003,0-0.005-0.001l0,0
			c-0.001,0-0.003,0-0.004-0.001l-0.001,0c-0.001,0-0.003,0-0.004-0.001c0,0-0.001,0-0.001,0c-0.001,0-0.002,0-0.004-0.001
			c0,0-0.001,0-0.001,0c-0.001,0-0.003,0-0.004-0.001l-0.001,0c-0.001,0-0.003,0-0.004-0.001c0,0-0.001,0-0.001,0
			c-0.002,0-0.003,0-0.004-0.001l-0.001,0c-0.001,0-0.003,0-0.004-0.001l-0.001,0c-0.001,0-0.003,0-0.004-0.001l-0.001,0
			c-0.001,0-0.003,0-0.004-0.001c0,0-0.001,0-0.001,0c-0.001,0-0.003,0-0.004-0.001c0,0-0.001,0-0.001,0
			c-0.001,0-0.002,0-0.004-0.001c-0.001,0-0.001,0-0.001,0c-0.001,0-0.003,0-0.004-0.001c0,0-0.001,0-0.001,0
			c-0.002,0-0.003,0-0.004-0.001c0,0-0.001,0-0.001,0c-0.002,0-0.003,0-0.004-0.001l-0.001,0c-0.001,0-0.003,0-0.004-0.001l-0.001,0
			c-0.001,0-0.003,0-0.004-0.001l-0.001,0c-0.001,0-0.003,0-0.004-0.001l-0.001,0c-0.001,0-0.002,0-0.003,0
			c-0.001,0-0.001,0-0.001,0c-0.002,0-0.003,0-0.004,0c-0.001,0-0.001,0-0.002,0c-0.001,0-0.002,0-0.003,0c0,0-0.001,0-0.001,0
			c-0.001,0-0.002,0-0.004,0c0,0-0.001,0-0.001,0c-0.001,0-0.002,0-0.004,0c0,0-0.001,0-0.001,0c-0.002,0-0.003,0-0.004-0.001
			l-0.001,0c-0.001,0-0.003,0-0.004-0.001l0,0c-0.002,0-0.003,0-0.005-0.001l0,0c-0.001,0-0.003,0-0.004-0.001l0,0
			c-0.001,0-0.003,0-0.004-0.001c0,0-0.001,0-0.001,0c-0.019-0.002-0.038-0.005-0.057-0.007l0,0c-0.003,0-0.006-0.001-0.009-0.001
			l-0.001,0c-0.001,0-0.003,0-0.004,0c0,0,0,0,0,0c-0.002,0-0.003,0-0.004,0l-0.001,0c-0.001,0-0.002,0-0.004,0l-0.001,0
			c-0.001,0-0.003,0-0.004,0c0,0-0.001,0-0.001,0c-0.001,0-0.003,0-0.004,0c0,0,0,0-0.001,0c-0.001,0-0.003,0-0.004,0
			c0,0-0.001,0-0.001,0c-0.001,0-0.003,0-0.004,0c0,0-0.001,0-0.001,0c-0.001,0-0.002,0-0.004,0c0,0-0.001,0-0.001,0
			c-0.001,0-0.002,0-0.003,0c0,0-0.001,0-0.002,0c-0.001,0-0.002,0-0.003,0c0,0-0.001,0-0.002,0c-0.001,0-0.002,0-0.003,0
			c-0.001,0-0.001,0-0.001,0c-0.002,0-0.003,0-0.004,0l-0.002,0c-0.001,0-0.002,0-0.003,0l-0.002,0c-0.001,0-0.002,0-0.003,0
			l-0.002,0c-0.001,0-0.002,0-0.003,0l-0.002,0c-0.001,0-0.002,0-0.003,0c-0.001,0-0.001,0-0.001,0c-0.002,0-0.002,0-0.004,0
			c-0.001,0-0.001,0-0.002,0c-0.001,0-0.002,0-0.003,0c-0.001,0-0.001,0-0.001,0c-0.002,0-0.003,0-0.004,0c-0.001,0-0.001,0-0.002,0
			c-0.001,0-0.002,0-0.003,0c-0.001,0-0.001,0-0.002,0c-0.001,0-0.002,0-0.003,0c-0.001,0-0.001,0-0.002,0c-0.001,0-0.002,0-0.003,0
			c-0.001,0-0.001,0-0.002,0c-0.001,0-0.002,0-0.003,0c-0.001,0-0.001,0-0.002,0c-0.001,0-0.002,0-0.003,0c-0.001,0-0.001,0-0.002,0
			c-0.001,0-0.002,0-0.003,0c-0.001,0-0.001,0-0.002,0c-0.001,0-0.002,0-0.003,0c-0.001,0-0.001,0-0.002,0c-0.001,0-0.002,0-0.003,0
			c0,0-0.001,0-0.002,0c-0.001,0-0.002,0-0.003,0c0,0-0.001,0-0.002,0c-0.001,0-0.002,0-0.003,0c0,0-0.001,0-0.002,0
			c-0.001,0-0.002,0-0.003,0l-0.002,0c-0.001,0-0.002,0-0.003,0l-0.001,0c-0.001,0-0.002,0-0.004,0c0,0-0.001,0-0.001,0
			c-0.001,0-0.003,0-0.004,0c0,0-0.001,0-0.001,0c-0.001,0-0.003,0-0.004,0l-0.001,0c-0.001,0-0.002,0-0.004,0c0,0-0.001,0-0.001,0
			c-0.001,0-0.003,0-0.004,0l-0.001,0c-0.001,0-0.003,0-0.004,0l0,0c-0.013-0.001-0.025-0.002-0.038-0.003l-0.002,0
			c-0.001,0-0.002,0-0.003,0c-0.001,0-0.001,0-0.002,0c-0.001,0-0.002,0-0.003,0c-0.001,0-0.001,0-0.002,0c-0.001,0-0.002,0-0.003,0
			l-0.001,0c-0.001,0-0.002,0-0.003,0c-0.001,0-0.001,0-0.002,0c-0.001,0-0.002,0-0.003,0c-0.001,0-0.001,0-0.002,0
			c-0.001,0-0.002,0-0.003,0c-0.001,0-0.001,0-0.002,0c-0.001,0-0.002,0-0.003,0c-0.001,0-0.001,0-0.002,0c-0.001,0-0.002,0-0.003,0
			c-0.001,0-0.001,0-0.002,0c-0.001,0-0.002,0-0.003,0c-0.001,0-0.001,0-0.002,0c-0.001,0-0.002,0-0.003,0c-0.001,0-0.001,0-0.002,0
			c-0.001,0-0.002,0-0.003,0c-0.001,0-0.001,0-0.002,0c-0.001,0-0.002,0-0.003,0c-0.001,0-0.001,0-0.002,0c-0.001,0-0.002,0-0.003,0
			c0,0-0.002,0-0.002,0c-0.001,0-0.002,0-0.003,0c0,0-0.001,0-0.002,0c-0.001,0-0.002,0-0.003,0c0,0-0.001,0-0.002,0
			c-0.001,0-0.002,0-0.003,0c-0.001,0-0.001,0-0.002,0c-0.001,0-0.002,0-0.003,0c0,0-0.002,0-0.002,0c-0.001,0-0.002,0-0.003,0
			c0,0-0.002,0-0.002,0c-0.001,0-0.002,0-0.003,0c-0.001,0-0.002,0-0.002,0c-0.001,0-0.002,0-0.003,0c0,0-0.002,0-0.002,0
			c-0.001,0-0.002,0-0.002,0c0,0-0.002,0-0.003,0c-0.001,0-0.002,0-0.002,0c0,0-0.002,0-0.003,0c-0.001,0-0.002,0-0.002,0
			c0,0-0.002,0-0.002,0c-0.001,0-0.002,0-0.003,0c0,0-0.002,0-0.002,0c-0.001,0-0.002,0-0.002,0c0,0-0.002,0-0.002,0
			c-0.001,0-0.002,0-0.003,0c-0.001,0-0.001,0-0.002,0c-0.001,0-0.002,0-0.003,0c-0.001,0-0.001,0-0.002,0c-0.001,0-0.002,0-0.003,0
			c-0.001,0-0.001,0-0.002,0c-0.001,0-0.002,0-0.003,0c-0.001,0-0.002,0-0.003,0c-0.001,0-0.002,0-0.003,0c0,0-0.001,0-0.002,0
			c-0.001,0-0.002,0-0.003,0c0,0-0.002,0-0.002,0c-0.001,0-0.002,0-0.003,0c-0.001,0-0.002,0-0.002,0c-0.001,0-0.002,0-0.003,0
			c-0.001,0-0.002,0-0.002,0c-0.001,0-0.002,0-0.003,0c-0.001,0-0.001,0-0.002,0c-0.001,0-0.002,0-0.003,0c0,0-0.001,0-0.002,0
			c-0.001,0-0.002,0-0.003,0c-0.001,0-0.001,0-0.002,0c-0.001,0-0.002,0-0.003,0c-0.001,0-0.002,0-0.002,0c-0.002,0-0.002,0-0.003,0
			c-0.001,0-0.002,0-0.002,0c-0.001,0-0.002,0-0.003,0c-0.001,0-0.002,0-0.002,0c-0.002,0-0.002,0-0.003,0c-0.001,0-0.002,0-0.002,0
			c-0.002,0-0.003,0-0.003,0c-0.001,0-0.002,0-0.002,0c-0.001,0-0.002,0-0.003,0l-0.001,0c-0.001,0-0.003,0-0.004,0
			c-0.001,0-0.001,0-0.002,0c-0.002,0-0.004,0-0.006,0c-0.003,0-0.005,0-0.007,0c-0.001,0-0.001,0-0.001,0c-0.002,0-0.003,0-0.004,0
			c0,0-0.001,0-0.001,0c-0.001,0-0.002,0-0.004,0c-0.001,0-0.001,0-0.002,0c-0.001,0-0.002,0-0.003,0c0,0-0.001,0-0.002,0
			c-0.001,0-0.002,0-0.003,0c-0.001,0-0.001,0-0.002,0c-0.001,0-0.002,0-0.003,0c-0.001,0-0.001,0-0.001,0c-0.002,0-0.003,0-0.004,0
			c-0.001,0-0.001,0-0.001,0c-0.002,0-0.003,0-0.004,0l-0.002,0c-0.001,0-0.002,0-0.003,0c-0.001,0-0.002,0-0.002,0
			c-0.001,0-0.002,0-0.003,0c0,0-0.002,0-0.002,0c-0.001,0-0.002,0-0.003,0c0,0-0.001,0-0.002,0c-0.001,0-0.002,0-0.003,0
			c-0.001,0-0.001,0-0.002,0c-0.001,0-0.002,0-0.003,0c-0.001,0-0.001,0-0.002,0c-0.001,0-0.002,0-0.003,0c-0.001,0-0.001,0-0.002,0
			c-0.001,0-0.002,0-0.003,0c-0.001,0-0.002,0-0.002,0c-0.001,0-0.002,0-0.003,0c-0.001,0-0.002,0-0.002,0c-0.001,0-0.002,0-0.003,0
			c0,0-0.002,0-0.002,0c-0.001,0-0.002,0-0.003,0c-0.001,0-0.002,0-0.002,0c-0.001,0-0.002,0-0.003,0c-0.001,0-0.002,0-0.002,0
			c-0.002,0-0.002,0-0.003,0c-0.001,0-0.001,0-0.001,0c-0.002,0-0.003,0-0.004,0c-0.001,0-0.001,0-0.001,0c-0.002,0-0.003,0-0.004,0
			c-0.001,0-0.001,0-0.001,0c-0.002,0-0.003,0-0.004,0c-0.001,0-0.002,0-0.002,0c0,0-0.002,0-0.003,0c-0.001,0-0.001,0-0.002,0
			l-0.003,0c-0.001,0-0.001,0-0.002,0c-0.001,0-0.002,0-0.002,0c-0.002,0-0.003,0-0.003,0c-0.001,0-0.002,0-0.003,0
			c-0.001,0-0.002,0-0.002,0c-0.001,0-0.002,0-0.003,0c0,0-0.002,0-0.002,0c-0.001,0-0.002,0-0.002,0c-0.002,0-0.003,0-0.003,0
			c-0.001,0-0.002,0-0.003,0c0,0-0.002,0-0.002,0c-0.001,0-0.002,0-0.003,0c-0.001,0-0.002,0-0.002,0c-0.001,0-0.002,0-0.003,0
			c-0.001,0-0.002,0-0.002,0c-0.001,0-0.002,0-0.003,0c-0.001,0-0.002,0-0.002,0c-0.001,0-0.002,0-0.003,0c-0.001,0-0.002,0-0.002,0
			c-0.001,0-0.002,0-0.003,0c-0.001,0-0.002,0-0.002,0c-0.002,0-0.003,0-0.003,0c-0.001,0-0.002,0-0.002,0c-0.002,0-0.002,0-0.003,0
			c-0.001,0-0.002,0-0.003,0c0,0-0.002,0-0.003,0c-0.001,0-0.002,0-0.003,0c0,0-0.002,0-0.003,0c-0.001,0-0.002,0-0.002,0
			c-0.001,0-0.002,0-0.003,0c0,0-0.001,0-0.002,0c-0.001,0-0.002,0-0.002,0c-0.002,0-0.003,0-0.003,0c-0.001,0-0.002,0-0.003,0
			c-0.001,0-0.001,0-0.002,0c-0.001,0-0.002,0-0.003,0c-0.001,0-0.001,0-0.002,0c-0.001,0-0.002,0-0.003,0c-0.001,0-0.001,0-0.002,0
			c-0.001,0-0.002,0-0.003,0c0,0-0.002,0-0.003,0c-0.001,0-0.001,0-0.001,0c-0.002,0-0.003,0-0.004,0C72.789,27,72.787,27,72.786,27
			L72.786,27L72.786,27z"/>
	</g>
</g>
</svg>
