<?xml version="1.0" encoding="utf-8"?>
<!-- Generator: Adobe Illustrator 20.0.0, SVG Export Plug-In . SVG Version: 6.00 Build 0)  -->
<svg version="1.1" id="Слой_1" xmlns="http://www.w3.org/2000/svg" xmlns:xlink="http://www.w3.org/1999/xlink" x="0px" y="0px"
	 viewBox="0 0 100 100" enable-background="new 0 0 100 100" xml:space="preserve">
<g>
	<path fill-rule="evenodd" clip-rule="evenodd" fill="#616261" d="M32,53h36v2H32V53z"/>
	<path fill-rule="evenodd" clip-rule="evenodd" fill="#616261" d="M32,39h36v2H32V39z"/>
	<g>
		<path fill="#616261" d="M72.895,29C75.158,29,77,30.794,77,33v28c0,2.206-1.842,4-4.105,4H57.662h-0.829l-0.586,0.586
			l-4.818,4.819c-0.382,0.382-0.889,0.592-1.429,0.592c-0.54,0-1.048-0.21-1.429-0.591l-4.819-4.819L43.167,65h-0.829H27.105
			C24.842,65,23,63.206,23,61V33c0-2.206,1.842-4,4.105-4H72.895 M72.895,27H27.105C23.733,27,21,29.686,21,33v28
			c0,3.314,2.733,6,6.105,6h15.233l4.819,4.819c0.785,0.785,1.814,1.177,2.843,1.177s2.058-0.392,2.843-1.177L57.662,67h15.233
			C76.267,67,79,64.314,79,61V33C79,29.686,76.267,27,72.895,27L72.895,27z"/>
	</g>
</g>
</svg>
