<?xml version="1.0" encoding="utf-8"?>
<!-- Generator: Adobe Illustrator 20.0.0, SVG Export Plug-In . SVG Version: 6.00 Build 0)  -->
<svg version="1.1" id="Слой_1" xmlns="http://www.w3.org/2000/svg" xmlns:xlink="http://www.w3.org/1999/xlink" x="0px" y="0px"
	 viewBox="0 0 100 100" enable-background="new 0 0 100 100" xml:space="preserve">
<path fill="#616261" d="M76,61.267V67c0,2.206-1.794,4-4,4H28c-2.206,0-4-1.794-4-4V53c0-2.206,1.794-4,4-4h31.733l2-2H28
	c-3.314,0-6,2.686-6,6v14c0,3.314,2.686,6,6,6h44c3.314,0,6-2.686,6-6v-7.733L76,61.267z"/>
<g>
	<path fill="#616261" d="M89.08,29c1.425,0,2.77,0.494,3.598,1.322c1.748,1.749,1.749,5.448,0,7.196L68.619,61.576
		c-1.063,1.063-5.711,2.288-10.246,3.05c0.762-4.535,1.987-9.183,3.05-10.246l24.058-24.058C86.31,29.494,87.655,29,89.08,29
		 M89.08,27c-1.87,0-3.74,0.636-5.012,1.908L60.01,52.966C57.465,55.511,56,67,56,67s11.489-1.465,14.034-4.01l24.058-24.058
		c2.544-2.544,2.544-7.479,0-10.024C92.819,27.636,90.949,27,89.08,27L89.08,27z"/>
</g>
<path fill-rule="evenodd" clip-rule="evenodd" fill="#616261" d="M80.5,34.5l7.586-6.862c0,0,3.074,1.074,5.08,3.081
	C95.045,32.598,95.5,36.5,95.5,36.5l-6,7L80.5,34.5z"/>
<path fill-rule="evenodd" clip-rule="evenodd" fill="#616261" d="M30,52h2V68h-2V52z"/>
</svg>
