<?xml version="1.0" encoding="utf-8"?>
<!-- Generator: Adobe Illustrator 19.2.1, SVG Export Plug-In . SVG Version: 6.00 Build 0)  -->
<svg version="1.1" id="Layer_1" xmlns="http://www.w3.org/2000/svg" xmlns:xlink="http://www.w3.org/1999/xlink" x="0px" y="0px"
	 viewBox="0 0 481.9 243.8" style="enable-background:new 0 0 481.9 243.8;" xml:space="preserve">
<style type="text/css">
	.st0{fill-rule:evenodd;clip-rule:evenodd;fill:#898989;}
</style>
<path class="st0" d="M64.4,151.2H48.7v-19.8c0-4-1.8-7-4.9-7.1c-3.1-0.1-5.2,3.3-5.2,6.8v20.2H22.7v-18.1c0-5.5,1.6-10.2,4.3-13.8
	c3-4,8.7-7.7,15.4-8.1c6.6-0.4,11.4,2.2,15.2,5.4c3.5,3,6.9,8.6,6.9,13.6C64.4,135.1,64.4,151.2,64.4,151.2z M226.1,103.1
	c0-2.4,0.3-4.9-0.2-6.7c-0.7-2.2-2.7-4.3-4.6-5.1c-4.8-2-9.2,1.2-10.5,4.3c-0.8,2-0.5,4.9-0.5,7.9c0,15.4,0,33,0,47.6
	c5.3,0,10.5,0,15.8,0C226.1,136.2,226.1,118.6,226.1,103.1z M277,118.8c-2.3,2.9-4.5,6.9-4.8,11.6c-0.5,7.8,2.5,12.8,6,16.4
	c3,3.1,7.5,5.8,12.8,6.2c6.5,0.5,11.2-1.7,15-4.6c3.6-2.7,6.6-7.3,7.5-12.2c0.5-2.9,0.4-9.5,0.4-9.5s0-25.8,0-28.7s-2.5-5.5-5.2-6.5
	c-5-1.9-11.1,1.9-10.8,7.7c0.1,3.2,0.1,12.7,0.1,12.7C288.5,109.5,281.1,113.7,277,118.8z M292.5,122.7c3.5-0.6,5.3,4.1,5.5,7.8
	c0.4,4.9-1.3,10.4-4.3,11c-4.1,0.7-6.1-5.4-5.8-10.3C288.1,127.6,289.5,123.2,292.5,122.7z M166.8,122.5c2.8-4.8-1.1-9.9-4.2-11.1
	c-0.8-0.3-2.3-0.7-3.8-0.5c-4.1,0.4-5.9,3.6-7.5,6.5c-1.6,2.8-5.7,10-5.7,10s0-6.1,0-9.1s-2.6-7.2-8.2-7.2c-4.5,0-7.7,4-7.7,8
	c0,4.7,0,10.4,0,16c0,5.8,0,16.1,0,16.1h15.9v-12.6l8.4,12.6h12.4c3.4,0,3.7-2.9,2.4-5c-2.4-3.7-8.4-12.5-8.4-12.5
	S164.1,127.3,166.8,122.5z M114.2,112.7c-8.3-3.5-17.5-0.5-22.4,4.4c-3.4,3.4-5.8,7.9-6.2,13.2c-0.5,7.4,2.1,12.3,6,16.4
	c3.2,3.2,7.4,5.8,12.7,6.2c5.2,0.4,9-0.8,12.3-2.6c4.1-2.3,7.1-5.7,8.9-9.9c0.8-1.8,1.5-3.8,1.7-6.4h-15.9c-0.4,3.4-1.8,7.5-4.9,7.5
	c-3.1,0-4.8-4.7-5.1-8.6c-0.2-3,0.6-6.4,1.7-8.1c0.6-1,1.9-2.2,3.3-2.2c1.7,0,2.9,1.4,3.6,2.7c0.8,1.4,1.2,3,1.4,4.8h15.9
	C126.2,121.6,121.2,115.7,114.2,112.7z M202.9,117.3c-3.4-3.6-8.9-6.6-16-6.2c-9.1,0.6-15.3,6.4-18,13.1c-1.6,4-2.1,8.7-1,13.1
	c1.2,4.6,4.2,8.7,7.4,11.2c2.8,2.2,7,4.1,11.3,4.4c4.7,0.3,7.9-0.7,11.1-2.3c5.7-2.9,8.6-6.8,10-14.2c-4.7,0-9.4,0-14,0
	c-1.3,2.1-2.7,5.1-5.7,4.9c-3.1-0.2-4.2-4.4-4.7-7.1c8.2,0,16.4,0,24.6,0C208.7,126.7,206.7,121.1,202.9,117.3z M192.8,128.3h-9.2
	c0.3-3.4,3.7-7.8,6.9-4.9C191.6,124.4,192.5,126.4,192.8,128.3z M240.3,113.2c-2.2,1.1-4.1,2.4-5.7,3.9c-3.2,3.2-5.8,7.4-6.2,12.9
	c-0.6,8.1,2.7,13.6,6.8,17.4c3.9,3.6,9.1,5.6,14.9,5.4c5.8-0.2,10.5-2.7,14-6.3c3.2-3.3,6-8.2,6-14.4c0-6.7-2.9-11.9-6.4-15.2
	c-3.5-3.3-8.9-6.3-15.8-5.8C244.8,111.5,242.5,112.1,240.3,113.2z M248.6,122.7c4.3-0.9,6,5.8,5.7,10.7c-0.3,3.8-2,7.6-4.3,8
	c-0.4,0.1-1.1,0-1.4,0c-3.1-0.5-4.7-6.1-4.4-10.6c0.2-3.2,1.3-6.1,2.8-7.4C247.4,123.2,248,122.8,248.6,122.7z M345.6,113.1
	c-2.8-1.3-6.2-2.2-10.1-2c-5.8,0.4-9.9,2.8-13.3,6.2c-4,4-6.7,9.1-6.2,16.8c0.6,8.3,6.4,14.7,12.9,17.4c4.1,1.7,8.8,1.9,13.1,0.9
	c7.9-2,13.1-7.4,14.3-15.9h-14c-1.3,2.1-2.6,5.1-5.5,4.9c-3.2-0.2-4.3-4.2-4.7-7.1h24.6C357.6,123.2,352.8,116.5,345.6,113.1z
	 M341.5,128.4h-9.2c0.6-2.9,2.1-6.5,5.6-5.7C339.9,123.1,341.1,126.1,341.5,128.4z M364.3,118.2c-3,3.4-5.8,8.5-5.3,15.5
	c0.4,6,3.3,10.6,6.9,13.9c3.7,3.4,9.2,5.7,15.5,5.3c6.1-0.4,10.5-3.3,13.9-6.9c3.3-3.5,5.9-8.7,5.4-15.4c-0.2-2.9-1.1-5.6-2.3-8
	c-3.3-6.4-10.1-12.1-20-11.3C372.2,111.7,367.4,114.7,364.3,118.2z M379.4,122.7c3.4-0.6,5.2,4,5.5,7.3c0.5,4.8-1.1,10.9-4.3,11.5
	c-2,0.4-3.5-1.1-4.3-2.6c-2.5-4.4-1.6-12.9,1.4-15.4C378,123.1,378.7,122.8,379.4,122.7z M444.6,130.1c0-5-3.4-10.6-6.9-13.6
	c-3.8-3.2-8.5-5.8-15.2-5.4c-6.7,0.4-12.4,4.1-15.4,8.1c-2.8,3.6-4.3,8.3-4.3,13.8v18.1h15.9V131c0-3.5,2.1-6.9,5.2-6.8
	c3.2,0.1,4.9,3.1,4.9,7.1v19.8h15.8C444.6,151.2,444.6,135.1,444.6,130.1z M83.3,128.7c0-2.6,0-5.3-0.3-7.5c-0.3-2.4-1.7-4-3.2-5.5
	c-1.1-1.1-2.8-2.3-2.8-3.9c0-1.4,1.5-2.7,2.6-3.8c1.1-1.2,2.5-2.2,3.2-3.3c2.4-3.7,1.4-8.4-1.2-11.2c-1.9-1.3-3.7-2.7-6.9-2.5
	c-4.5,0.4-8.3,4.1-8.1,9.2c0.2,3.9,2.4,5.4,4.4,7.5c1.1,1.1,2.8,2.7,2.7,4.2c0,1.5-1.6,2.7-2.7,3.8c-1.2,1.2-2.1,2.4-2.7,3.6
	c-1,2.3-0.9,6-0.9,9.4c0,7.4,0,15.5,0,22.5c5.3,0,10.6,0,15.9,0C83.3,143.9,83.3,136,83.3,128.7z M448.1,145.9h4.9v0.7h-2v4.6h-0.8
	v-4.6h-2V145.9z M458.4,145.9h0.8v5.3h-0.8v-4.1l-1.8,2h-0.2l-1.8-2v4.1h-0.8v-5.3h0.8l1.9,2.2L458.4,145.9z"/>
</svg>
