<?xml version="1.0" encoding="utf-8"?>
<!-- Generator: Adobe Illustrator 19.2.1, SVG Export Plug-In . SVG Version: 6.00 Build 0)  -->
<svg version="1.1" id="Layer_1" xmlns="http://www.w3.org/2000/svg" xmlns:xlink="http://www.w3.org/1999/xlink" x="0px" y="0px"
	 viewBox="0 0 481.9 243.8" style="enable-background:new 0 0 481.9 243.8;" xml:space="preserve">
<style type="text/css">
	.st0{fill:#898989;}
</style>
<g>
	<path class="st0" d="M282.1,110.3c-2-0.4-2.8,1-3.7,2.3c-1.6,2.5-2.4,5.3-2.7,8.2c-0.3,2.2-0.3,4.5,0.5,6.6c0.8,2,2.3,2.8,4.3,1.9
		c2.8-1.2,4.5-3.4,5-6.4c0.2-1.5,0.2-3.1,0.3-4.8c-0.1-1.3-0.1-2.7-0.3-4.1C285.3,112.2,283.9,110.6,282.1,110.3z"/>
	<path class="st0" d="M199.1,113.6c-0.2-1.8-1.7-3.5-3.2-3.8c-1.6-0.3-2.9,0.4-4.1,2.2c-0.2,0.3-0.4,0.6-0.5,0.9
		c-1.9,3.9-2.5,8-2,12.3c0.5,4,2.9,5.1,6.4,3c0.5-0.3,0.9-0.6,1.3-1c2.1-1.9,3-4.3,2.7-7.1C199.5,117.9,199.4,115.7,199.1,113.6z"/>
	<path class="st0" d="M78,55.3l29.3,133.1L387,154.3l16.9-99H78z M166.7,108.8c-1.3,1.7-3,3.1-4.6,4.6c-0.7,0.7-1.2,1.2-1.1,2.3
		c0.3,4.6,0.5,9.3,0.9,13.9c0.2,2.7,0.5,5.3,0.8,8c0.1,1,0.5,2,1,2.9c0.6,1.2,0.5,2.3-0.7,3c-1.9,1.1-3.9,1.4-6,1
		c-1.1-0.2-1.9-0.9-2-2c-0.3-2-0.7-4-0.9-6.1c-0.5-6-0.8-11.9-1.2-17.9c0-0.1,0-0.1-0.1-0.4c-7.3,2.5-14.8,1.7-22.4,1
		c-0.2,2.4-0.5,4.8-0.7,7.1c-0.2,3-0.4,6-0.6,8.9c-0.1,1.7,0.2,3.3,1.1,4.8c0.6,1,0.4,1.7-0.7,2.2c-2.5,1.1-5,0.9-7.4-0.4
		c-1.7-1-2-2.9-2-4.7c0.1-3.3,0.5-6.7,0.8-10c0.3-3.3,0.7-6.6,1-9.9c0.1-0.6-0.1-1-0.8-1.2c-8-3.5-14.3-9-19.3-16.1
		c-0.6-0.8-1.2-1.6-1.8-2.5c-1-1.5-1.1-2.4,0-3.9c1-1.4,2.1-2.8,4-3c1.7-0.1,2.5,0.5,3,2.1c0.2,0.7,0.6,1.3,0.9,1.9
		c3.1,4.8,7,9,11.8,12.3c0.9,0.6,2,1.1,3.1,1.7c0.3-2,0.6-3.8,0.9-5.6c1.1-6.7,2.2-13.3,3.3-20c0.3-1.8,0.5-3.7,0.6-5.6
		c0.1-1.2,0.6-2,1.6-2.6c2.1-1.4,4.5-1.8,7-1.6c1.4,0.1,2.4,1.7,1.6,2.9c-2.3,3.6-2.4,7.8-3.1,11.7c-1.2,7.2-2.2,14.4-3.3,21.7
		c-0.3,1.8-0.3,1.9,1.6,2.2c6.1,1.1,12.1,1.1,18.1-0.7c1.2-0.4,1.6-0.9,1.6-2.2c-0.2-9.9-0.4-19.7-0.5-29.6c0-1.9,0.3-3.8-0.4-5.7
		c-0.5-1.2,0.2-2,1.6-2.9c1.2,0,2.4,0,3.5,0c1,0.3,2,0.6,2.9,1c1.9,0.8,2.1,1.7,1.3,3.6c-0.4,0.9-0.4,1.9-0.4,2.9
		c-0.5,8.7-0.3,17.4,0.2,26.1c0,0.2,0.1,0.4,0.4,0.8c0.8-1,1.7-2,2.4-3.1c1.1-1.7,2-1.8,3.1-0.2
		C168.3,103.9,168.4,106.7,166.7,108.8z M179.3,108.3c-0.4,3.3-1,6.7-1.3,10c-0.3,3.9-0.3,7.8-0.3,11.7c0,1.2,0.2,2.3,0.4,3.5
		c0.3,1.7-0.1,2.5-1.8,2.5c-1.6,0-3.2-0.2-4.8-0.4c-1-0.1-1.6-1-1.6-1.9c-0.1-1.6-0.1-3.1-0.2-4.7c0-2.8,0.4-15.3,0.4-18.8
		c0-0.8-0.1-1.6-0.3-2.4c-0.2-1,0.2-1.7,1.1-2.1c2.7-1,5.4-0.7,7.8,0.8C179.1,106.9,179.3,107.8,179.3,108.3z M175.3,100.8
		c-3-0.1-5.3-2.5-5.2-5.3c0.1-3.3,2.6-5.6,6-5.6c2.9,0,5.3,2.4,5.3,5.2C181.4,98.5,178.7,100.9,175.3,100.8z M208,108
		c-0.9,2.2-0.7,4.5-0.6,6.8c0.1,7.8,0.4,15.7,0.4,23.5c0,2.5-0.2,5-0.7,7.5c-0.3,1.4-1,2.9-2,4.1c-5.9,6.9-14.1,7.1-20.1,1.2
		c-1.6-1.6-3.1-3.2-3.6-5.5c-0.3-1.5-0.1-2.5,1.2-3.1c1.5-0.7,3.2-1.3,4.9-1.6c1.8-0.3,2.6,0.8,2.3,2.6c-0.1,0.6,0.1,1.6,0.5,2
		c1,1,2.1,2,3.3,2.6c2.5,1.3,5,0.2,6-2.5c0.4-1.1,0.6-2.2,0.7-3.3c0.1-3.1,0-6.3,0-9.4c-2,0.9-3.7,2-5.5,2.4
		c-6.5,1.5-13.4-3.5-13.7-10.1c-0.3-6.5,1-12.8,4.7-18.3c1.5-2.3,3.4-4.1,6.2-4.7c3.5-0.7,6.4,0.5,9,2.8c0.6,0.5,1.1,0.7,2,0.6
		c1.3-0.1,2.6,0,3.9,0.3C207.8,106.2,208.4,107.1,208,108z M237,135.1c-1.1,0.1-2.1,0.1-3.2,0c-2.1-0.1-2.8-1.2-2.5-3.3
		c0.7-5.1,0.7-10.2-0.1-15.3c-0.1-0.6-0.3-1.2-0.6-1.8c-1.1-2.4-2.9-3-5.1-1.6c-0.7,0.5-1.4,1.1-1.9,1.7c-2.2,3-3.9,6.2-3.9,10
		c0,3.1,0.1,6.3,0.2,9.4c0,0.6,0.3,1.2,0.6,1.7c0.5,0.8,0.4,1.8-0.5,1.9c-2,0.2-4,0.4-6,0.1c-1.3-0.1-1.8-1.5-1.9-2.8
		c-0.1-2.4-0.2-4.9-0.2-7.3c-0.1-8.9-0.4-17.8-0.4-26.7c0-6.1,0.2-12.2,0.3-18.3c0-1.1-0.4-2.2-0.8-3.2c-0.3-0.9,0-1.5,0.7-2
		c1.6-1.2,5.9-1.4,7.6-0.3c0.9,0.6,1.3,1.4,1.2,2.5c-0.5,8.9-1.1,17.7-1.6,26.6c-0.1,1.1,0,2.3,0,3.6c1.4-1,2.6-1.9,3.8-2.7
		c5.1-2.9,9-2.3,14.2,1.9c2.4,1.9,2.9,5,3,7.8c0.2,4.8,0.2,9.7,0.2,14.5C240.2,134.2,239.6,134.9,237,135.1z M252.6,142.6
		c-2.3,0.8-4.6,0.7-6.9-0.2c-1.1-0.5-1.7-1.4-1.7-2.7c0-9.6-0.3-47.6-0.4-57c0-0.7-0.2-1.5-0.4-2.2c-0.5-1.5,0-2.6,1.5-3
		c2.2-0.6,4.5-0.5,6.5,0.7c1.5,0.8,1.7,1.9,1.3,3.6c-0.4,2-0.6,4-0.7,6.1c-0.5,16.5-0.4,33,0.5,49.6c0.1,1,0.6,2,1.1,2.9
		C254.1,141.5,254,142.2,252.6,142.6z M263.7,133.2c-2.4,0.8-4.8,0.7-7.1-0.3c-0.4-0.2-0.8-1-0.8-1.6c-0.1-3.7-0.4-19.6-0.4-23.8
		c0-0.7-0.3-1.5-0.4-2.2c-0.2-1.3,0.2-1.9,1.5-2.2c2.3-0.5,4.5-0.1,6.6,0.7c1.7,0.7,2.1,1.4,1.8,3.2c-1.3,7-1,14-0.6,21
		c0,0.9,0.3,1.8,0.6,2.6C265.2,132,264.9,132.8,263.7,133.2z M260,98.2c-3.5,0-5.4-1.6-5.4-4.6c0-3.6,1.8-5.5,5.1-5.5
		c3.2,0,5.2,1.7,5.2,4.5C265,96,263,98.2,260,98.2z M294.6,108.7c-0.4,1-0.7,2.1-0.7,3.2c0,8.9,0,17.9,0,26.8c0,1.8-0.1,3.7-0.4,5.5
		c-0.8,5.4-4.1,8.4-9.2,9.7c-6,1.6-11.7-1.4-14.1-7.1c-0.4-0.9-0.9-1.8-1.3-2.8c-0.6-1.4-0.6-2.2,0.6-3.1c1.9-1.6,4.2-2,6.6-1.6
		c0.9,0.2,1.2,0.8,1,1.7c-0.4,2.1,0.5,4,1.6,5.6c1.7,2.4,4.9,2.2,6.3-0.4c0.5-0.8,0.9-1.8,0.9-2.8c0.1-3.1,0-6.1,0-9.4
		c-1.1,0.5-1.9,1-2.8,1.4c-2.4,1.1-5,1.3-7.4,0.2c-1.7-0.8-3.4-1.7-4.9-2.8c-2.8-2-3.8-4.9-3.7-8.2c0.2-5.8,1.6-11.3,4.4-16.3
		c3.2-5.5,10.5-6.7,15.5-2.6c0.6,0.5,1,0.6,1.8,0.4c1.8-0.5,3.5-0.1,5.1,0.8C294.8,107.3,295,107.8,294.6,108.7z M325.4,126.8
		c0,1.9-0.3,3.8-0.3,5.6c0,1.2-0.7,1.8-1.7,1.8c-2,0-3.9-0.1-5.9-0.3c-1-0.1-1.2-1-1.2-1.8c0.1-1.6,0.5-3.3,0.5-4.9
		c0.1-3.9,0.3-7.8,0.1-11.6c-0.3-3.7-2.6-4.6-5.7-2.6c-3.4,2.2-5,5.5-5.3,9.4c-0.2,3.3-0.4,6.5-0.5,9.8c0,0.6,0.2,1.2,0.4,1.8
		c0.4,1.1,0.3,1.7-0.8,2.2c-2.3,1-4.6,0.7-6.8-0.5c-0.4-0.2-0.8-0.9-0.9-1.4c-0.2-1.1-0.2-2.2-0.2-3.3c0.4-16.4,0.9-32.8,1.3-49.2
		c0-0.8-0.2-1.6-0.4-2.4c-0.4-1.7,0.2-3,2-3c2,0,4.1,0.2,6.1,0.6c1.3,0.3,1.6,1.1,1.3,2.4c-0.3,1.6-0.7,3.3-0.8,5
		c-0.5,8.3-0.9,16.6-1.4,24.7c2.1-1.1,4-2.5,6.1-3.2c6.3-2.1,12.9,2,13.7,8.6C325.7,118.7,325.4,122.8,325.4,126.8z M350.7,132
		c-2.6,2.4-5.7,2.8-8.9,2c-1.9-0.5-3.8-1.2-5.5-2.2c-2.6-1.5-3.9-3.9-3.9-6.9c0-3.6,0.2-7.2,0.3-10.8c0-0.6,0-1.2,0-1.7
		c-1.5-0.1-2.9,0-4.2-0.3c-2.1-0.5-3.4-2.6-2.9-4.7c0.1-0.4,0.8-0.8,1.2-0.9c1.5-0.3,3.1-0.4,4.7-0.5c1.1-0.1,1.7-0.4,1.8-1.7
		c0.5-4.9,1-9.8,1.6-14.8c0.2-1.9,1.1-2.8,3-3.1c1.5-0.2,3-0.2,4.5,0.4c1.8,0.8,2.1,2.3,1.5,4.1c-0.8,2.6-1.3,5.2-1.9,7.9
		c-0.4,2-0.5,4-0.8,6.1c1.6-0.1,3.1-0.1,4.6-0.3c2.2-0.3,4.2-0.2,5.6,1.8c0.4,0.6,0.8,1.2,0.9,1.9c0.3,1.6-0.2,2.3-1.9,2.4
		c-2.8,0.2-5.6,0.4-8.5,0.5c-0.9,0-1.2,0.4-1.2,1.3c-0.1,3.6-0.3,7.2-0.4,10.8c0,1.6,0.4,3,1.4,4.3c1.2,1.4,2.5,1.5,3.8,0.1
		c0.6-0.6,1.1-1.3,1.7-2c0.7-0.8,1.5-1,2.4-0.3c0.3,0.2,0.6,0.4,0.8,0.6C353,128,353.1,129.8,350.7,132z M382.7,111
		c-0.3,0.2-0.7,0.5-1,0.7c-3.5,1.6-6.5,0.5-8.1-2.9c-0.1-0.3-0.2-0.7-0.5-0.9c-0.5-0.4-1.2-0.9-1.7-0.9c-2.7,0.5-4.9,1.8-6.4,4.1
		c-0.8,1.2-0.6,2.2,0.6,3c0.9,0.6,1.9,1.2,3,1.6c2.8,1,5.6,1.8,8.4,2.7c2.5,0.8,4.7,2,5.8,4.7c0,0.9,0,1.7,0,2.6
		c-1.3,3.9-4.3,6-8.1,7c-1.5,0.4-3.2,0.7-4.8,0.7c-3.7,0.1-7.3-0.3-10.7-1.8c-1.3-0.6-2.7-1.4-3.7-2.5c-1.7-1.8-1.2-3.8,1-4.8
		c0.7-0.3,1.5-0.5,2.2-0.7c1.4-0.3,2.5,0,3.4,1.3c0.8,1.3,2.1,2,3.7,2c1.8,0.1,3.6,0,5.4,0c0.3,0,0.7-0.1,0.9-0.3
		c0.4-0.4,1.1-0.8,1.1-1.2c0-0.4-0.6-1-1-1.2c-1.5-0.6-3-1-4.5-1.5c-2.6-0.9-5.2-1.8-7.7-2.9c-4.5-2-5.1-5.7-4.1-9.8
		c0.2-0.7,0.4-1.4,0.8-1.9c3.6-4.7,7.8-8.4,14.1-8.3c5.1,0.1,10.1,2.6,11.4,8.9c0.1,0.4,0.2,0.7,0.4,1
		C382.7,110,382.7,110.5,382.7,111z"/>
</g>
</svg>
