<?xml version="1.0" encoding="utf-8"?>
<!-- Generator: Adobe Illustrator 19.2.1, SVG Export Plug-In . SVG Version: 6.00 Build 0)  -->
<svg version="1.1" id="Layer_1" xmlns="http://www.w3.org/2000/svg" xmlns:xlink="http://www.w3.org/1999/xlink" x="0px" y="0px"
	 viewBox="0 0 481.9 243.8" style="enable-background:new 0 0 481.9 243.8;" xml:space="preserve">
<style type="text/css">
	.st0{fill:#898989;}
</style>
<g>
	<path class="st0" d="M295.5,116.5c0,9.1-0.1,18.2,0.1,27.3c0.1,3-0.9,4-3.9,3.8c-3.3-0.2-6.7-0.2-10,0c-2.4,0.1-3.1-0.9-3.1-3.2
		c0.1-15,0.1-30,0-45c0-2.5,0.9-3.3,3.2-3c0.7,0.1,1.5,0,2.3,0c4.8,0.2,10.6-1.8,14.2,0.7c3.5,2.5,4.9,8.1,7.2,12.4
		c3.1,5.9,6.2,11.8,9.4,17.6c0.1,0.2,0.5,0.2,1.3,0.5c0-8.9,0.3-17.6-0.1-26.3c-0.2-4.4,1.3-5.5,5.3-5.1c3,0.3,6.1,0.2,9.1,0
		c2.5-0.1,3.1,0.9,3.1,3.2c-0.1,14.9-0.1,29.7,0,44.6c0,2.4-0.5,3.8-3.3,3.4c-0.1,0-0.3,0-0.5,0c-5.5-0.1-11.7,1.5-16.1-0.6
		c-4.5-2.2-5.5-9-8.1-13.7c-3.1-5.6-6-11.4-9-17.1C296.2,116.3,295.8,116.4,295.5,116.5z"/>
	<path class="st0" d="M123.3,120.7c5.6,1.4,10.3,3.2,10.8,10c0.8,10.8-3.8,16.4-14.7,16.7c-11.4,0.3-22.7,0.1-34.1,0.2
		c-2.4,0-3.1-0.8-3-3.2c0.1-15,0-30,0-45c0-1.5-0.4-3.1,2.1-3.1c12.7,0.4,25.5-1,38.1,1.1c8.8,1.5,12,6.7,10.1,15.4
		C131.7,116.7,131.2,117.2,123.3,120.7z M101.4,132c-0.2,3.6-1,7,5.1,6.5c7.8-0.7,8.9-1,8.9-6.8c-0.1-5.4-1.2-5.7-8.9-6.3
		C100.3,124.9,101.2,128.4,101.4,132z M106.6,116.4c0.9,0,1.5,0,2.1,0c3.8,0.2,6.4-0.7,6.4-5.4c0-4.6-2.7-5.5-6.4-5.5
		c-1.7,0-3.3,0-5,0c-0.9,0-2.1-0.2-2.2,1c-0.2,3-0.6,6.2,0.1,9C102.2,117.6,105.1,116,106.6,116.4z"/>
	<path class="st0" d="M210.5,121.6c0-3.6,0.1-7.3,0-10.9c-0.2-6.2,2.9-10.3,8.3-12.3c12.5-4.5,25.3-4.4,37.8,0.1
		c5.1,1.8,7.9,5.9,7.9,11.6c0,7.7-0.1,15.5,0.1,23.2c0.1,5.9-2.7,10.1-8,12c-12.9,4.5-25.9,4.4-38.7-0.4c-4.8-1.8-7.3-5.7-7.3-11
		C210.5,129.8,210.5,125.7,210.5,121.6C210.5,121.6,210.5,121.6,210.5,121.6z M244.4,121.9C244.4,121.9,244.4,121.9,244.4,121.9
		c0-4.1,0-8.2,0-12.3c0.1-5.4-3.8-4.9-7.3-5c-3.6-0.1-6.7,0.4-6.6,5.3c0.2,8.2,0.1,16.4,0,24.5c-0.1,4.5,2.9,4.8,6.1,4.7
		c3.4-0.1,7.5,0.8,7.7-4.5C244.5,130.4,244.4,126.2,244.4,121.9z"/>
	<path class="st0" d="M379.9,143.3c-8,5.2-15.8,5.4-23.6,3.4c-6-1.5-8.9-5.4-9.1-11.5c-0.2-8.5-0.2-17,0-25.5
		c0.1-6.3,3-10.5,9.1-12.1c11.8-3.1,23.7-3.1,35.4,0.4c6.5,2,9,7.3,7.6,14.1c-0.4,2-1.6,1.8-3,1.8c-3.2,0-6.4-0.1-9.5,0
		c-4.1,0.2-7.6,0.7-7.1-5.7c0.3-4-4-3.6-7-3.6c-2.8,0-5.3,0.6-5.4,4.1c-0.1,8.8-0.1,17.6,0,26.4c0,4.3,3.4,4.6,6.5,4.6
		c3.1,0,6.1-0.4,6.3-4.8c0.2-3.7,0.1-6.7-5-5.7c-3,0.6-3.2-1.5-2.9-3.6c0.2-2-1.2-4.9,2.8-4.8c7.3,0.1,14.6,0.1,21.8,0
		c2,0,2.6,0.9,2.6,2.7c-0.1,7.1-0.1,14.2,0,21.4c0,2.3-0.9,2.8-3,2.8c-4.1-0.1-8.2-0.2-12.3,0C381.2,147.8,379.4,147.3,379.9,143.3z
		"/>
	<path class="st0" d="M169.3,96.4c6.3,0.3,13.9-0.7,21.5,0.8c7.2,1.4,9.5,4.1,9.6,11.4c0,3.3,0.1,6.7-0.2,10c-0.5,5.9-3.1,8.5-9,9.7
		c-6.5,1.3-13,0.9-19.5,0.7c-3.9-0.1-5,1.2-4.7,4.9c0.3,3.5-0.1,7,0.1,10.5c0.2,2.7-0.9,3.4-3.4,3.3c-4.5-0.2-9.1-0.1-13.6,0
		c-2.3,0.1-3.2-0.6-3.2-3c0.1-15,0.1-30,0-45c0-2.8,1-3.2,3.5-3.2C156.2,96.5,162.1,96.4,169.3,96.4z M167,112.1
		c0.1,8.8-0.9,7.8,5,7.8c8.5,0.1,9.3-0.6,9.3-7.8c0-6.7-0.2-6.5-9.9-7C164.6,104.9,167.8,109.7,167,112.1z"/>
</g>
</svg>
