<?xml version="1.0" encoding="utf-8"?>
<!-- Generator: Adobe Illustrator 19.2.1, SVG Export Plug-In . SVG Version: 6.00 Build 0)  -->
<svg version="1.1" id="Layer_1" xmlns="http://www.w3.org/2000/svg" xmlns:xlink="http://www.w3.org/1999/xlink" x="0px" y="0px"
	 viewBox="0 0 481.9 243.8" style="enable-background:new 0 0 481.9 243.8;" xml:space="preserve">
<style type="text/css">
	.st0{display:none;}
	.st1{display:inline;}
	.st2{fill-rule:evenodd;clip-rule:evenodd;fill:#898989;}
</style>
<g class="st0">
	<g class="st1">
		<path class="st2" d="M189.7,144h-0.1l-13.7-36.6h-6l17,44.5h5.1l17.4-44.5h-5.6L189.7,144z M245.7,134.2c0,1.8-0.2,3.5-0.6,5.2
			c-0.4,1.7-1,3.2-1.9,4.5c-0.9,1.3-2.1,2.3-3.5,3.1c-1.5,0.8-3.3,1.2-5.5,1.2c-2.2,0-4.1-0.4-5.5-1.2c-1.5-0.8-2.6-1.8-3.5-3.1
			c-0.9-1.3-1.5-2.8-1.9-4.5c-0.4-1.7-0.6-3.4-0.6-5.2v-26.8h-5.3v27.5c0,2.4,0.3,4.7,0.9,6.9c0.6,2.2,1.6,4.1,2.9,5.7
			c1.3,1.7,3.1,3,5.2,4c2.1,1,4.7,1.5,7.8,1.5c3.1,0,5.7-0.5,7.8-1.5c2.1-1,3.9-2.3,5.2-4c1.3-1.7,2.3-3.6,2.9-5.7
			c0.6-2.2,0.9-4.5,0.9-6.9v-27.5h-5.3V134.2z M270.3,107.4H265v44.5h25.7V147h-20.4V107.4z M326.9,146.5c-2.1,1.1-4.6,1.6-7.3,1.6
			c-2.5,0-4.8-0.5-6.9-1.4c-2.1-1-3.9-2.3-5.3-3.9c-1.5-1.7-2.7-3.6-3.5-5.8c-0.8-2.2-1.3-4.7-1.3-7.3c0-2.4,0.4-4.8,1.3-7
			c0.8-2.2,2-4.2,3.5-5.9c1.5-1.7,3.3-3,5.4-4.1c2.1-1,4.3-1.5,6.8-1.5c2.1,0,4.2,0.5,6.2,1.4c2,0.9,3.6,2.3,5,4.1l4.6-3.3
			c-1.9-2.5-4.2-4.3-7-5.3c-2.8-1.1-5.7-1.6-8.7-1.6c-3.3,0-6.4,0.6-9.1,1.8c-2.8,1.2-5.2,2.9-7.2,5c-2,2.1-3.6,4.6-4.7,7.4
			c-1.1,2.8-1.7,5.9-1.7,9.2c0,3.4,0.6,6.5,1.7,9.4c1.2,2.8,2.7,5.3,4.8,7.4c2,2.1,4.4,3.7,7.2,4.9c2.8,1.2,5.7,1.8,8.9,1.8
			c3.6,0,6.8-0.6,9.6-1.9c2.8-1.3,5.3-3.2,7.3-5.9l-4-3.3C330.9,143.9,329.1,145.4,326.9,146.5z M375.1,134.2c0,1.8-0.2,3.5-0.6,5.2
			c-0.4,1.7-1,3.2-1.9,4.5c-0.9,1.3-2.1,2.3-3.5,3.1c-1.5,0.8-3.3,1.2-5.5,1.2c-2.2,0-4.1-0.4-5.5-1.2c-1.5-0.8-2.6-1.8-3.5-3.1
			c-0.9-1.3-1.5-2.8-1.9-4.5c-0.4-1.7-0.6-3.4-0.6-5.2v-26.8h-5.3v27.5c0,2.4,0.3,4.7,0.9,6.9c0.6,2.2,1.6,4.1,2.9,5.7
			c1.3,1.7,3.1,3,5.2,4c2.1,1,4.7,1.5,7.8,1.5c3.1,0,5.7-0.5,7.8-1.5c2.1-1,3.9-2.3,5.2-4c1.3-1.7,2.3-3.6,2.9-5.7
			c0.6-2.2,0.9-4.5,0.9-6.9v-27.5h-5.3V134.2z M427,107.4v36.9h-0.1l-25.8-36.9h-6.7v44.5h5.3v-36.9h0.1l25.8,36.9h6.7v-44.5H427z
			 M127.1,116.9c-5.5-0.4-9.9,1.9-14,6.1c0.3-1.2,0.4-1.7,0.6-2.3c3.5-10.7,7-21.5,10.6-32.2c2.6-7.7-0.1-12.4-8-13.9
			c-0.8-0.1-1.7-1-2-1.7c-1.2-3.6-3.8-5.8-7.1-7c-5.3-1.9-10.8-0.3-12.6,5.8c-2.8,9.3-6.3,18.4-9.5,27.6c-0.3,0.8-0.7,1.5-1,2.3
			c-2.9-7.8-5.4-15.6-7.1-23.5c-1.5-6.9-7.6-8.5-12.9-5.8c-4.4,2.2-6.3,5.7-5.7,10.5c-7,2.1-9.8,6-8.7,12.2
			c0.8,4.3,1.7,8.5,2.6,12.7c1.5,7.1,3.6,14.2,4.5,21.3c0.9,7.5,0.8,15.2,1.1,22.7c0.3,7.8,3,14.8,7.4,21.2c2.3,3.3,5.5,4.9,9.5,5
			c1.9,0,3.7,0.4,5.5,0.6h8.3c1.2-0.2,2.3-0.6,3.5-0.5c6.8,0.5,11.7-2.8,15.1-8.1c5.9-9,11.5-18.3,17.2-27.5c3-4.8,6.1-9.6,9-14.5
			c0.6-1,1.2-2.1,1.3-3.2C135.4,120.2,132.4,117.3,127.1,116.9z M130.1,125.6c-3.4,5.4-6.7,10.9-10,16.3c-5.5,8.7-11,17.5-16.6,26.1
			c-2.7,4.2-6.8,6-11.8,5.9c-5-0.1-10.1-0.1-15.1,0c-4.1,0.1-6.9-1.7-8.9-5.1c-3.2-5.5-5.2-11.3-5.5-17.6
			c-0.3-6.2-0.1-12.5-0.8-18.6c-0.8-7.1-2.4-14.1-3.7-21.1c-1.1-5.8-2.5-11.5-3.6-17.3c-0.6-3.1,0.8-5.4,3.4-6.4
			c2.8-1,4.1-0.3,5,2.6c2.2,7.8,4.3,15.6,6.5,23.4c0.1,0,0.3-0.1,0.4-0.1c-1.1-5.2-2.1-10.3-3.2-15.5C65,92.7,63.8,87.4,62.8,82
			c-0.7-3.7,4-7.8,7.4-6.4c1.2,0.5,2.1,2.2,2.6,3.6c3.6,12,7,24.1,10.5,36.2c0.3,0,0.5,0,0.8,0c0.4-1,0.8-1.9,1.1-2.9
			c4.4-12.9,8.9-25.8,13.3-38.8c1.3-3.8,3.2-4.9,6.6-3.8c4.3,1.4,5.7,3.6,4.6,7.3c-2.8,8.8-5.7,17.6-8.5,26.3
			c-0.2,0.5-0.3,1.1,0,1.8c2.6-6.1,5.1-12.2,7.7-18.3c0.6-1.4,1.2-2.9,1.8-4.3c1.5-3.6,3.8-4.6,7.2-3.2c3.1,1.2,3.9,3.3,2.7,7
			c-4.1,12.6-8.4,25.2-12.3,37.8c-1.4,4.7-2,9.6-3.1,15.2c3.6-4.5,6.6-8.2,9.8-11.9c2.6-3.1,5.6-5.9,10-6.2c1.3-0.1,2.8,0,4.1,0.4
			C130.9,122.4,131.4,123.6,130.1,125.6z"/>
	</g>
</g>
<g>
	<g>
		<path class="st2" d="M189.7,135.4h-0.1l-13.7-36.6h-6l17,44.5h5.1l17.4-44.5h-5.6L189.7,135.4z M245.7,125.6
			c0,1.8-0.2,3.5-0.6,5.2c-0.4,1.7-1,3.2-1.9,4.5c-0.9,1.3-2.1,2.3-3.5,3.1c-1.5,0.8-3.3,1.2-5.5,1.2c-2.2,0-4.1-0.4-5.5-1.2
			c-1.5-0.8-2.6-1.8-3.5-3.1c-0.9-1.3-1.5-2.8-1.9-4.5c-0.4-1.7-0.6-3.4-0.6-5.2V98.8h-5.3v27.5c0,2.4,0.3,4.7,0.9,6.9
			c0.6,2.2,1.6,4.1,2.9,5.7c1.3,1.7,3.1,3,5.2,4c2.1,1,4.7,1.5,7.8,1.5c3.1,0,5.7-0.5,7.8-1.5c2.1-1,3.9-2.3,5.2-4
			c1.3-1.7,2.3-3.6,2.9-5.7c0.6-2.2,0.9-4.5,0.9-6.9V98.8h-5.3V125.6z M270.3,98.8H265v44.5h25.7v-4.9h-20.4V98.8z M326.9,137.9
			c-2.1,1.1-4.6,1.6-7.3,1.6c-2.5,0-4.8-0.5-6.9-1.4c-2.1-1-3.9-2.3-5.3-3.9c-1.5-1.7-2.7-3.6-3.5-5.8c-0.8-2.2-1.3-4.7-1.3-7.3
			c0-2.4,0.4-4.8,1.3-7c0.8-2.2,2-4.2,3.5-5.9c1.5-1.7,3.3-3,5.4-4.1c2.1-1,4.3-1.5,6.8-1.5c2.1,0,4.2,0.5,6.2,1.4
			c2,0.9,3.6,2.3,5,4.1l4.6-3.3c-1.9-2.5-4.2-4.3-7-5.3c-2.8-1.1-5.7-1.6-8.7-1.6c-3.3,0-6.4,0.6-9.1,1.8c-2.8,1.2-5.2,2.9-7.2,5
			c-2,2.1-3.6,4.6-4.7,7.4c-1.1,2.8-1.7,5.9-1.7,9.2c0,3.4,0.6,6.5,1.7,9.4c1.2,2.8,2.7,5.3,4.8,7.4c2,2.1,4.4,3.7,7.2,4.9
			c2.8,1.2,5.7,1.8,8.9,1.8c3.6,0,6.8-0.6,9.6-1.9c2.8-1.3,5.3-3.2,7.3-5.9l-4-3.3C330.9,135.3,329.1,136.9,326.9,137.9z
			 M375.1,125.6c0,1.8-0.2,3.5-0.6,5.2c-0.4,1.7-1,3.2-1.9,4.5c-0.9,1.3-2.1,2.3-3.5,3.1c-1.5,0.8-3.3,1.2-5.5,1.2
			c-2.2,0-4.1-0.4-5.5-1.2c-1.5-0.8-2.6-1.8-3.5-3.1c-0.9-1.3-1.5-2.8-1.9-4.5c-0.4-1.7-0.6-3.4-0.6-5.2V98.8h-5.3v27.5
			c0,2.4,0.3,4.7,0.9,6.9c0.6,2.2,1.6,4.1,2.9,5.7c1.3,1.7,3.1,3,5.2,4c2.1,1,4.7,1.5,7.8,1.5c3.1,0,5.7-0.5,7.8-1.5
			c2.1-1,3.9-2.3,5.2-4c1.3-1.7,2.3-3.6,2.9-5.7c0.6-2.2,0.9-4.5,0.9-6.9V98.8h-5.3V125.6z M427,98.8v36.9h-0.1l-25.8-36.9h-6.7
			v44.5h5.3v-36.9h0.1l25.8,36.9h6.7V98.8H427z M127.1,116.9c-5.5-0.4-9.9,1.9-14,6.1c0.3-1.2,0.4-1.7,0.6-2.3
			c3.5-10.7,7-21.5,10.6-32.2c2.6-7.7-0.1-12.4-8-13.9c-0.8-0.1-1.7-1-2-1.7c-1.2-3.6-3.8-5.8-7.1-7c-5.3-1.9-10.8-0.3-12.6,5.8
			c-2.8,9.3-6.3,18.4-9.5,27.6c-0.3,0.8-0.7,1.5-1,2.3c-2.9-7.8-5.4-15.6-7.1-23.5c-1.5-6.9-7.6-8.5-12.9-5.8
			c-4.4,2.2-6.3,5.7-5.7,10.5c-7,2.1-9.8,6-8.7,12.2c0.8,4.3,1.7,8.5,2.6,12.7c1.5,7.1,3.6,14.2,4.5,21.3c0.9,7.5,0.8,15.2,1.1,22.7
			c0.3,7.8,3,14.8,7.4,21.2c2.3,3.3,5.5,4.9,9.5,5c1.9,0,3.7,0.4,5.5,0.6h8.3c1.2-0.2,2.3-0.6,3.5-0.5c6.8,0.5,11.7-2.8,15.1-8.1
			c5.9-9,11.5-18.3,17.2-27.5c3-4.8,6.1-9.6,9-14.5c0.6-1,1.2-2.1,1.3-3.2C135.4,120.2,132.4,117.3,127.1,116.9z M130.1,125.6
			c-3.4,5.4-6.7,10.9-10,16.3c-5.5,8.7-11,17.5-16.6,26.1c-2.7,4.2-6.8,6-11.8,5.9c-5-0.1-10.1-0.1-15.1,0c-4.1,0.1-6.9-1.7-8.9-5.1
			c-3.2-5.5-5.2-11.3-5.5-17.6c-0.3-6.2-0.1-12.5-0.8-18.6c-0.8-7.1-2.4-14.1-3.7-21.1c-1.1-5.8-2.5-11.5-3.6-17.3
			c-0.6-3.1,0.8-5.4,3.4-6.4c2.8-1,4.1-0.3,5,2.6c2.2,7.8,4.3,15.6,6.5,23.4c0.1,0,0.3-0.1,0.4-0.1c-1.1-5.2-2.1-10.3-3.2-15.5
			C65,92.7,63.8,87.4,62.8,82c-0.7-3.7,4-7.8,7.4-6.4c1.2,0.5,2.1,2.2,2.6,3.6c3.6,12,7,24.1,10.5,36.2c0.3,0,0.5,0,0.8,0
			c0.4-1,0.8-1.9,1.1-2.9c4.4-12.9,8.9-25.8,13.3-38.8c1.3-3.8,3.2-4.9,6.6-3.8c4.3,1.4,5.7,3.6,4.6,7.3c-2.8,8.8-5.7,17.6-8.5,26.3
			c-0.2,0.5-0.3,1.1,0,1.8c2.6-6.1,5.1-12.2,7.7-18.3c0.6-1.4,1.2-2.9,1.8-4.3c1.5-3.6,3.8-4.6,7.2-3.2c3.1,1.2,3.9,3.3,2.7,7
			c-4.1,12.6-8.4,25.2-12.3,37.8c-1.4,4.7-2,9.6-3.1,15.2c3.6-4.5,6.6-8.2,9.8-11.9c2.6-3.1,5.6-5.9,10-6.2c1.3-0.1,2.8,0,4.1,0.4
			C130.9,122.4,131.4,123.6,130.1,125.6z"/>
	</g>
</g>
</svg>
