<?xml version="1.0" encoding="utf-8"?>
<!-- Generator: Adobe Illustrator 19.2.1, SVG Export Plug-In . SVG Version: 6.00 Build 0)  -->
<svg version="1.1" id="Layer_1" xmlns="http://www.w3.org/2000/svg" xmlns:xlink="http://www.w3.org/1999/xlink" x="0px" y="0px"
	 viewBox="0 0 481.9 243.8" style="enable-background:new 0 0 481.9 243.8;" xml:space="preserve">
<style type="text/css">
	.st0{fill:#898989;}
</style>
<g>
	<path class="st0" d="M131.4,135.9c-7.1,4.4-13.6,4.6-19-1.2c-2.8,1.8-5.2,3.9-7.9,5c-7.2,2.8-13.9-1.8-14.4-9.5
		c-0.5-7.8,1.4-15.1,3.7-22.3c0.4-1.4,0.8-2.7,1.4-4.6c-3.7,0-6.9,0-10,0c-1,6.3-1.7,12.5-2.9,18.6c-1.7,8.4-7.5,12-16.1,11
		c-1.3-0.2-3.1,0.6-4,1.6c-4,4.5-8.7,6.9-14.9,5.7c-6.7-1.3-10.3-5.8-11.9-12c-2.6-9.9-0.8-19.3,4.3-28c3.2-5.4,7.8-7.9,14.1-6.8
		c6,1,10.3,4.7,11.5,10.4c1.3,6,1,12.3,1.3,18.5c0.1,1.6-0.3,3.2-0.5,4.7c5.1,1.7,9.5-0.4,10.5-5.9c1.1-6,1.3-12.1,1.7-18.2
		c0.1-1.1-1.2-2.5-2.1-3.5c-3.1-3.4-3.3-6.4-0.6-8.7c2.8-2.3,6.7-1.5,8.8,2.2c1.3,2.4,3,3.1,5.5,3c2.1-0.1,4.3-0.1,6.4,0
		c4.3,0.3,6.6,3.9,5.7,8.1c-1.6,7.4-3.3,14.8-4.2,22.3c-0.6,5.1,1.4,7.8,4.6,8c3.5,0.2,6.7-3.8,7.3-8.2c0.7-5.6,1.2-11.4,3-16.7
		c3.3-9.5,13.6-16.3,22.9-15.8c1.5,0.1,3.5,0.9,4.4,2c1.4,1.7,1.2,3.7-1.8,3.6c-14.5-0.1-22.3,12.4-20.1,27.9c0.3,2.2,3,4.6,5.2,5.7
		c2.8,1.4,5.2-0.9,6.4-3.3c1.2-2.4,2.1-5.2,2.3-7.9c0.4-4.2-0.1-8.5,0.2-12.8c0.1-1.4,1.6-3.9,1.9-3.9c1.9,0.4,4,1.2,5.2,2.5
		c0.9,0.9,0.8,3,0.8,4.6c0.1,8.9,0,17.8,0.5,26.9c5-4.7,8.8-9.8,9-16.9c0.3-9.7,4.1-17.8,12.2-23.1c3.6-2.4,8.3-3.4,12.6-4.5
		c1.4-0.4,3.4,0.6,4.6,1.6c0.8,0.6,1,2.4,0.8,3.6c-0.1,0.5-1.7,1.2-2.6,1.1c-14.7-1.3-21.8,14.8-20.1,26.8c0.6,4.3,3.8,7.1,7.1,6.7
		c3.4-0.4,6.1-3.9,6.2-8.2c0.1-5.3,0-10.7,0-16c0-1.9-0.7-4.5,2.4-4.5c2.8,0,4.9,1.4,4.9,4.6c0,4.9,0,9.9,0.1,14.8
		c0,1.7,0,3.6,0.7,5.1c0.7,1.5,1.9,3.6,3.3,3.9c1.4,0.3,4.1-0.9,4.6-2.1c1.9-4.7,3.9-9.7,4.5-14.7c0.7-6.2-0.2-12.5-0.1-18.8
		c0-0.9,1.3-2.5,1.6-2.4c1.9,0.5,4.2,1,5.4,2.4c1.1,1.3,0.9,3.6,1.3,6.2c1.9-2.4,3.3-4.5,5-6.3c2.9-3.1,6.2-5,10.7-3.3
		c4.3,1.7,5.4,5.1,5.5,9.3c0,7.6,0,15.2,0.1,22.8c0,2.8-0.3,6.2,3.2,6.9c3.5,0.7,5.1-2.3,6.1-5.2c0.8-2.3,1.5-4.9,1.6-7.3
		c0.2-7.3,0-14.7,0.1-22c0-1.3,1.4-3.8,1.6-3.7c1.9,0.5,4.1,1,5.4,2.3c0.9,0.9,0.9,3,0.9,4.5c0.1,8.8-0.1,17.6,0.1,26.4
		c0,1.7,1.5,3.4,2.3,5c1.8-0.9,4.5-1.3,5.2-2.8c1.9-3.6,3.2-7.6,4.1-11.6c0.8-3.9,0.8-7.9,1-11.9c0.3-3.6,0.1-6.9-3.1-9.7
		c-2.6-2.3-1.9-5.8,0.6-7.6c2.6-1.8,6.4-1.4,8,1.7c1.8,3.5,4.3,3.7,7.5,3.7c4.8-0.1,9.7-0.4,14.4,0.1c2.3,0.3,4.9,1.9,6.4,3.7
		c0.7,0.9-0.4,4-1.5,5.5c-4.4,6.2-9,12.2-13.6,18.3c-0.8,1.1-1.6,2.1-2.3,3.3c-2.4,4.1-1.3,6.3,3.5,7.3c8.5,1.7,16.7-5.2,16.6-14.5
		c0-7.2,1.3-13.9,6.1-19.4c2-2.3,4.8-4.3,7.7-5.4c6-2.3,11.7,1.7,12.2,8.1c0.7,9.6-3.7,17.4-12.4,21.8c-1.2,0.6-2.3,1.2-3.6,1.9
		c1.2,4.5,4.2,6.7,8.2,7.4c5.1,0.9,9.7-0.5,12.7-4.9c1.7-2.6,2.4-5.9,3.9-8.6c0.7-1.3,2.3-2.1,3.5-3.1c0.8,1.3,2.3,2.7,2.1,4
		c-0.9,8.2-4.6,14.8-12.8,17.8c-7.9,3-15.2,1.9-21.5-4.1c-1-1-1.7-2.3-2.9-3.9c-4.2,5.3-8.7,8.4-14.5,9.3
		c-5.2,0.8-10.1-0.1-14.4-3.4c-4.2-3.2-5-6.3-2.1-10.7c4-6,8.4-11.7,12.6-17.6c1.1-1.6,2.1-3.2,3.7-5.7c-6.2,0-11.5-0.1-16.8,0.2
		c-0.7,0-1.8,2.3-1.9,3.6c-0.7,8.5-1.5,17.1-5.7,24.7c-1.6,2.8-3.9,5.5-6.5,7.3c-4.9,3.3-8.4,2.4-14.4-3c-0.9,0.6-1.8,1.3-2.7,2
		c-3.4,2.5-7.1,3.9-11.2,1.8c-3.9-1.9-5.2-5.5-5.3-9.6c0-7.9,0.1-15.8-0.1-23.6c-0.1-1.9-1.4-3.7-2.2-5.5c-1.7,0.9-3.7,1.5-4.9,2.9
		c-4.5,5.2-7.2,11.1-7.1,18.2c0.1,4.5,0.2,9.1-0.1,13.6c-0.1,1.7-1.4,3.3-2.2,5c-1.7-0.9-3.3-1.7-4.9-2.7c-0.4-0.2-0.6-0.8-0.9-1.4
		c-1.6,1-3.1,1.9-4.6,2.7c-4.3,2.3-8.4,1.9-12.3-1.3c-0.8-0.6-2.6-1-3.2-0.5c-6.2,4.9-12.2,4.1-18.4-1.8c-3.8,4.2-7.7,8.3-11.3,12.6
		c-0.7,0.8-0.5,2.5-0.5,3.8c-0.3,7-0.3,14.1-0.9,21.1c-0.5,6.4-5.6,11-10.9,10.6c-5.4-0.3-9.6-5.4-9.9-11.7
		c-0.4-7.9,2.7-14.6,8.7-19.3C132.9,148.1,131.9,142.4,131.4,135.9z M49.9,98.9c-1.9,1.9-4.5,3.4-5.1,5.4
		c-1.6,5.1-2.9,10.5-3.1,15.9c-0.1,3.5,1.3,7.3,3.1,10.5c2.2,4,7.4,4.3,10.7,1.2c1.6-1.5,1.6-2.6,0.4-4.8c-2.4-4-4.7-8.4-5.7-12.9
		C49.1,109.8,49.9,105,49.9,98.9z M297.1,120.2c5.7-1.8,10-7.9,9.9-14.3c0-1.7-1.4-3.4-2.2-5.1c-1.7,1-4.1,1.6-5,3.1
		C296.9,108.7,296.3,114.2,297.1,120.2z M131.6,156.8c-5.8,4.8-7.7,10.7-6,17.6c0.3,1.1,2,2.8,2.8,2.6c1.2-0.3,3.1-1.8,3.1-2.8
		C131.7,168.5,131.6,162.6,131.6,156.8z M59.3,121.1c0-5,0.2-9.9-0.1-14.9c-0.1-1.1-1.7-2-2.6-3.1c-0.7,1-1.9,1.9-2.1,3
		C53.6,111.7,55,116.8,59.3,121.1z"/>
	<path class="st0" d="M417.4,126.8c1.5,4.5,4.8,6.7,9.3,7.1c5.2,0.5,9.5-1.6,12.2-6c1.4-2.3,2.2-5.1,3.1-7.7
		c0.7-1.9,1.6-3.9,3.8-2.8c1.1,0.5,2.2,2.8,2,4.1c-1.4,10.5-7.4,16.8-17.9,18.7c-6,1.1-11.3-0.8-15.8-4.9c-1-1-1.6-2.4-2-3
		c-4.3,3-7.2,5.9-10.6,7.4c-6.1,2.5-11.7-1.5-11.9-8.1c-0.2-7.6,0.1-15.2-0.2-22.8c-0.1-2.7-1.5-5.3-2.3-8c-2.2,1.9-5,3.4-6.5,5.8
		c-3.6,5.3-4.9,11.4-4.5,17.9c0.2,3.9,0,7.7,0.1,11.6c0,2.2-0.2,4.3-2.9,4.4c-2.7,0.1-4.5-1.4-4.5-4.4c0-3.2,0-6.4,0-9.6
		c0-6.1,0-12.3,0-18.4c0-1.4-0.2-2.9-0.5-4.3c-0.9-3.4-2.5-4-5-1.5c-4.9,4.9-7.5,11-7.8,17.9c-0.2,5.2-0.1,10.4-0.1,15.6
		c0,2.2,0.1,4.7-2.9,4.8c-2.9,0.1-4.6-1.7-4.6-4.9c0-10.5,0-21.1,0-31.6c0-1.3,0-2.7-0.1-4c-0.1-1.7-1.6-3.9,1.5-4.3
		c2.9-0.4,5,0.7,5.8,3.6c0.3,1.3,0.3,2.8,0.4,3.5c3.8-2.9,7.2-7.1,11.4-8.3c6.1-1.7,8.1,4,9.7,9.8c1.3-2,2.2-3.3,3.2-4.7
		c2.5-3.4,5.5-6,10-5.4c4.4,0.5,7,4.5,7.1,10.2c0.1,7.9,0,15.8,0,23.6c0,2.5,0,5.6,3,5.6c1.8,0,4.5-1.9,5.4-3.7
		c1.3-2.5,1.9-5.7,1.9-8.7c0-9.1,1.5-17.8,8.9-23.8c2.5-2,6.6-3.3,9.8-3c5.6,0.5,8.7,6.5,7.7,12.5c-1.5,8.5-6,14.7-14,18.2
		c-0.5,0.2-1,0.5-1.4,0.7C418,126,417.9,126.3,417.4,126.8z M415.7,120.2c6.2-1.6,10.3-7.8,9.9-14.7c-0.1-1.6-1.4-3.1-2.1-4.7
		c-1.5,0.8-3.7,1.3-4.5,2.6C416,108.4,415.1,114,415.7,120.2z"/>
	<path class="st0" d="M243.1,76.6c-0.1,3.5-3,6.4-6.4,6.3c-3.3-0.1-6.5-3.3-6.3-6.5c0.1-3.3,3.4-6.4,6.6-6.4
		C240.3,70,243.2,73.2,243.1,76.6z"/>
	<path class="st0" d="M335.1,139.8c-2.8-0.4-4.7-1.7-4.7-4.8c0-3.1,1.8-4.8,4.7-4.8c2.8,0,4.8,1.7,4.9,4.7
		C340.1,137.9,338,139.2,335.1,139.8z"/>
</g>
</svg>
