<?xml version="1.0" encoding="utf-8"?>
<!-- Generator: Adobe Illustrator 19.2.1, SVG Export Plug-In . SVG Version: 6.00 Build 0)  -->
<svg version="1.1" id="Layer_1" xmlns="http://www.w3.org/2000/svg" xmlns:xlink="http://www.w3.org/1999/xlink" x="0px" y="0px"
	 viewBox="0 0 481.9 243.8" style="enable-background:new 0 0 481.9 243.8;" xml:space="preserve">
<style type="text/css">
	.st0{fill-rule:evenodd;clip-rule:evenodd;fill:#898989;}
</style>
<path class="st0" d="M413.9,142.4c0,4.3-4.3,8.6-8.6,8.6c-4.3,0-49.7,0-49.7,0V92.7c0,0,45.4,0,49.7,0c4.3,0,8.6,4.3,8.6,8.6
	c0,4.3,0,13,0,15.1s-4.3,4.3-4.3,4.3s4.3,2.2,4.3,4.3S413.9,138.1,413.9,142.4z M394.4,107.8c-2.2,0-21.6,0-21.6,0v6.5
	c0,0,19.5,0,21.6,0C396.6,114.3,396.6,107.8,394.4,107.8z M394.4,129.5c-2.2,0-21.6,0-21.6,0v6.5c0,0,19.5,0,21.6,0
	C396.6,135.9,396.6,129.5,394.4,129.5z M336,151.1c-4.3,0-41.1,0-45.4,0c-4.3,0-8.6-4.3-8.6-8.6c0-4.3,0-49.7,0-49.7h19.5v41.1
	l2.2,2.2h21.6l2.2-2.2V92.7h17.3c0,0,0,45.4,0,49.7C344.7,146.7,340.4,151.1,336,151.1z M251.8,129.5h-21.6v21.6h-19.5V92.7h19.5
	v21.6h21.6V92.7h19.5v58.4h-19.5V129.5z M139.4,142.4c0-4.3,0-36.7,0-41.1c0-4.3,4.3-8.6,8.6-8.6s51.9,0,51.9,0v15.1H161l-2.2,2.2
	v23.8l2.2,2.2h19.5v-6.5h-15.1v-15.1h15.1h8.6h10.8v21.6v8.6v6.5c0,0-47.6,0-51.9,0S139.4,146.7,139.4,142.4z M68,142.4
	c0-4.3,0-36.7,0-41.1c0-4.3,4.3-8.6,8.6-8.6c4.3,0,51.9,0,51.9,0v15.1H89.6l-2.2,2.2v23.8l2.2,2.2h38.9v15.1c0,0-47.6,0-51.9,0
	C72.4,151.1,68,146.7,68,142.4z"/>
</svg>
