<?xml version="1.0" encoding="utf-8"?>
<!-- Generator: Adobe Illustrator 19.2.1, SVG Export Plug-In . SVG Version: 6.00 Build 0)  -->
<svg version="1.1" id="Layer_1" xmlns="http://www.w3.org/2000/svg" xmlns:xlink="http://www.w3.org/1999/xlink" x="0px" y="0px"
	 viewBox="0 0 481.9 243.8" style="enable-background:new 0 0 481.9 243.8;" xml:space="preserve">
<style type="text/css">
	.st0{fill-rule:evenodd;clip-rule:evenodd;fill:#898989;}
</style>
<path class="st0" d="M396,152.1v12.2h-7.8v-12.2h-12.2v-6.6h12.2v-12.2h7.8v12.2h12.2v6.6H396z M396.3,114.5l-5.8-11.2h-0.3h-7.6
	v11.2h-10V74.9h17.6c10.4,0,16.4,5,16.4,13.8c0,6.1-2.5,10.4-7.1,12.7l8.3,13.1H396.3z M390.2,82.8h-7.6v12.6h7.6
	c4.3,0,6.9-2.2,6.9-6.4C397,84.9,394.5,82.8,390.2,82.8z M356.2,169.2c-6.6,0-13.3-2.5-18-6.3l3.9-7.8c4,3.6,10.1,5.9,14.2,5.9
	c3.1,0,5.1-1.2,5.1-3.5c0-7-20.8-2.8-20.8-16.9c0-7.3,6.2-12,15.7-12c5.7,0,11.5,1.8,15.5,4.4L368,141c-4.2-2.4-9.4-4.1-12.6-4.1
	c-2.6,0-4.3,1-4.3,2.9c0,6.9,20.8,2.9,20.8,17.3C371.9,165,364.9,169.2,356.2,169.2z M333.5,74.9h30.8v7.9h-20.8v7.9h18.8v7.9h-18.8
	v8h21.4v7.9h-31.4V74.9z M316.1,114.5h-10V83h-11.7v-8.2H328V83h-11.9V114.5z M271.5,115c-11.1,0-18.2-6.6-18.2-17.1v-23h10v23
	c0,5.4,3.4,8.7,8.2,8.7c4.7,0,7.9-3.3,7.9-8.7v-23h9.9v23C289.5,108.3,282.5,115,271.5,115z M266.5,129.2h10v39.7h-10v-15.4h-16.3
	v15.4h-10v-39.7h10v16.3h16.3V129.2z M231.7,103.4h-7.1v11.2h-10V74.9h17.1c10.1,0,15.8,5,15.8,13.8
	C247.6,98,241.8,103.4,231.7,103.4z M231.2,82.8h-6.6v12.6h6.6c4.4,0,6.9-2.2,6.9-6.4C238.1,84.9,235.6,82.8,231.2,82.8z
	 M196.6,88.7l-9.4,21.8h-6.5l-9.4-21.8v25.8h-8.9V74.8h11l10.7,23.6l10.7-23.6h10.9v39.7h-8.8L196.6,88.7z M134.4,115
	c-12.1,0-21.2-8.7-21.2-20.3c0-11.6,9.1-20.1,21.2-20.1c12.2,0,21.3,8.6,21.3,20.1C155.7,106.2,146.6,115,134.4,115z M134.5,83
	c-6.1,0-11.1,5-11.1,11.7c0,6.7,5.1,11.8,11.1,11.8c6.1,0,10.9-5.2,10.9-11.8C145.4,88,140.6,83,134.5,83z M95.3,137.3
	c-6.5,0-11.4,5.1-11.4,11.7c0,6.7,5,11.8,11.5,11.8c2,0,4.6-0.7,7-1.9v-10.3h8.7v15.5c-4.2,3-10.8,5.2-16.4,5.2
	c-12,0-21-8.7-21-20.3c0-11.5,9.3-20.2,21.7-20.2c5.8,0,12,2.3,16.1,5.9l-5.6,6.9C103,138.9,99,137.3,95.3,137.3z M94.9,106.1
	c3.3,0,7.1-1.8,9.9-4.6l5.8,6.2c-4.2,4.4-10.5,7.3-16.2,7.3c-11.9,0-20.7-8.8-20.7-20.4c0-11.4,9-20.1,21-20.1
	c5.8,0,11.9,2.6,15.8,6.7l-5.8,6.9c-2.6-3.2-6.4-5.2-9.9-5.2c-6.2,0-11,5-11,11.5C83.9,101.1,88.7,106.1,94.9,106.1z M152,143
	c0,6.1-2.5,10.4-7.1,12.7l8.3,13.1h-11.4l-5.8-11.2h-0.3H128v11.2h-10v-39.7h17.6C146,129.2,152,134.1,152,143z M128,149.7h7.6
	c4.3,0,6.9-2.2,6.9-6.4c0-4.1-2.5-6.2-6.9-6.2H128V149.7z M181.8,129.2l16.6,39.7h-10.7l-2.8-7.3h-17.2l-2.9,7.3h-10.3l17-39.7
	H181.8z M181.9,153.9l-5.6-14.7l-5.7,14.7H181.9z M235,143c0,9.3-5.8,14.7-15.8,14.7H212v11.2h-10v-39.7h17.1
	C229.2,129.2,235,134.1,235,143z M212,137.1v12.6h6.6c4.4,0,6.9-2.2,6.9-6.4c0-4.1-2.5-6.2-6.9-6.2H212z M294.4,168.8h-10v-39.7h10
	V168.8z M320.7,128.8c5.8,0,11.9,2.6,15.8,6.7l-5.8,6.9c-2.6-3.2-6.4-5.2-9.9-5.2c-6.2,0-11,5-11,11.5c0,6.6,4.7,11.7,11,11.7
	c3.3,0,7.1-1.8,9.9-4.6l5.8,6.2c-4.2,4.4-10.5,7.3-16.2,7.3c-11.9,0-20.7-8.8-20.7-20.4C299.7,137.4,308.7,128.8,320.7,128.8z"/>
</svg>
