<?xml version="1.0" encoding="utf-8"?>
<!-- Generator: Adobe Illustrator 19.2.1, SVG Export Plug-In . SVG Version: 6.00 Build 0)  -->
<svg version="1.1" id="Layer_1" xmlns="http://www.w3.org/2000/svg" xmlns:xlink="http://www.w3.org/1999/xlink" x="0px" y="0px"
	 viewBox="0 0 481.9 243.8" style="enable-background:new 0 0 481.9 243.8;" xml:space="preserve">
<style type="text/css">
	.st0{fill-rule:evenodd;clip-rule:evenodd;fill:#898989;}
</style>
<path class="st0" d="M207.3,62.4h66.4c6.2,0,11.8,2.2,16.3,5.8l0.1,0.1l0.2,0.2c1,1,1.3,2.5,0.2,3.5l-18.2,18.7h-18.8h-15.7h-9.4
	c-10.1,0-18.8,8.8-18.8,18.8v12.5v12.5c0,10,8.7,18.8,18.8,18.8h9.4h15.7h18.8l18.2,18.7c1,1,0.8,2.6-0.2,3.5l-0.2,0.2l-0.1,0.1
	c-4.5,3.6-10.1,5.8-16.3,5.8h-66.4c-14.2,0-25.8-11.5-25.8-25.5v-34v-34C181.4,73.8,193.1,62.4,207.3,62.4z M272.3,121.6v21l12,13.6
	c4.3,4.2,8.1,2.7,8.1,2.7c6.2,0,8.1-5.8,8.1-5.8l0-31.3l0-31.8c0,0-1.9-5.8-8.1-5.8c0,0-3.9-0.9-8.1,3.3l-12,13V121.6z"/>
</svg>
