<?xml version="1.0" encoding="utf-8"?>
<!-- Generator: Adobe Illustrator 19.2.1, SVG Export Plug-In . SVG Version: 6.00 Build 0)  -->
<svg version="1.1" id="Layer_1" xmlns="http://www.w3.org/2000/svg" xmlns:xlink="http://www.w3.org/1999/xlink" x="0px" y="0px"
	 viewBox="0 0 481.9 243.8" style="enable-background:new 0 0 481.9 243.8;" xml:space="preserve">
<style type="text/css">
	.st0{fill-rule:evenodd;clip-rule:evenodd;fill:#898989;}
</style>
<path class="st0" d="M437.8,142v-1.4c3.9-0.4,4.3-0.6,4.3-4v-11.5c0-3.5-1.1-6.5-5.6-6.5c-2.3,0-4.6,1.2-6.5,2.8v15.1
	c0,3.4,0.3,3.6,4.3,4v1.4h-13.3v-1.4c3.9-0.4,4.3-0.6,4.3-4v-13.9c0-3.6-0.1-3.6-4.1-4.1v-1.1c2.8-0.6,5.7-1.4,8.8-2.4v4.6
	c2.8-2.1,6.2-4.4,9.1-4.4c4.9,0,7.6,3.3,7.6,8v13.4c0,3.4,0.3,3.6,4.3,4v1.4H437.8z M409.5,138.8c-2.5,1.6-5.8,4-7,4
	c-4.3,0-7.2-3.7-7.2-7c0-2.8,1.5-4.8,4.6-6.1c2.9-1.2,7.8-2.9,9.6-4.2v-2.1c0-3.7-1.8-5.7-4.9-5.7c-2.9,0-4.1,2.5-4.8,5.1
	c-0.2,0.7-0.8,1.1-1.4,1.1c-0.9,0-2.6-0.9-2.6-2c0-0.9,0.8-1.6,2.1-2.6c1.4-1.1,5-3.4,9.2-4.2c5,0,7,3.2,7,7.3V136
	c0,2.2,0.8,3.2,1.6,3.2c0.5,0,1.5-0.2,2.6-0.8l0.5,1.4l-6.1,3C410.8,142.4,409.9,140.4,409.5,138.8z M409.5,127.5
	c-2.1,0.9-4.2,1.7-6.1,2.7c-1.8,0.9-3.1,2.1-3.1,4.5c0,3.2,2.1,4.6,3.9,4.6c1.4,0,3.6-1.1,5.2-2.3V127.5z M379,140.6
	c3.9-0.4,4.3-0.6,4.3-4v-13.9c0-3.6-0.1-3.6-4.1-4.1v-1.1c2.8-0.6,5.7-1.4,8.8-2.4v21.5c0,3.4,0.3,3.6,4.3,4v1.4H379V140.6z
	 M385.6,107.6c-1.7,0-3.1-1.4-3.1-3.2c0-1.8,1.4-3.3,3.1-3.3c1.8,0,3.1,1.5,3.1,3.3C388.7,106.2,387.4,107.6,385.6,107.6z
	 M363.1,140.6c3.9-0.4,4.3-0.6,4.3-4v-11.5c0-3.5-1.1-6.5-5.6-6.5c-2.3,0-4.6,1.2-6.5,2.8v15.1c0,3.4,0.3,3.6,4.3,4v1.4h-13.3v-1.4
	c3.9-0.4,4.3-0.6,4.3-4v-13.9c0-3.6-0.1-3.6-4.1-4.1v-1.1c2.8-0.6,5.7-1.4,8.8-2.4v4.6c2.8-2.1,6.2-4.4,9.1-4.4c4.9,0,7.6,3.3,7.6,8
	v13.4c0,3.4,0.3,3.6,4.3,4v1.4h-13.3V140.6z M329,142.8c-8.5,0-13.3-6.8-13.3-13.1c0-10.1,7.8-14.5,13.2-14.5
	c7.6,0,13.1,5.8,13.1,13.4C342.1,138,335.1,142.8,329,142.8z M328.3,117.1c-4.1,0-7,4.1-7,10.5c0,7.6,3.3,13.4,8.5,13.4
	c3.8,0,6.9-2.9,6.9-11.1C336.6,123.2,333.7,117.1,328.3,117.1z M311.8,134.5c0,5.5-5.1,8.2-9.6,8.2c-3.1,0-5.8-1.3-7-2.2
	c-0.4-0.9-0.7-4.2-0.7-6.5l1.4-0.4c0.9,3.5,3.6,7.3,7.2,7.3c2.2,0,4.2-1.5,4.2-4.5c0-2.4-1.4-4.1-4.6-5.6c-3.9-1.8-7.2-3.8-7.2-7.8
	c0-4.3,3.8-7.9,8.9-7.9c2.2,0,3.9,0.5,5.1,1.1c0.6,1.4,1.2,4.7,1.4,5.8l-1.5,0.4c-1.8-4-3.7-5.4-6-5.4c-2.7,0-3.9,2.1-3.9,4.1
	c0,2.5,2.6,4.2,5.2,5.2C308.9,128.2,311.8,130.5,311.8,134.5z M278.1,140.6c3.9-0.4,4.3-0.6,4.3-4v-10.9c0-4.4-1.5-7.2-5.9-7.2
	c-2.4,0-4.6,1.1-6.2,2.8v15.3c0,3.4,0.3,3.6,4.3,4v1.4h-13.3v-1.4c3.9-0.4,4.3-0.6,4.3-4V107c0-3.6-0.1-3.6-4.1-4.1v-1.1
	c2.8-0.6,5.7-1.4,8.8-2.4v20.1c2.1-2.2,5.3-4.2,8.5-4.2c5.6,0,8.3,3.6,8.3,8.6v12.7c0,3.4,0.3,3.6,4.3,4v1.4h-13.3V140.6z
	 M253.3,142.8c-3.9,0-5.9-2.5-5.9-7.3v-17.2h-4.4l-0.2-0.6l1.8-1.6h2.9v-3.8l3.9-4h0.8v7.8h6.9c0.2,0.2,0.3,0.5,0.3,0.8
	c0,0.5-0.3,1.1-0.8,1.5H252v15.8c0,4.6,2.2,5.5,3.8,5.5c1.1,0,2.4-0.5,3.6-1.2l0.6,1.4l-4.9,2.5
	C254.4,142.6,253.7,142.8,253.3,142.8z M227.7,140.6c3.9-0.4,4.3-0.6,4.3-4v-13.9c0-3.6-0.1-3.6-4.1-4.1v-1.1
	c2.8-0.6,5.7-1.4,8.8-2.4v21.5c0,3.4,0.3,3.6,4.3,4v1.4h-13.3V140.6z M234.4,107.6c-1.7,0-3.1-1.4-3.1-3.2c0-1.8,1.4-3.3,3.1-3.3
	c1.8,0,3.1,1.5,3.1,3.3C237.5,106.2,236.1,107.6,234.4,107.6z M211.9,140.6c3.9-0.4,4.3-0.6,4.3-4v-11.5c0-3.5-1.1-6.5-5.6-6.5
	c-2.1,0-4.3,0.9-6.6,2.9c0.1,0.4,0.1,1.1,0.1,1.6v13.4c0,3.4,0.3,3.6,4.3,4v1.4h-13.3v-1.4c3.9-0.4,4.3-0.6,4.3-4v-11.7
	c0-3.5-1.2-6.2-5.3-6.2c-2.4,0-4.8,1.2-6.7,2.8v15.1c0,3.4,0.3,3.6,4.3,4v1.4h-13.3v-1.4c3.9-0.4,4.3-0.6,4.3-4v-13.9
	c0-3.6-0.1-3.6-4.1-4.1v-1.1c2.8-0.6,5.7-1.4,8.8-2.4v4.5c2.1-1.3,5.5-4.4,9.4-4.4c3,0,5.7,1.7,6.8,4.6c2.4-1.7,6-4.6,9.7-4.6
	c4.9,0,7.6,3.2,7.6,7.9v13.4c0,3.4,0.3,3.6,4.3,4v1.4h-13.3V140.6z M161.1,143c-3.2,0-6.3-1-9-2.2c-0.5-1.5-1.2-5.8-1.8-9.1l1.5-0.2
	c0.9,2.8,4,9.5,10.3,9.5c4.5,0,7.4-3.1,7.4-7.7c0-10.8-17.7-8.1-17.7-20.1c0-5.9,4.5-11.1,12.3-11.1c3.8,0,5.4,1.1,7.2,1.5l1.1,8.1
	l-1.5,0.2c-1-3.5-2.7-7.7-8.2-7.7c-4.2,0-6.5,3.1-6.5,6.6c0,10.6,18,6.9,18,20.1C174.4,137.8,168.7,143,161.1,143z M35.1,143.6
	c-12-29,1.8-62.2,30.7-74.2c28.9-12,62.1,1.8,74.1,30.7c12,29-1.8,62.2-30.7,74.2C80.3,186.4,47.1,172.6,35.1,143.6z M112.2,171.9
	c0,0-9.2-1-6.1-12.6c2.2-8.2-2.5-13-3.1-13.6c0,0,0,0,0,0l24.2,15.9l-8.4-12.8l-7.5-11.4c0.3,0,7.7,0.5,13.6,6.2
	c4.5,4.3,13.7,2.8,15.4-3.8c0,0-7.2,5.8-13.3-4.6c-4.2-7.3-10.9-7.4-11.8-7.4c0,0,0,0,0,0l28.3-5.9l-28.3-5.9l0,0
	c0.3-0.3,5.8-5.1,14-5.2c6.2-0.1,11.6-7.7,8.2-13.6c0,0-1,9.2-12.6,6.1c-8.2-2.2-13,2.5-13.5,3.1c0,0,0,0,0,0l15.8-24.2L103,98.1
	c0,0,0,0,0,0c0-0.4,0.5-7.7,6.2-13.7c4.3-4.5,2.8-13.7-3.8-15.4c0,0,5.8,7.2-4.6,13.3c-7.3,4.3-7.4,11-7.4,11.8c0,0,0,0,0,0
	l-5.9-28.3l-5.9,28.3c0,0,0,0,0,0c-0.2-0.3-5.1-5.8-5.2-14.1c-0.1-6.2-7.7-11.6-13.6-8.2c0,0,9.2,1,6.1,12.6
	c-2.2,8.2,2.6,13,3.1,13.6c0,0,0,0,0,0L47.9,82.2l12.9,19.7l2.9,4.5c0,0,0,0,0,0c-0.2,0-7.7-0.4-13.6-6.2
	c-4.5-4.3-13.7-2.8-15.4,3.8c0,0,7.2-5.8,13.3,4.6c4.3,7.3,11,7.4,11.8,7.4c0,0,0,0,0,0l-28.3,5.9l28.3,5.9c0,0,0,0,0,0
	c-0.2,0.2-5.7,5.1-14,5.3c-6.2,0.1-11.6,7.7-8.2,13.6c0,0,1-9.2,12.6-6.1c8.2,2.2,13-2.6,13.5-3.1c0,0,0,0,0,0l-15.8,24.2l24.2-15.9
	c0,0.2-0.4,7.7-6.2,13.7c-4.3,4.5-2.8,13.7,3.8,15.4c0,0-5.8-7.2,4.6-13.3c7.3-4.3,7.4-11,7.4-11.8c0,0,0,0,0,0l5.9,28.3l5.9-28.3
	c0,0,0,0,0,0c0.2,0.2,5.1,5.8,5.2,14.1C98.8,170,106.4,175.4,112.2,171.9z"/>
</svg>
