<svg id="development_icon" xmlns="http://www.w3.org/2000/svg" width="76" height="76" viewBox="0 0 76 76">
  <metadata><?xpacket begin="﻿" id="W5M0MpCehiHzreSzNTczkc9d"?>
<x:xmpmeta xmlns:x="adobe:ns:meta/" x:xmptk="Adobe XMP Core 5.6-c138 79.159824, 2016/09/14-01:09:01        ">
   <rdf:RDF xmlns:rdf="http://www.w3.org/1999/02/22-rdf-syntax-ns#">
      <rdf:Description rdf:about=""/>
   </rdf:RDF>
</x:xmpmeta>
                                                                                                    
                                                                                                    
                                                                                                    
                                                                                                    
                                                                                                    
                                                                                                    
                                                                                                    
                                                                                                    
                                                                                                    
                                                                                                    
                                                                                                    
                                                                                                    
                                                                                                    
                                                                                                    
                                                                                                    
                                                                                                    
                                                                                                    
                                                                                                    
                                                                                                    
                                                                                                    
                           
<?xpacket end="w"?></metadata>
<defs>
    <style>
      .cls-1, .cls-3 {
        fill: none;
        stroke-width: 2px;
        fill-rule: evenodd;
      }

      .cls-1 {
        stroke: #b9b9c9;
        stroke-linecap: round;
      }

      .cls-2 {
        fill: #b9b9c9;
      }

      .cls-3 {
        stroke: #ea135a;
      }
    </style>
  </defs>
  <g id="desktop">
    <path class="cls-1" d="M3.969,0.969H72.031a3,3,0,0,1,3,3V57.031a3,3,0,0,1-3,3H3.969a3,3,0,0,1-3-3V3.969A3,3,0,0,1,3.969.969Z"/>
    <rect class="cls-2" y="45" width="76" height="2"/>
    <path class="cls-1" d="M20,71H56a2,2,0,0,1,0,4H20A2,2,0,0,1,20,71Z"/>
    <path class="cls-1" d="M53,71l-5-6V60H28l0,5-5,6"/>
    <circle class="cls-2" cx="38" cy="53" r="2"/>
  </g>
  <g id="ruby">
    <path class="cls-3" d="M46,13l4,6L39,34H37L26,19l4-6H46Z"/>
    <path class="cls-3" d="M31,13l7,19,7-19H31Z"/>
    <path class="cls-3" d="M27,19H49"/>
  </g>
</svg>
