<svg id="migration_icon" xmlns="http://www.w3.org/2000/svg" width="76" height="76" viewBox="0 0 76 76">
  <metadata><?xpacket begin="﻿" id="W5M0MpCehiHzreSzNTczkc9d"?>
<x:xmpmeta xmlns:x="adobe:ns:meta/" x:xmptk="Adobe XMP Core 5.6-c138 79.159824, 2016/09/14-01:09:01        ">
   <rdf:RDF xmlns:rdf="http://www.w3.org/1999/02/22-rdf-syntax-ns#">
      <rdf:Description rdf:about=""/>
   </rdf:RDF>
</x:xmpmeta>
                                                                                                    
                                                                                                    
                                                                                                    
                                                                                                    
                                                                                                    
                                                                                                    
                                                                                                    
                                                                                                    
                                                                                                    
                                                                                                    
                                                                                                    
                                                                                                    
                                                                                                    
                                                                                                    
                                                                                                    
                                                                                                    
                                                                                                    
                                                                                                    
                                                                                                    
                                                                                                    
                           
<?xpacket end="w"?></metadata>
<defs>
    <style>
      .cls-1, .cls-3 {
        fill: none;
        stroke-width: 2px;
        fill-rule: evenodd;
      }

      .cls-1 {
        stroke: #b9b9c9;
        stroke-linecap: round;
      }

      .cls-2 {
        fill: #b9b9c9;
      }

      .cls-3 {
        stroke: #ea135a;
      }
    </style>
  </defs>
  <g id="container">
    <path class="cls-1" d="M3.974,0.974H72.026a3,3,0,0,1,3,3V72.026a3,3,0,0,1-3,3H3.974a3,3,0,0,1-3-3V3.974A3,3,0,0,1,3.974.974Z"/>
    <g id="site">
      <path class="cls-1" d="M10,10H28a2,2,0,0,1,2,2V30H8V12A2,2,0,0,1,10,10Z"/>
      <rect class="cls-2" x="9" y="15" width="20" height="2"/>
      <circle class="cls-2" cx="11" cy="13" r="1"/>
      <circle id="Ellipse_8_copy" data-name="Ellipse 8 copy" class="cls-2" cx="14" cy="13" r="1"/>
      <circle id="Ellipse_8_copy_2" data-name="Ellipse 8 copy 2" class="cls-2" cx="17" cy="13" r="1"/>
      <rect class="cls-2" x="9" y="24" width="12" height="2"/>
      <rect id="Rectangle_650_copy" data-name="Rectangle 650 copy" class="cls-2" x="9" y="20" width="8" height="2"/>
    </g>
    <path class="cls-1" d="M38,50.07A12.071,12.071,0,0,1,25.929,38M38,25.927A12.072,12.072,0,0,1,50.071,38"/>
  </g>
  <g id="ruby">
    <path class="cls-3" d="M65,46l4,6L58,67H56L45,52l4-6H65Z"/>
    <path class="cls-3" d="M50,46l7,19,7-19H50Z"/>
    <path class="cls-3" d="M46,52H68"/>
  </g>
</svg>
