<?xml version="1.0" encoding="utf-8"?>
<!-- Generator: Adobe Illustrator 16.0.0, SVG Export Plug-In . SVG Version: 6.00 Build 0)  -->
<!DOCTYPE svg PUBLIC "-//W3C//DTD SVG 1.1//EN" "http://www.w3.org/Graphics/SVG/1.1/DTD/svg11.dtd">
<svg version="1.1" id="Шар_1" xmlns="http://www.w3.org/2000/svg" xmlns:xlink="http://www.w3.org/1999/xlink" x="0px" y="0px"
	 width="100px" height="100px" viewBox="0 0 100 100" enable-background="new 0 0 100 100" xml:space="preserve">
<g>
	<path fill="#636362" d="M46,18v8H12v-8H46 M48,16H10v12h38V16L48,16z"/>
</g>
<g>
	<path fill="#636362" d="M26,32v8H12v-8H26 M28,30H10v12h18V30L28,30z"/>
</g>
<g>
	<path fill="#636362" d="M46,32v22H32V32H46 M48,30H30v26h18V30L48,30z"/>
</g>
<g>
	<path fill="#636362" d="M26,46v8H12v-8H26 M28,44H10v12h18V44L28,44z"/>
</g>
<g>
	<path fill="#636362" d="M46,60v8H12v-8H46 M48,58H10v12h38V58L48,58z"/>
</g>
<g>
	<path fill="#636362" d="M26,74v8H12v-8H26 M28,72H10v12h18V72L28,72z"/>
</g>
<g>
	<path fill="#636362" d="M46,74v8H32v-8H46 M48,72H30v12h18V72L48,72z"/>
</g>
<g>
	<path fill="#636362" d="M88,18v8H54v-8H88 M90,16H52v12h38V16L90,16z"/>
</g>
<g>
	<path fill="#636362" d="M68,60v8H54v-8H68 M70,58H52v12h18V58L70,58z"/>
</g>
<g>
	<path fill="#636362" d="M88,60v22H74V60H88 M90,58H72v26h18V58L90,58z"/>
</g>
<g>
	<path fill="#636362" d="M68,74v8H54v-8H68 M70,72H52v12h18V72L70,72z"/>
</g>
<g>
	<path fill="#636362" d="M88,46v8H54v-8H88 M90,44H52v12h38V44L90,44z"/>
</g>
<g>
	<path fill="#636362" d="M88,32v8H74v-8H88 M90,30H72v12h18V30L90,30z"/>
</g>
<g>
	<path fill="#636362" d="M68,32v8H54v-8H68 M70,30H52v12h18V30L70,30z"/>
</g>
</svg>
