<?xml version="1.0" encoding="utf-8"?>
<!-- Generator: Adobe Illustrator 16.0.0, SVG Export Plug-In . SVG Version: 6.00 Build 0)  -->
<!DOCTYPE svg PUBLIC "-//W3C//DTD SVG 1.1//EN" "http://www.w3.org/Graphics/SVG/1.1/DTD/svg11.dtd">
<svg version="1.1" id="Шар_1" xmlns="http://www.w3.org/2000/svg" xmlns:xlink="http://www.w3.org/1999/xlink" x="0px" y="0px"
	 width="100px" height="100px" viewBox="0 0 100 100" enable-background="new 0 0 100 100" xml:space="preserve">
<g>
	<polygon fill="#636362" points="12.5,80.5 10.5,80.5 10.5,82.5 12.5,82.5 12.5,80.5 	"/>
</g>
<g>
	<path fill="#636362" d="M15.5,60.5v17h-8v-17H15.5 M17.5,58.5h-12v21h12V58.5L17.5,58.5z"/>
</g>
<g>
	<path fill="#636362" d="M13.05,56.5h-3.1c-0.249,0-0.45,0.201-0.45,0.45v0.1c0,0.249,0.201,0.45,0.45,0.45h3.1
		c0.249,0,0.45-0.201,0.45-0.45v-0.1C13.5,56.701,13.298,56.5,13.05,56.5L13.05,56.5z"/>
</g>
<g>
	<path fill="#636362" d="M18.5,55.5v28h-14v-28H18.5 M18.5,53.5h-14c-1.104,0-2,0.895-2,2v28c0,1.104,0.896,2,2,2h14
		c1.104,0,2-0.896,2-2v-28C20.5,54.395,19.604,53.5,18.5,53.5L18.5,53.5z"/>
</g>
<path fill-rule="evenodd" clip-rule="evenodd" fill="#636362" d="M78.5,80.5h2v2h-2V80.5z"/>
<g>
	<path fill="#636362" d="M92.5,41.5v36h-26v-36H92.5 M94.5,39.5h-30v40h30V39.5L94.5,39.5z"/>
</g>
<g>
	<path fill="#636362" d="M94.5,37.5c1.103,0,2,0.897,2,2v42c0,1.103-0.897,2-2,2h-30c-1.103,0-2-0.897-2-2v-42c0-1.103,0.897-2,2-2
		H94.5 M94.5,35.5h-30c-2.209,0-4,1.791-4,4v42c0,2.209,1.791,4,4,4h30c2.209,0,4-1.791,4-4v-42C98.5,37.291,96.709,35.5,94.5,35.5
		L94.5,35.5z"/>
</g>
<path fill-rule="evenodd" clip-rule="evenodd" fill="#636362" d="M19.546,63.462L61.5,63.475v2l-41.954-0.013V63.462z"/>
<path fill-rule="evenodd" clip-rule="evenodd" fill="#636362" d="M38.5,71.5l-2,12h2l2-12H38.5z"/>
<path fill-rule="evenodd" clip-rule="evenodd" fill="#636362" d="M56.5,71.5l2,12h-2l-2-12H56.5z"/>
<path fill-rule="evenodd" clip-rule="evenodd" fill="#636362" d="M34.5,81.5h26c0.553,0,1,0.447,1,1c0,0.552-0.447,1-1,1h-26
	c-0.552,0-1-0.448-1-1C33.5,81.947,33.948,81.5,34.5,81.5z"/>
<path fill-rule="evenodd" clip-rule="evenodd" fill="#636362" d="M46.5,67.5h2v2h-2V67.5z"/>
<g>
	<path fill="#636362" d="M85.5,18.5v18.36h2V18.5c0-2.209-1.791-4-4-4h-72c-2.209,0-4,1.791-4,4v36.025h2V18.5c0-1.103,0.897-2,2-2
		h72C84.603,16.5,85.5,17.397,85.5,18.5z"/>
	<rect x="19.546" y="71.5" fill="#636362" width="41.954" height="2"/>
</g>
</svg>
