<?xml version="1.0" encoding="utf-8"?>
<!-- Generator: Adobe Illustrator 16.0.0, SVG Export Plug-In . SVG Version: 6.00 Build 0)  -->
<!DOCTYPE svg PUBLIC "-//W3C//DTD SVG 1.1//EN" "http://www.w3.org/Graphics/SVG/1.1/DTD/svg11.dtd">
<svg version="1.1" id="Шар_1" xmlns="http://www.w3.org/2000/svg" xmlns:xlink="http://www.w3.org/1999/xlink" x="0px" y="0px"
	 width="100px" height="100px" viewBox="0 0 100 100" enable-background="new 0 0 100 100" xml:space="preserve">
<path fill-rule="evenodd" clip-rule="evenodd" fill="#636362" d="M81,51c-8.837,0-16-7.163-16-16s7.163-16.001,16-16.001
	S97,26.163,97,35S89.837,51,81,51z M81,21c-7.732,0-14,6.268-14,14s6.268,14,14,14s14-6.268,14-14S88.732,21,81,21z M86,38.459
	c0,2.972-1.875,4.611-4,4.982V44.5c0,0.553-0.447,1-1,1s-1-0.447-1-1v-1.077c-2.125-0.409-4-2.068-4-4.923c0.887,0,0.872,0,2,0
	c0,1.52,0.899,2.456,2,2.812V35.73c-2-0.517-4-1.28-4-4.284c0-2.733,1.875-4.359,4-4.776V25.5c0-0.553,0.447-1,1-1s1,0.447,1,1
	v1.134c2.125,0.345,4,1.93,4,4.866c-0.797,0-1.235,0-2,0c0-1.535-0.899-2.452-2-2.786v5.549C84,34.751,86,35.478,86,38.459z
	 M82,41.328c1.11-0.339,2.016-1.273,2-2.828c-0.014-1.291-0.863-1.854-2-2.232V41.328z M80,28.732c-1.101,0.353-2,1.276-2,2.768
	c0,1.32,0.854,1.883,2,2.251V28.732z M74.479,19.724c-0.552,0-1-0.448-1-1c0-0.553,0.448-1,1-1s1,0.447,1,1
	C75.479,19.275,75.031,19.724,74.479,19.724z M67.68,15.685c-0.552,0-1-0.448-1-1c0-0.553,0.448-1,1-1c0.553,0,1,0.447,1,1
	C68.68,15.236,68.232,15.685,67.68,15.685z M67.5,20.225c0.479,0.276,0.643,0.888,0.366,1.366l-2,3.464
	c-0.276,0.479-0.888,0.643-1.366,0.366s-0.643-0.888-0.366-1.366l2-3.464C66.41,20.112,67.021,19.949,67.5,20.225z M67.005,73.005
	h-1.443l-3.026-3.027c-0.746,0-1.73,0-2.887,0l-4.674-4.673v-2.887l-2.692-2.692c-0.399-0.399-0.399-1.045,0-1.443
	c0.398-0.399,1.044-0.399,1.443,0l2.692,2.692h2.887l4.674,4.673c0,0.75,0,1.94,0,2.887l3.026,3.027V73.005z M61.813,66.369
	l-3.229-3.229h-1.443v1.444l3.229,3.229h1.443V66.369z M60.207,12.588c-0.552,0-1-0.448-1-1c0-0.553,0.448-1,1-1
	c0.553,0,1,0.447,1,1C61.207,12.14,60.76,12.588,60.207,12.588z M19.055,71.866l-3.464,1.999c-0.478,0.276-1.09,0.113-1.366-0.365
	c-0.276-0.479-0.112-1.09,0.366-1.366l3.464-2c0.478-0.276,1.09-0.112,1.366,0.366C19.697,70.978,19.533,71.59,19.055,71.866z
	 M15,54c0,0.552-0.448,1-1,1h-4c-0.552,0-1-0.448-1-1c0-0.553,0.448-1,1-1h4C14.552,53,15,53.447,15,54z M15.454,34.01l3.481,2.01
	c0.481,0.278,0.646,0.893,0.368,1.374c-0.278,0.48-0.893,0.646-1.373,0.368l-3.481-2.011c-0.481-0.277-0.646-0.893-0.368-1.373
	C14.359,33.897,14.974,33.732,15.454,34.01z M31.5,25.421c-0.479,0.276-1.09,0.112-1.366-0.366l-2-3.464
	c-0.276-0.479-0.112-1.09,0.366-1.366c0.479-0.275,1.09-0.112,1.366,0.366l2,3.464C32.142,24.533,31.978,25.145,31.5,25.421z
	 M31.866,83.944l-2,3.465c-0.276,0.478-0.888,0.642-1.366,0.365c-0.479-0.275-0.642-0.888-0.366-1.365l2-3.465
	c0.276-0.478,0.888-0.642,1.366-0.365C31.978,82.855,32.142,83.467,31.866,83.944z M49,88v4c0,0.553-0.448,1-1,1s-1-0.447-1-1v-4
	c0-0.553,0.448-1,1-1S49,87.447,49,88z M48,58c-2.209,0-4-1.791-4-4s1.791-4,4-4s4,1.791,4,4S50.209,58,48,58z M48,52
	c-1.104,0-2,0.896-2,2s0.896,2,2,2s2-0.896,2-2S49.104,52,48,52z M48,20l1,1v5c0.516,0.516,1.198,1.197,2,2v14l-2,2v4l-1,1l-1-1v-4
	l-2-2V28c0.518-0.519,1.345-1.345,2-2v-5L48,20z M47,41l1,1l1-1V29l-1-1l-1,1V41z M66.134,87.409l-2-3.465
	c-0.276-0.478-0.112-1.089,0.366-1.365s1.09-0.112,1.366,0.365l2,3.465c0.276,0.478,0.112,1.09-0.366,1.365
	C67.021,88.051,66.41,87.887,66.134,87.409z M51.646,10.758l-6.956,6.955c-0.388,0.389-1.017,0.389-1.404,0
	c-0.388-0.388-0.388-1.017,0-1.404l5.294-5.294C48.387,11.012,48.195,11,48,11C24.252,11,5,30.252,5,54s19.252,43,43,43
	c11.874,0,22.624-4.813,30.405-12.595l1.415,1.414C71.676,93.963,60.426,99,48,99C23.147,99,3,78.853,3,54C3,29.146,23.147,9,48,9
	c0.205,0,0.407,0.012,0.611,0.016l-5.324-5.324c-0.388-0.389-0.388-1.018,0-1.405c0.388-0.388,1.017-0.388,1.404,0l6.956,6.956
	c0.021,0.018,0.047,0.024,0.066,0.044C51.91,9.483,52.005,9.742,52.002,10c0.003,0.258-0.092,0.517-0.289,0.713
	C51.693,10.732,51.668,10.74,51.646,10.758z M76.75,70.56c0.277-0.48,0.893-0.645,1.373-0.368l3.481,2.011
	c0.48,0.277,0.646,0.893,0.368,1.372c-0.277,0.481-0.893,0.646-1.373,0.368l-3.482-2.01C76.637,71.655,76.473,71.041,76.75,70.56z
	 M81.817,81.188c0.552,0,1,0.447,1,1s-0.448,1-1,1s-1-0.447-1-1S81.266,81.188,81.817,81.188z M82,55c-0.553,0-1-0.448-1-1
	c0-0.553,0.447-1,1-1h4c0.553,0,1,0.447,1,1c0,0.552-0.447,1-1,1H82z M86.432,74.554c0.553,0,1,0.447,1,1c0,0.552-0.447,1-1,1
	s-1-0.448-1-1C85.432,75.001,85.879,74.554,86.432,74.554z M89.461,67.485c0.553,0,1,0.447,1,1c0,0.552-0.447,1-1,1s-1-0.448-1-1
	C88.461,67.933,88.908,67.485,89.461,67.485z M91.48,59.608c0.553,0,1,0.448,1,1c0,0.553-0.447,1-1,1s-1-0.447-1-1
	C90.48,60.057,90.928,59.608,91.48,59.608z M90.952,52.897c0-0.553,0.448-1,1-1s1,0.447,1,1c0,0.552-0.448,1-1,1
	S90.952,53.449,90.952,52.897z"/>
</svg>
