<?xml version="1.0" encoding="utf-8"?>
<!-- Generator: Adobe Illustrator 16.0.0, SVG Export Plug-In . SVG Version: 6.00 Build 0)  -->
<!DOCTYPE svg PUBLIC "-//W3C//DTD SVG 1.1//EN" "http://www.w3.org/Graphics/SVG/1.1/DTD/svg11.dtd">
<svg version="1.1" id="Шар_1" xmlns="http://www.w3.org/2000/svg" xmlns:xlink="http://www.w3.org/1999/xlink" x="0px" y="0px"
	 width="100px" height="100px" viewBox="0 0 100 100" enable-background="new 0 0 100 100" xml:space="preserve">
<path fill-rule="evenodd" clip-rule="evenodd" fill="#636362" d="M50.5,34.5c0.553,0,1,0.447,1,1v6c0,0.552-0.447,1-1,1
	c-0.552,0-1-0.448-1-1v-6C49.5,34.947,49.948,34.5,50.5,34.5z"/>
<path fill-rule="evenodd" clip-rule="evenodd" fill="#636362" d="M66.957,68.634l5.061,3c0.465,0.276,0.625,0.888,0.355,1.366
	c-0.268,0.479-0.863,0.642-1.33,0.365l-5.061-2.999c-0.465-0.276-0.625-0.889-0.356-1.366C65.895,68.521,66.49,68.357,66.957,68.634
	z"/>
<path fill-rule="evenodd" clip-rule="evenodd" fill="#636362" d="M34.043,68.634l-5.061,3c-0.466,0.276-0.625,0.888-0.357,1.366
	c0.269,0.479,0.865,0.642,1.331,0.365l5.061-2.999c0.466-0.276,0.625-0.889,0.356-1.366C35.105,68.521,34.509,68.357,34.043,68.634z
	"/>
<path fill-rule="evenodd" clip-rule="evenodd" fill="#636362" d="M86.462,59.01c-0.657-0.229-1.319-0.429-1.987-0.578
	c0.009-0.311,0.023-0.619,0.023-0.932c0-13.122-7.438-24.5-18.324-30.168c0.327-0.579,0.632-1.173,0.895-1.79
	C78.61,31.538,86.5,43.594,86.5,57.5C86.5,58.006,86.482,58.509,86.462,59.01z M68.047,88.933C62.854,91.838,56.873,93.5,50.5,93.5
	s-12.354-1.662-17.547-4.567c0.497-0.48,0.962-0.983,1.396-1.51c4.805,2.599,10.305,4.075,16.151,4.075
	c5.846,0,11.347-1.477,16.151-4.075C67.084,87.949,67.55,88.452,68.047,88.933z M16.501,57.5c0,0.313,0.015,0.621,0.023,0.932
	c-0.668,0.149-1.33,0.349-1.987,0.578c-0.021-0.501-0.038-1.004-0.038-1.51c0-13.906,7.89-25.962,19.432-31.958
	c0.263,0.617,0.567,1.211,0.895,1.79C23.94,33,16.501,44.378,16.501,57.5z"/>
<g>
	<path fill="#636362" d="M50.5,9.5c2.168,0,4,2.519,4,5.5c0,1.768-0.646,3.447-1.727,4.493l-2.272,2.199l-2.274-2.199
		C47.146,18.447,46.5,16.768,46.5,15C46.5,12.019,48.332,9.5,50.5,9.5 M50.5,22.107l3.197,0.768
		c3.653,0.877,6.303,3.221,6.739,5.856C59.079,29.394,55.296,30.5,50.5,30.5c-4.713,0-8.52-1.125-9.93-1.807
		c0.457-2.619,3.097-4.944,6.733-5.817L50.5,22.107 M50.5,47.5c2.168,0,4,2.519,4,5.5c0,1.768-0.646,3.447-1.728,4.493L50.5,59.69
		l-2.273-2.197C47.146,56.447,46.5,54.768,46.5,53C46.5,50.019,48.332,47.5,50.5,47.5 M50.5,60.107l3.197,0.768
		c3.654,0.878,6.304,3.222,6.74,5.857C59.079,67.394,55.296,68.5,50.5,68.5c-4.713,0-8.52-1.125-9.93-1.807
		c0.457-2.619,3.097-4.944,6.733-5.818L50.5,60.107 M82.5,65.5c2.168,0,4,2.519,4,5.5c0,1.768-0.646,3.447-1.728,4.493l-2.273,2.198
		l-2.272-2.198C79.146,74.447,78.5,72.768,78.5,71C78.5,68.019,80.332,65.5,82.5,65.5 M18.5,65.5c2.168,0,4,2.519,4,5.5
		c0,1.768-0.646,3.447-1.727,4.493L18.5,77.69l-2.273-2.197C15.146,74.447,14.5,72.768,14.5,71C14.5,68.019,16.332,65.5,18.5,65.5
		 M82.499,78.107l3.196,0.768c3.654,0.879,6.304,3.223,6.741,5.857C91.079,85.394,87.296,86.5,82.5,86.5
		c-4.714,0-8.52-1.125-9.93-1.807c0.457-2.619,3.098-4.944,6.733-5.818L82.499,78.107 M18.5,78.107l3.196,0.768
		c3.654,0.879,6.303,3.223,6.741,5.857C27.079,85.394,23.296,86.5,18.5,86.5c-4.713,0-8.52-1.125-9.93-1.807
		c0.457-2.619,3.098-4.944,6.733-5.818L18.5,78.107 M50.5,7.5c-3.313,0-6,3.357-6,7.5c0,2.416,0.917,4.559,2.336,5.931
		C42.002,22.092,38.5,25.488,38.5,29.5c0,0.914,5.373,3,12,3c6.627,0,12-1.984,12-3c0-4.012-3.502-7.408-8.336-8.569
		C55.582,19.559,56.5,17.416,56.5,15C56.5,10.857,53.813,7.5,50.5,7.5L50.5,7.5z M50.5,45.5c-3.313,0-6,3.357-6,7.5
		c0,2.415,0.917,4.559,2.336,5.931C42.002,60.092,38.5,63.488,38.5,67.5c0,0.914,5.373,3,12,3c6.627,0,12-1.984,12-3
		c0-4.012-3.502-7.408-8.337-8.569C55.582,57.559,56.5,55.415,56.5,53C56.5,48.857,53.813,45.5,50.5,45.5L50.5,45.5z M82.5,63.5
		c-3.313,0-6,3.357-6,7.5c0,2.416,0.918,4.559,2.336,5.931C74.002,78.093,70.5,81.488,70.5,85.5c0,0.914,5.373,3,12,3s12-1.984,12-3
		c0-4.012-3.502-7.407-8.337-8.569C87.582,75.559,88.5,73.416,88.5,71C88.5,66.857,85.813,63.5,82.5,63.5L82.5,63.5z M18.5,63.5
		c-3.313,0-6,3.357-6,7.5c0,2.416,0.917,4.559,2.336,5.931C10.002,78.093,6.5,81.488,6.5,85.5c0,0.914,5.373,3,12,3s12-1.984,12-3
		c0-4.012-3.502-7.407-8.337-8.569C23.582,75.559,24.5,73.416,24.5,71C24.5,66.857,21.813,63.5,18.5,63.5L18.5,63.5z"/>
</g>
</svg>
