<svg id="middle_market_icon" xmlns="http://www.w3.org/2000/svg" width="76" height="66" viewBox="0 0 76 66">
  <metadata><?xpacket begin="﻿" id="W5M0MpCehiHzreSzNTczkc9d"?>
<x:xmpmeta xmlns:x="adobe:ns:meta/" x:xmptk="Adobe XMP Core 5.6-c138 79.159824, 2016/09/14-01:09:01        ">
   <rdf:RDF xmlns:rdf="http://www.w3.org/1999/02/22-rdf-syntax-ns#">
      <rdf:Description rdf:about=""/>
   </rdf:RDF>
</x:xmpmeta>
                                                                                                    
                                                                                                    
                                                                                                    
                                                                                                    
                                                                                                    
                                                                                                    
                                                                                                    
                                                                                                    
                                                                                                    
                                                                                                    
                                                                                                    
                                                                                                    
                                                                                                    
                                                                                                    
                                                                                                    
                                                                                                    
                                                                                                    
                                                                                                    
                                                                                                    
                                                                                                    
                           
<?xpacket end="w"?></metadata>
<defs>
    <style>
      .cls-1 {
        fill: #b9b9c9;
      }

      .cls-2 {
        fill: #42bc79;
      }

      .cls-3, .cls-4 {
        fill: none;
      }

      .cls-3, .cls-5 {
        stroke: #42bc79;
      }

      .cls-3, .cls-4, .cls-5 {
        stroke-width: 2px;
        fill-rule: evenodd;
      }

      .cls-4 {
        stroke: #b9b9c9;
      }

      .cls-5 {
        fill: #fff;
      }
    </style>
  </defs>
  <rect id="bottom" class="cls-1" y="64" width="76" height="2"/>
  <g id="tree">
    <rect id="Rectangle_1057_copy" data-name="Rectangle 1057 copy" class="cls-2" x="7" y="58" width="2" height="8"/>
    <path class="cls-3" d="M8,49c2.487,0,4.01,13.876,4.01,15.7S9.772,68,8,68,3.99,66.523,3.99,64.7,5.435,49,8,49Z" transform="translate(0 -10)"/>
  </g>
  <g id="house">
    <g id="grid">
      <path class="cls-4" d="M22,25H58V75H22V25Z" transform="translate(0 -10)"/>
      <rect id="Rectangle_1051_copy_7" data-name="Rectangle 1051 copy 7" class="cls-1" x="23" y="24" width="34" height="2"/>
      <rect id="Rectangle_1051_copy_8" data-name="Rectangle 1051 copy 8" class="cls-1" x="23" y="34" width="34" height="2"/>
      <rect id="Rectangle_1051_copy_9" data-name="Rectangle 1051 copy 9" class="cls-1" x="23" y="44" width="34" height="2"/>
      <rect id="Rectangle_1051_copy_10" data-name="Rectangle 1051 copy 10" class="cls-1" x="23" y="54" width="34" height="2"/>
      <rect id="Rectangle_1051_copy_6" data-name="Rectangle 1051 copy 6" class="cls-1" x="48" y="16" width="2" height="48"/>
      <rect id="Rectangle_1051_copy_4" data-name="Rectangle 1051 copy 4" class="cls-1" x="30" y="16" width="2" height="48"/>
      <rect id="Rectangle_1051_copy" data-name="Rectangle 1051 copy" class="cls-1" x="39" y="16" width="2" height="48"/>
    </g>
    <path id="walls" class="cls-4" d="M16,19H64V75H16V19Z" transform="translate(0 -10)"/>
    <path id="roof" class="cls-4" d="M55,19H25V15h9V11H46v4h9v4Z" transform="translate(0 -10)"/>
  </g>
  <path id="bush" class="cls-5" d="M71.344,74.908V75H57.656a3.672,3.672,0,0,1,0-7.344,3.607,3.607,0,0,1,1.18.213A5.444,5.444,0,0,1,68.49,66.3a4.506,4.506,0,0,1,1.948-.454A4.579,4.579,0,0,1,71.344,74.908Z" transform="translate(0 -10)"/>
</svg>
