<svg id="startup_icon" xmlns="http://www.w3.org/2000/svg" width="76" height="48" viewBox="0 0 76 48">
  <metadata><?xpacket begin="﻿" id="W5M0MpCehiHzreSzNTczkc9d"?>
<x:xmpmeta xmlns:x="adobe:ns:meta/" x:xmptk="Adobe XMP Core 5.6-c138 79.159824, 2016/09/14-01:09:01        ">
   <rdf:RDF xmlns:rdf="http://www.w3.org/1999/02/22-rdf-syntax-ns#">
      <rdf:Description rdf:about=""/>
   </rdf:RDF>
</x:xmpmeta>
                                                                                                    
                                                                                                    
                                                                                                    
                                                                                                    
                                                                                                    
                                                                                                    
                                                                                                    
                                                                                                    
                                                                                                    
                                                                                                    
                                                                                                    
                                                                                                    
                                                                                                    
                                                                                                    
                                                                                                    
                                                                                                    
                                                                                                    
                                                                                                    
                                                                                                    
                                                                                                    
                           
<?xpacket end="w"?></metadata>
<defs>
    <style>
      .cls-1 {
        fill: #b9b9c9;
      }

      .cls-2, .cls-3 {
        fill: none;
        stroke: #b9b9c9;
      }

      .cls-2, .cls-3, .cls-4 {
        stroke-width: 2px;
        fill-rule: evenodd;
      }

      .cls-3 {
        stroke-linecap: round;
      }

      .cls-4 {
        fill: #fff;
        stroke: #42bc79;
      }
    </style>
  </defs>
  <rect id="bottom" class="cls-1" y="46" width="76" height="2"/>
  <path class="cls-2" d="M20,33H56V53H20V33Z" transform="translate(0 -28)"/>
  <g id="grid">
    <rect class="cls-1" x="28" y="6" width="2" height="18"/>
    <rect id="Rectangle_1137_copy" data-name="Rectangle 1137 copy" class="cls-1" x="37" y="6" width="2" height="18"/>
    <rect id="Rectangle_1137_copy_2" data-name="Rectangle 1137 copy 2" class="cls-1" x="46" y="6" width="2" height="18"/>
    <rect id="Rectangle_1137_copy_3" data-name="Rectangle 1137 copy 3" class="cls-1" x="21" y="14" width="34" height="2"/>
  </g>
  <rect id="Rectangle_1085_copy" data-name="Rectangle 1085 copy" class="cls-1" x="46" y="38" width="2" height="10"/>
  <path class="cls-3" d="M1,53H56V67H4a3,3,0,0,1-3-3V53Z" transform="translate(0 -28)"/>
  <path class="cls-3" d="M9,29H62v4H9V29Z" transform="translate(0 -28)"/>
  <g id="stairs">
    <rect class="cls-1" x="57" y="31" width="12" height="2"/>
    <rect id="Rectangle_1087_copy" data-name="Rectangle 1087 copy" class="cls-1" x="57" y="36" width="12" height="2"/>
    <rect id="Rectangle_1087_copy_2" data-name="Rectangle 1087 copy 2" class="cls-1" x="57" y="41" width="12" height="2"/>
    <path class="cls-3" d="M56,55H70V75H56V55Z" transform="translate(0 -28)"/>
    <rect class="cls-1" x="69" y="18" width="2" height="8"/>
  </g>
  <path id="bush" class="cls-4" d="M18.344,74.908V75H4.656a3.672,3.672,0,0,1,0-7.344,3.607,3.607,0,0,1,1.179.213A5.444,5.444,0,0,1,15.49,66.3a4.507,4.507,0,0,1,1.948-.454A4.579,4.579,0,0,1,18.344,74.908Z" transform="translate(0 -28)"/>
</svg>
